<?xml version="1.0" encoding="UTF-8" standalone="no"?>
<!-- Created with Inkscape (http://www.inkscape.org/) -->

<svg
   xmlns:dc="http://purl.org/dc/elements/1.1/"
   xmlns:cc="http://creativecommons.org/ns#"
   xmlns:rdf="http://www.w3.org/1999/02/22-rdf-syntax-ns#"
   xmlns:svg="http://www.w3.org/2000/svg"
   xmlns="http://www.w3.org/2000/svg"
   xmlns:sodipodi="http://sodipodi.sourceforge.net/DTD/sodipodi-0.dtd"
   xmlns:inkscape="http://www.inkscape.org/namespaces/inkscape"
   id="svg8"
   version="1.1"
   viewBox="0 0 127 127.00001"
   height="480"
   width="480"
   inkscape:version="0.91 r13725"
   sodipodi:docname="avalon.svg"
   inkscape:export-filename="/home/Jean-Francois.Le-Foll/Images/avalon_v2.png"
   inkscape:export-xdpi="90"
   inkscape:export-ydpi="90">
  <sodipodi:namedview
     pagecolor="#ffffff"
     bordercolor="#666666"
     borderopacity="1"
     objecttolerance="10"
     gridtolerance="10"
     guidetolerance="10"
     inkscape:pageopacity="0"
     inkscape:pageshadow="2"
     inkscape:window-width="1536"
     inkscape:window-height="806"
     id="namedview9"
     showgrid="false"
     inkscape:zoom="0.834386"
     inkscape:cx="-11.085789"
     inkscape:cy="243.64444"
     inkscape:window-x="75"
     inkscape:window-y="34"
     inkscape:window-maximized="0"
     inkscape:current-layer="svg8" />
  <defs
     id="defs2" />
  <metadata
     id="metadata5">
    <rdf:RDF>
      <cc:Work
         rdf:about="">
        <dc:format>image/svg+xml</dc:format>
        <dc:type
           rdf:resource="http://purl.org/dc/dcmitype/StillImage" />
        <dc:title></dc:title>
      </cc:Work>
    </rdf:RDF>
  </metadata>
  <g
     id="g4155"
     transform="matrix(1.185964,0,0,1.185964,0.74273943,-26.17739)">
    <g
       transform="translate(0,-169.99998)"
       id="layer1">
      <path
         d="m 42.912397,220.15478 9.1159,0 m -9.1159,-7.97691 9.1159,0 m -9.1159,-7.43625 9.1159,0 m 28.142289,65.90487 -19.149339,-39.18329 0,-34.5625 -18.108809,0 0,34.57151 -19.039022,39.54223 c -0.411273,0.85682 -0.825276,1.71597 -1.204152,2.54711 -0.477658,1.04774 -0.912568,2.06179 -1.262305,3.00814 -0.174827,0.47313 -0.328464,0.92952 -0.455408,1.36467 -0.126739,0.43516 -0.227398,0.84924 -0.295453,1.23794 -0.06846,0.38877 -0.104735,0.75184 -0.10392,1.0856 10e-4,0.33376 0.04075,0.63814 0.119812,0.90853 0.0811,0.2706 0.20417,0.50684 0.365141,0.71386 0.160565,0.20702 0.359029,0.3843 0.588955,0.53647 0.229842,0.152 0.492003,0.27874 0.780612,0.38429 0.288527,0.10555 0.603868,0.19032 0.940442,0.25756 0.673107,0.13529 1.431387,0.20294 2.232375,0.23677 0.800947,0.0326 1.644603,0.0326 2.488177,0.0326 l 23.899192,0 25.559485,0 m 0,0 c 2.869538,-0.0367 5.462244,-0.28934 6.020756,-2.15698 0.632355,-2.11485 -1.343443,-6.29788 -3.376497,-10.52598"
         style="display:inline;fill:none;stroke:#003459;stroke-width:3.17499995;stroke-linecap:round;stroke-linejoin:round;stroke-miterlimit:4;stroke-dasharray:none;stroke-opacity:1"
         id="path843"
         inkscape:connector-curvature="0" />
      <path
         d="m 49.758204,243.98187 a 4.8577819,4.8577819 0 0 1 4.857782,-4.85778 4.8577819,4.8577819 0 0 1 4.857782,4.85778 l -4.857782,0 z m -0.04661,27.40187 1.265568,-18.72145 7.259283,-0.0214 1.337262,19.70044 -9.766641,0.0214 z"
         style="fill:none;fill-opacity:1;fill-rule:evenodd;stroke:#003459;stroke-width:0.75800002;stroke-miterlimit:4;stroke-dasharray:none;stroke-opacity:1"
         id="path1442"
         inkscape:connector-curvature="0" />
      <path
         d="m 26.924394,279.29437 4.618381,-3.02906 1.763281,-0.69162 3.715277,-3.756 1.479796,-3.38239 3.620217,1.74405 1.519536,-1.43488 5.615197,1.69912 2.131777,0.50213 7.539748,4.14866 5.13346,0.0849 8.578466,4.1004 z m 33.004462,-32.79926 4.32,-2.34306 0,4.13695 z m -10.679078,-0.0662 -4.320054,-2.34309 0,4.137 z m 1.320777,-2.41849 -0.02067,4.15686 -1.413867,0 0,4.89117 11.005013,0 0,-4.89117 -1.629876,0 -0.06873,-4.15686 z m -0.211873,5.37952 1.222664,0 0,2.44584 -1.222664,0 z m 2.44533,0 1.223182,0 0,2.44584 -1.223182,0 z m 2.445845,0 1.222663,0 0,2.44584 -1.222663,0 z m 2.445329,0 1.222664,0 0,2.44584 -1.222664,0 z m -9.812202,22.0099 13.588085,0 0,3.80156 -13.588085,0 z m 3.053773,-13.4491 7.354849,0.0143 0.34614,4.82419 -8.047637,-0.006 z m -0.886694,9.79289 9.062612,-0.006 0.258813,3.85781 -9.58544,10e-4 z"
         style="fill:#003459;fill-opacity:1;stroke:none;stroke-width:0.26458332px;stroke-linecap:butt;stroke-linejoin:miter;stroke-opacity:1"
         id="path1454"
         inkscape:connector-curvature="0" />
    </g>
    <text
       sodipodi:linespacing="125%"
       id="text4137"
       y="125.36767"
       x="11.833238"
       style="font-style:normal;font-variant:normal;font-weight:normal;font-stretch:normal;font-size:10.58333397px;line-height:125%;font-family:'Jaapokki subtract';-inkscape-font-specification:'Jaapokki subtract';letter-spacing:0px;word-spacing:0px;fill:#003459;fill-opacity:1;stroke:none;stroke-width:1px;stroke-linecap:butt;stroke-linejoin:miter;stroke-opacity:1"
       xml:space="preserve"><tspan
         y="125.36767"
         x="11.833238"
         id="tspan4139"
         sodipodi:role="line">&lt;AVALON-LAB/&gt;</tspan></text>
  </g>
</svg>
