<?xml version="1.0" encoding="UTF-8"?><!DOCTYPE svg PUBLIC "-//W3C//DTD SVG 1.1//EN" "http://www.w3.org/Graphics/SVG/1.1/DTD/svg11.dtd"><svg xmlns="http://www.w3.org/2000/svg" xmlns:xlink="http://www.w3.org/1999/xlink"><defs><path id="a" d="M51.744 53.843V11.224H12.246v42.619z"/><rect id="a" width="56" height="81" x=".557" y=".176" rx="2"/><rect id="b" width="56" height="81" x="6.665" y="6.476" rx="2"/><path id="a" d="M0 80.395h35.903V0H0z"/></defs><symbol id="icon-arrow" viewBox="0 0 70 62"><path fill="#471B51" d="M6.85 43.69l50.477-21.466c4.575-1.945 9.91.206 11.856 4.781 1.946 4.575-.205 9.91-4.781 11.857L13.926 60.327c-4.576 1.946-9.911-.205-11.856-4.78-1.946-4.576.205-9.91 4.78-11.857"/><path fill="#471B51" d="M13.09 11.828a3.245 3.245 0 0 1-2.047 1.435 3.242 3.242 0 0 1-2.462-.43 3.267 3.267 0 0 1 1.04-5.943 3.267 3.267 0 0 1 3.468 4.938m50.949 9.754L13.86 1.349C9.058-.587 3.546 1.757 1.61 6.559c-1.937 4.802.41 10.316 5.21 12.252l50.176 20.233c4.802 1.936 10.316-.408 12.252-5.21 1.937-4.802-.408-10.317-5.21-12.252"/></symbol><symbol id="icon-facebook" viewBox="0 0 34 34"><path fill="currentColor" d="M19.996 33H14V17h-4v-5.514l4-.002-.006-3.248c0-4.5 1.22-7.236 6.518-7.236h4.412v5.515h-2.757c-2.064 0-2.163.77-2.163 2.21l-.008 2.76h4.96l-.585 5.513L20 17l-.004 16z"/></symbol><symbol id="icon-features-1" viewBox="0 0 64 64"><g fill="none" fill-rule="evenodd"><path fill="#FFD2DB" d="M21 25h23v23H21z"/><rect width="22.931" height="6.821" x="20.515" y="15" fill="#FF2444" fill-opacity=".5" rx="2"/><path fill="currentColor" d="M45.975 48.01a2.382 2.382 0 0 1-2.38 2.379h-23.16a2.382 2.382 0 0 1-2.379-2.38V15.332a2.382 2.382 0 0 1 2.38-2.38h23.16a2.382 2.382 0 0 1 2.379 2.38v32.677zm-2.38-36.644h-23.16a3.97 3.97 0 0 0-3.965 3.966v32.677a3.97 3.97 0 0 0 3.965 3.966h23.16a3.97 3.97 0 0 0 3.966-3.966V15.332a3.97 3.97 0 0 0-3.966-3.966z"/><path fill="currentColor" d="M42.802 20.09a.794.794 0 0 1-.793.794H22.022a.794.794 0 0 1-.793-.794v-3.172c0-.437.355-.793.793-.793h19.987c.437 0 .793.356.793.793v3.172zm-.793-5.552H22.022a2.382 2.382 0 0 0-2.38 2.38v3.172a2.382 2.382 0 0 0 2.38 2.38h19.987a2.382 2.382 0 0 0 2.38-2.38v-3.172a2.382 2.382 0 0 0-2.38-2.38z"/><path fill="currentColor" d="M40.423 17.711a.793.793 0 1 0 0 1.587.793.793 0 0 0 0-1.587m-9.517 0a.793.793 0 1 0 0 1.587.793.793 0 0 0 0-1.587m-3.173 0a.793.793 0 1 0 0 1.587.793.793 0 0 0 0-1.587m6.345 0a.793.793 0 1 0 0 1.587.793.793 0 0 0 0-1.587m3.173 0a.793.793 0 1 0 0 1.587.793.793 0 0 0 0-1.587m5.551 17.925h-7.614a.794.794 0 0 0-.793.793c0 .437.356.793.793.793h7.614v9.994h-9.994v-7.614a.794.794 0 0 0-.793-.793.794.794 0 0 0-.793.793v7.614H21.23v-9.994h7.614a.794.794 0 0 0 .793-.793.794.794 0 0 0-.793-.793h-7.614v-9.994h9.993v7.615c0 .437.356.793.793.793a.794.794 0 0 0 .793-.793v-7.615h9.994v9.994zm.793-11.58h-23.16a.793.793 0 0 0-.793.793v23.16c0 .438.355.793.793.793h23.16a.793.793 0 0 0 .793-.793V24.85a.793.793 0 0 0-.793-.793z"/><path fill="currentColor" d="M28.843 29.846h-1.824v-1.824a.793.793 0 0 0-1.587 0v1.824h-1.824a.793.793 0 0 0 0 1.586h1.824v1.825a.793.793 0 0 0 1.587 0v-1.825h1.824a.793.793 0 0 0 0-1.586m0 11.58h-5.235a.793.793 0 0 0 0 1.586h5.235a.793.793 0 0 0 0-1.586M40.26 39.84h-5.235a.793.793 0 0 0 0 1.586h5.235a.793.793 0 0 0 0-1.586m0 3.172h-5.235a.793.793 0 0 0 0 1.587h5.235a.793.793 0 0 0 0-1.587M38.765 30.64l1.29-1.29a.793.793 0 0 0-1.122-1.121l-1.29 1.29-1.29-1.29a.793.793 0 0 0-1.121 1.121l1.29 1.29-1.29 1.29a.793.793 0 0 0 1.121 1.122l1.29-1.29 1.29 1.29a.791.791 0 0 0 1.122 0 .793.793 0 0 0 0-1.122l-1.29-1.29zm-6.75 4.997a.794.794 0 0 0-.793.793c0 .437.356.793.793.793a.794.794 0 0 0 .793-.793.794.794 0 0 0-.793-.793"/></g></symbol><symbol id="icon-features-10" viewBox="0 0 64 64"><g fill="none" fill-rule="evenodd"><path fill="#FFD2DB" d="M17.452 21.881l-2.4 1.535v22.695l-3.052.58 1.542 4.453 3.099.793h31.617l3.646-1.44.621-3.806h-2.951V24.282l-2.185-2.401H18.384"/><path fill="#FFF" d="M19 26h27v18H19z"/><path fill="#FF91A1" d="M24.489 33.791c-.786-2.577-.624-4.633.484-6.167 1.11-1.534 2.214-2.586 3.314-3.155-.654-3.004-.654-5.354 0-7.05.654-1.697 1.901-3.662 3.741-5.895 2.366 2.165 3.668 4.687 3.905 7.564.236 2.878.118 4.672-.356 5.381 1.75 1.078 2.939 2.412 3.569 4.002.63 1.59.789 3.364.476 5.32l-4.608-3.283-.476.997h-5.359l-.413-.997-4.277 3.283z"/><path fill="currentColor" fill-rule="nonzero" d="M52.193 46.377H35.57a.827.827 0 0 0-.828.828 1.38 1.38 0 0 1-1.378 1.378h-2.75a1.38 1.38 0 0 1-1.378-1.378.827.827 0 0 0-.827-.828H15.494V25.12c0-.95.774-1.724 1.724-1.724h10.317l-1.711 1.695a7.916 7.916 0 0 0-2.347 5.642v3.694a.827.827 0 0 0 1.381.614l3.62-3.266a.826.826 0 0 0 .48.376 10.69 10.69 0 0 0 6.058 0 .826.826 0 0 0 .487-.393l3.639 3.283a.828.828 0 0 0 1.381-.614v-3.694a7.903 7.903 0 0 0-2.33-5.625l-1.59-1.59 10.18-.122c.95 0 1.723.774 1.723 1.724v21.257a.827.827 0 0 0 1.654 0V25.12a3.382 3.382 0 0 0-3.378-3.378H36.81a13.743 13.743 0 0 0-3.525-10.296l-.145-.16a1.413 1.413 0 0 0-2.106.016l-.274.31a13.801 13.801 0 0 0-3.39 10.13H17.217a3.382 3.382 0 0 0-3.378 3.378v21.257h-2.033a.827.827 0 0 0-.827.828v1.29a4.689 4.689 0 0 0 4.684 4.683h32.672c2.583 0 4.684-2.101 4.684-4.684v-1.29a.827.827 0 0 0-.827-.827zM35.947 28.73l.395-3.133.682.682a6.26 6.26 0 0 1 1.845 4.455v1.834l-3.058-2.76.136-1.078zm-3.945-16.023l.095-.108a12.092 12.092 0 0 1 3.005 9.605l-.19 1.508v.002l-.797 6.315-.085.672a9.031 9.031 0 0 1-2.043.235h-.031a9.038 9.038 0 0 1-2-.232l-.652-6.29-.073-.708-.182-1.754a12.14 12.14 0 0 1 2.953-9.245zm-3.804 17.093l-3.067 2.767v-1.833a6.26 6.26 0 0 1 1.837-4.447l.79-.745.44 4.258zm20.139 21.724H15.664a3.032 3.032 0 0 1-3.03-3.029v-.462h15.062a3.038 3.038 0 0 0 2.919 2.206h2.749a3.038 3.038 0 0 0 2.918-2.206h15.083v.462a3.032 3.032 0 0 1-3.028 3.03z"/><path fill="currentColor" fill-rule="nonzero" d="M45.968 25.243h-4.164a.827.827 0 0 0 0 1.655h3.337v16.027H19.137V26.898h2.624a.827.827 0 0 0 0-1.655h-3.452a.827.827 0 0 0-.827.827v17.682c0 .457.37.827.827.827h27.66c.456 0 .827-.37.827-.827V26.07a.827.827 0 0 0-.828-.827z"/><circle cx="32" cy="19.556" r="1" fill="currentColor" fill-rule="nonzero"/><path fill="currentColor" fill-rule="nonzero" d="M29.849 33.791a.827.827 0 0 0-.827.827v3.368a.827.827 0 0 0 1.654 0v-3.368a.827.827 0 0 0-.827-.827zm4.203-.192a.827.827 0 0 0-.827.828v4.965a.827.827 0 0 0 1.654 0v-4.965a.827.827 0 0 0-.827-.828z"/></g></symbol><symbol id="icon-features-11" viewBox="0 0 64 64"><g fill="none" fill-rule="evenodd"><path fill="#FFD2DB" d="M13.231 12.19h27.132v40.782H13.231z"/><circle cx="20" cy="24" r="3" fill="#FFF"/><path fill="#FF91A1" d="M28 34h23v13H28z"/><path fill="currentColor" d="M16.666 30.858c0 .473.388.856.867.856a.861.861 0 0 0 .866-.856.861.861 0 0 0-.866-.856.861.861 0 0 0-.867.856zm4.69-.856a.861.861 0 0 0-.867.856c0 .473.388.856.866.856a.861.861 0 0 0 .867-.856.861.861 0 0 0-.867-.856m3.929 0a.861.861 0 0 0-.867.856c0 .473.388.856.867.856a.861.861 0 0 0 .866-.856.861.861 0 0 0-.866-.856m-5.282-3.97c-1.08 0-1.96-.869-1.96-1.937 0-1.067.88-1.936 1.96-1.936s1.96.869 1.96 1.936c0 1.068-.88 1.937-1.96 1.937m0-5.585c-2.036 0-3.692 1.637-3.692 3.648 0 2.012 1.656 3.649 3.692 3.649 2.036 0 3.693-1.637 3.693-3.649 0-2.011-1.657-3.648-3.693-3.648m-2.925-2.203h18.606a.861.861 0 0 0 .866-.857.861.861 0 0 0-.866-.856H17.077a.861.861 0 0 0-.866.856c0 .473.388.857.866.857"/><mask id="b" fill="#fff"><use xlink:href="#a"/></mask><path fill="currentColor" d="M50.011 46.278H28.767V35.426l10.189 5.817a.873.873 0 0 0 .867 0l10.188-5.817v10.852zM39.337 52.13H13.979V12.937h25.358v20.078H27.9a.861.861 0 0 0-.867.856v13.263c0 .473.388.856.867.856h11.436v4.14zm8.436-17.404l-8.384 4.786-8.384-4.786h16.768zm3.105-1.712H41.069V12.08a.861.861 0 0 0-.866-.856h-27.09a.861.861 0 0 0-.867.856v40.907c0 .473.388.856.866.856h27.091a.861.861 0 0 0 .866-.856V47.99h9.809a.861.861 0 0 0 .866-.856V33.869a.861.861 0 0 0-.866-.854z" mask="url(#b)"/></g></symbol><symbol id="icon-features-12" viewBox="0 0 64 64"><g fill="none" fill-rule="evenodd"><path fill="#FFD2DB" d="M21.685 49.225V35.482l-3.407-.34c-.198-4.584.517-7.396 2.145-8.435 1.629-1.04 2.665-1.559 3.11-1.559-1.66-1.691-2.275-2.995-1.848-3.91.64-1.373 1.801-2.621 3.434-2.312a3.009 3.009 0 0 1 1.634 4.821 12.415 12.415 0 0 0-2.184 4.917v7.917c1.192 1.59 2.43 2.384 3.716 2.384-.213 1.607-.322 5.027-.328 10.26h-6.272zM41.6 49.225V35.482l3.407-.34c.198-4.584-.517-7.396-2.145-8.435-1.63-1.04-2.665-1.559-3.11-1.559 1.66-1.691 2.275-2.995 1.848-3.91-.64-1.373-1.801-2.621-3.434-2.312a3.009 3.009 0 0 0-1.634 4.821 12.415 12.415 0 0 1 2.184 4.917v7.917c-1.192 1.59-2.43 2.384-3.716 2.384.212 1.607.321 5.027.328 10.26H41.6z"/><path fill="#FF91A1" d="M28.705 38.828C26.235 38.466 25 37.35 25 35.482V28.02c0-2.525 1.867-4.611 5.6-6.258-1.264-1.162-1.895-2.466-1.895-3.913 0-2.17 2.188-2.849 3.351-2.849 1.164 0 3.58 1 3.58 2.849 0 1.85-1.97 4.105-3.026 4.105-1.056 0 7.048.486 7.048 6.435v7.843c0 1.351-1.206 2.217-3.618 2.596v10.397h-7.335V38.828z"/><path fill="currentColor" fill-rule="nonzero" d="M48.646 48.485h-5.999l-.036-17.168a.699.699 0 0 0-.699-.697h-.001a.699.699 0 0 0-.698.7l.037 17.165h-2.03l-.017-7.638a.699.699 0 0 0-.699-.697h-.001a.699.699 0 0 0-.697.7l.018 7.635h-1.697V39.24c1.978-.174 3.533-1.8 3.533-3.773v-6.77a7.584 7.584 0 0 0-.666-3.107 5.783 5.783 0 0 1 3.652 1.608 5.415 5.415 0 0 1 1.682 3.91l.013 3.975a.699.699 0 0 0 .698.697h.002a.699.699 0 0 0 .697-.701l-.013-3.975a6.801 6.801 0 0 0-2.108-4.911 7.141 7.141 0 0 0-2.696-1.638 3.686 3.686 0 0 0 1.15-2.684 3.7 3.7 0 0 0-3.696-3.689h-.008a3.709 3.709 0 0 0-1.705.42.699.699 0 1 0 .648 1.238 2.302 2.302 0 0 1 3.364 2.034 2.302 2.302 0 0 1-2.294 2.304c-.03 0-.06.003-.089.007-.037.001-.074.002-.111.005a7.95 7.95 0 0 0-4.04-2.893 4.09 4.09 0 0 0 1.399-3.08 4.104 4.104 0 0 0-4.1-4.099 4.103 4.103 0 0 0-4.098 4.099c0 1.286.596 2.436 1.526 3.187a7.944 7.944 0 0 0-3.723 2.782 7.4 7.4 0 0 0-.487-.006l-.038-.002a2.302 2.302 0 0 1-2.3-2.3 2.302 2.302 0 0 1 3.396-2.021.699.699 0 0 0 .667-1.228 3.7 3.7 0 0 0-5.46 3.25c0 1.11.492 2.106 1.27 2.784-2.642 1.019-4.515 3.528-4.515 6.456v3.962a.699.699 0 1 0 1.398 0v-3.962c0-2.898 2.313-5.281 5.249-5.522a7.584 7.584 0 0 0-.663 3.1v6.77c0 2.013 1.617 3.663 3.65 3.782v9.237h-1.903v-7.637a.699.699 0 1 0-1.397 0v7.637h-1.718v-17.16a.699.699 0 1 0-1.397 0v17.16h-5.542a.699.699 0 1 0 0 1.398h33.292a.699.699 0 1 0 0-1.398zM28.738 18.216a2.704 2.704 0 0 1 2.702-2.701 2.704 2.704 0 0 1 2.7 2.701 2.704 2.704 0 0 1-2.7 2.701 2.704 2.704 0 0 1-2.702-2.701zm6.69 10.016a.699.699 0 0 0-.698.7v19.553H32.24v-9.72a.699.699 0 1 0-1.397 0v9.72h-2.135V28.931a.699.699 0 1 0-1.397 0v8.916c-1.263-.114-2.253-1.138-2.253-2.38v-6.771c0-1.21.351-2.386 1.016-3.404 1.22-1.864 3.307-2.977 5.585-2.977 2.282 0 4.372 1.116 5.59 2.985a6.206 6.206 0 0 1 1.012 3.396v6.77c0 1.204-.93 2.202-2.135 2.368v-8.903a.699.699 0 0 0-.699-.699z"/></g></symbol><symbol id="icon-features-13" viewBox="0 0 64 64"><g fill="none" fill-rule="evenodd"><path fill="#FF91A1" d="M18 13v19.218l12.514 6.947 2.159-1.677 2.399 1.677 12.713-6.947V13z"/><path fill="#FFD2DB" d="M11.687 51.9l.547-21.89 18.28 9.155 2.159-1.677 2.399 1.677 18.285-9.155V51.9z"/><path fill="currentColor" fill-rule="nonzero" d="M53.748 29.06l-5.51-3.653v-12.21a.715.715 0 0 0-.715-.714H17.461a.715.715 0 0 0-.715.715v12.21l-5.509 3.652a.714.714 0 0 0-.32.596v22.131c0 .395.32.715.715.715h41.72c.396 0 .715-.32.715-.715V29.656a.714.714 0 0 0-.32-.596zm-37.002 2.5l-2.242-1.19h2.242v1.19zm-4.4-.716l16.435 8.718-16.434 10.894V30.844zm20.146 7.973l18.49 12.256h-36.98l18.49-12.256zm3.711.745l16.435-8.718v19.612L36.203 39.562zm12.035-9.192h2.242l-2.242 1.19v-1.19zm2.743-1.429h-2.743v-1.82l2.743 1.82zm-4.173-15.029v18.406l-11.96 6.345-1.961-1.3a.715.715 0 0 0-.79 0l-1.96 1.3-11.962-6.345V13.912h28.633zM16.746 28.941h-2.743l2.743-1.818v1.818z"/><path fill="currentColor" fill-rule="nonzero" d="M32.492 31.278h5.694a.715.715 0 0 0 0-1.43h-5.694a4.985 4.985 0 0 1-4.98-4.979v-.21a4.985 4.985 0 0 1 4.98-4.98 4.985 4.985 0 0 1 4.98 4.98v.526a1.08 1.08 0 0 1-2.157 0v-1.001a3.09 3.09 0 0 0-3.087-3.087 3.09 3.09 0 0 0-3.087 3.087 3.09 3.09 0 0 0 3.087 3.087c.779 0 1.49-.29 2.034-.767a2.507 2.507 0 0 0 4.638-1.319v-.527a6.416 6.416 0 0 0-6.408-6.408 6.416 6.416 0 0 0-6.409 6.408v.211a6.416 6.416 0 0 0 6.409 6.409zm-.264-5.437a1.66 1.66 0 0 1-1.657-1.657 1.66 1.66 0 0 1 1.657-1.658 1.66 1.66 0 0 1 1.658 1.658 1.66 1.66 0 0 1-1.658 1.657z"/></g></symbol><symbol id="icon-features-14" viewBox="0 0 64 64"><g fill="none" fill-rule="evenodd"><path fill="#FFD2DB" d="M24.687 41.329c-.143-2.293-.066-3.803.232-4.53.297-.728 2.17-1.87 5.617-3.429v-1.845l-2.147-2.59c-1.078-.376-1.607-.891-1.588-1.545a2.046 2.046 0 0 1 .776-1.593c-.04-2.265.23-3.724.812-4.378.87-.982 3.185-1.662 4.58-1.722 1.394-.06 3.387.83 3.975 2.495.393 1.11.589 2.312.589 3.605.395.752.606 1.41.632 1.971.027.562-.638.951-1.993 1.167-.395 1.24-1.027 2.103-1.898 2.59-.87.486-.87 1.101 0 1.845 3.31 1.004 5.165 1.942 5.566 2.814.401.873.602 2.495.602 4.866"/><circle cx="15" cy="15" r="5" fill="#FF91A1"/><circle cx="50.061" cy="14.539" r="5" fill="#FF91A1"/><circle cx="50.061" cy="49.743" r="5" fill="#FF91A1"/><circle cx="14.857" cy="49.489" r="5" fill="#FF91A1"/><path fill="currentColor" fill-rule="nonzero" d="M49.032 16.297a.74.74 0 0 0 1.029 0L52.6 13.85a.742.742 0 0 0-1.03-1.068l-2.025 1.951-.995-.955a.741.741 0 1 0-1.027 1.07l1.51 1.45zm1.029 27.417a5.856 5.856 0 0 0-3.603 1.236l-3.315-3.315a.742.742 0 0 0-1.05 1.049l3.316 3.315a5.856 5.856 0 0 0-1.236 3.603 5.894 5.894 0 0 0 5.888 5.887 5.895 5.895 0 0 0 5.888-5.887 5.895 5.895 0 0 0-5.888-5.888zm0 10.292a4.41 4.41 0 0 1-4.405-4.404 4.41 4.41 0 0 1 4.405-4.405 4.41 4.41 0 0 1 4.404 4.405 4.41 4.41 0 0 1-4.404 4.404z"/><path fill="currentColor" fill-rule="nonzero" d="M51.57 47.985l-2.025 1.952-.995-.956a.742.742 0 1 0-1.027 1.07l1.51 1.45a.74.74 0 0 0 1.028-.001l2.539-2.447a.742.742 0 0 0-1.03-1.068zM14.857 20.286a5.857 5.857 0 0 0 3.603-1.236l5.337 5.337a.74.74 0 0 0 1.049 0c.29-.29.29-.76 0-1.05l-5.337-5.336a5.857 5.857 0 0 0 1.236-3.603 5.895 5.895 0 0 0-5.888-5.887 5.894 5.894 0 0 0-5.887 5.887 5.894 5.894 0 0 0 5.887 5.888zm0-10.292a4.41 4.41 0 0 1 4.405 4.404 4.41 4.41 0 0 1-4.405 4.405 4.41 4.41 0 0 1-4.404-4.405 4.41 4.41 0 0 1 4.404-4.404z"/><path fill="currentColor" fill-rule="nonzero" d="M13.83 16.297a.74.74 0 0 0 1.028 0l2.539-2.447a.742.742 0 0 0-1.03-1.068l-2.025 1.951-.995-.955a.741.741 0 1 0-1.028 1.07l1.51 1.45zm2.537 31.688l-2.025 1.952-.995-.956a.742.742 0 1 0-1.028 1.07l1.51 1.45a.74.74 0 0 0 1.029-.001l2.539-2.447a.742.742 0 0 0-1.03-1.068zm23.89-23.04a.74.74 0 0 0 .524-.218l5.677-5.677a5.856 5.856 0 0 0 3.602 1.236 5.895 5.895 0 0 0 5.888-5.888 5.894 5.894 0 0 0-5.887-5.887 5.894 5.894 0 0 0-5.888 5.887c0 1.357.462 2.607 1.236 3.603l-5.677 5.677a.742.742 0 0 0 .524 1.266zm9.804-14.95a4.41 4.41 0 0 1 4.404 4.403 4.41 4.41 0 0 1-4.404 4.405 4.41 4.41 0 0 1-4.405-4.405 4.41 4.41 0 0 1 4.405-4.404z"/><path fill="currentColor" fill-rule="nonzero" d="M21.776 41.635L18.46 44.95a5.857 5.857 0 0 0-3.603-1.236 5.894 5.894 0 0 0-5.887 5.888 5.894 5.894 0 0 0 5.887 5.887 5.895 5.895 0 0 0 5.888-5.887 5.856 5.856 0 0 0-1.236-3.603l3.316-3.315a.742.742 0 0 0-1.05-1.05zm-6.919 12.37a4.41 4.41 0 0 1-4.404-4.403 4.41 4.41 0 0 1 4.404-4.405 4.41 4.41 0 0 1 4.405 4.405 4.41 4.41 0 0 1-4.405 4.404zM38.2 33.93l-3.298-1.322v-.549a4.171 4.171 0 0 0 1.903-2.363 2.221 2.221 0 1 0 1.25-3.964v-1.475a5.403 5.403 0 0 0-5.397-5.397h-.388a5.403 5.403 0 0 0-5.397 5.397v1.469a2.221 2.221 0 0 0-.854 1.75c0 1.192.942 2.167 2.121 2.222a4.171 4.171 0 0 0 1.903 2.361v.544l-3.385 1.326c-.291.104-2.873 1.126-2.873 4.405v2.907c0 .41.332.743.742.743h2.583a.742.742 0 1 0 0-1.484H25.27v-2.165c0-2.314 1.812-2.982 1.884-3.008.008-.002 1.053-.411 3.136-1.227l1.657 1.615a.742.742 0 0 0 1.052-.017l1.568-1.627 3.096 1.242c.059.02 1.924.675 1.924 3.022V40.5H26.528a.742.742 0 1 0 0 1.484h13.8c.41 0 .741-.338.741-.748v-2.902c0-3.267-2.562-4.293-2.869-4.404zm-1.205-7.043c.063.03.13.051.201.062a.739.739 0 0 1-.201 1.195v-1.257zm-9.045 1.269a.742.742 0 0 1-.246-1.187.734.734 0 0 0 .246-.075v1.262zm.745-3.347h-.003a.764.764 0 0 0-.076.004l-.023.004-.05.007-.033.009-.038.01-.038.014-.03.01-.044.022-.004.002v-.634a3.918 3.918 0 0 1 3.914-3.913h.388a3.918 3.918 0 0 1 3.913 3.913v.625l-.02-.01a.695.695 0 0 0-.04-.016l-.027-.01a.673.673 0 0 0-.047-.012l-.02-.006c-1.173-.267-1.552-1.818-1.555-1.83a.742.742 0 0 0-1.324-.271c-1.492 2.06-4.803 2.082-4.843 2.082zm4.723 8.312v.002l-.971 1.009-.92-.897v-.668c.188.026.38.041.576.041h.74c.195 0 .387-.015.575-.04v.553zm-.575-1.997h-.74a2.672 2.672 0 0 1-2.67-2.668v-2.207c1.05-.106 2.994-.474 4.459-1.734.321.573.833 1.211 1.62 1.566v2.375a2.671 2.671 0 0 1-2.67 2.668z"/></g></symbol><symbol id="icon-features-15" viewBox="0 0 64 64"><g fill="none" fill-rule="evenodd"><circle cx="23.5" cy="41.5" r="11.5" fill="#FFD2DB"/><path fill="#FF91A1" d="M16.099 50.253c.308-1.28 2.24-2.558 5.795-3.831v-1.958c-1.931-1.045-2.897-1.953-2.897-2.724 0-1.157-1.598.77-1.58-1.157.01-1.285.537-1.927 1.58-1.927-.218-4.132 1.259-6.198 4.43-6.198 3.172 0 4.88 1.95 5.126 5.851.842.793 1.206 1.551 1.092 2.274-.114.722-.801 1.108-2.062 1.157-.132 1.07-.494 1.79-1.087 2.164-.592.373-1.072.56-1.438.56v1.958c2.994.573 4.645 1.161 4.952 1.763a70.79 70.79 0 0 1 1.009 2.068c-2.386 1.643-4.872 2.464-7.46 2.464-3.882 0-5.72-1.003-7.46-2.464z"/><path fill="currentColor" fill-rule="nonzero" d="M52.612 19.787a.684.684 0 0 0-.012-.109.707.707 0 0 0-.023-.085l-.008-.021a.667.667 0 0 0-.033-.077l-.002-.004a.684.684 0 0 0-.12-.162l-8.091-8.091a.655.655 0 0 0-.162-.12l-.004-.002a.69.69 0 0 0-.182-.064h-.004a.67.67 0 0 0-.107-.012l-.022-.001H26.966a.68.68 0 0 0-.68.681l.008 3.526h-5.39a.68.68 0 0 0-.679.681l.031 13.752-.047.013a7.44 7.44 0 0 0-.095.029l-.13.041-.07.023-.095.03-.123.043-.056.02a6.414 6.414 0 0 0-.114.04l-.122.045-.085.032-.085.032-.2.082a13.06 13.06 0 0 0-.193.08l-.019.01-.148.064-.112.052-.054.025a7.024 7.024 0 0 0-.22.105l-.071.036-.099.05a9.094 9.094 0 0 0-.127.066l-.027.014a11.258 11.258 0 0 0-.241.132l-.01.005a11.393 11.393 0 0 0-1.163.739 17.379 17.379 0 0 0-.367.273 9.292 9.292 0 0 0-.357.287l-.025.02-.092.078-.115.1-.027.024a9.776 9.776 0 0 0-.184.166l-.043.04-.083.077c-.036.033-.07.067-.105.101l-.03.029a7.21 7.21 0 0 0-.088.086 12.352 12.352 0 0 0-2.198 2.953l-.01.017-.104.2-.05.101a14.524 14.524 0 0 0-.273.588 10.085 10.085 0 0 0-.199.488 7.872 7.872 0 0 0-.118.322l-.034.096c-.035.102-.068.205-.1.304l-.002.01-.002.006c-.03.099-.06.198-.088.297-.008.025-.014.051-.021.077l-.01.035-.002.01c-.018.063-.035.127-.051.19l-.023.094-.014.056-.04.17-.03.14a10.594 10.594 0 0 0-.15.834l-.006.044a10.66 10.66 0 0 0-.037.287l-.005.041a5.962 5.962 0 0 0-.013.112l-.014.152-.008.086-.008.092-.015.228-.003.054a2.468 2.468 0 0 0-.003.05c-.346 6.8 4.904 12.614 11.704 12.96a12.317 12.317 0 0 0 2.242-.09h20.524a.68.68 0 0 0 .68-.68v-3.527h5.38a.68.68 0 0 0 .68-.68V19.81v-.023zm-8.09-6.427l5.77 5.77h-5.77v-5.77zM25.259 52.412h-1.903a.677.677 0 0 0-.324.082 10.928 10.928 0 0 1-6.092-2.333.674.674 0 0 0 .051-.101 2.959 2.959 0 0 1 1.648-1.642l3.032-1.187 1.626 1.584a.68.68 0 0 0 .475.193h.01a.68.68 0 0 0 .48-.208l1.539-1.598 3.028 1.214.032.012c.049.018 1.193.436 1.66 1.737a10.957 10.957 0 0 1-5.262 2.247zm2.71-14.218a.681.681 0 0 0-.13.03c-.005 0-.01-.003-.016-.004-1.275-.317-1.684-2.167-1.687-2.184a.68.68 0 0 0-1.233-.237c-1.572 2.376-5.027 2.4-5.07 2.4h-.003a.684.684 0 0 0-.18.026.665.665 0 0 0-.146-.034v-.307c0-2.469 1.811-4.477 4.037-4.477h.392c2.226 0 4.037 2.008 4.037 4.477v.31zm-7.862 1.357c.838-.044 3.35-.32 5.127-2.037.375.766 1.038 1.67 2.149 1.993v1.226c0 1.974-1.443 3.58-3.216 3.58h-.845c-1.773 0-3.215-1.606-3.215-3.58V39.55zm4.63 6.082v.712l-.98 1.018-.934-.908v-.813c.164.02.33.03.5.03h.844c.193 0 .383-.014.57-.04zm20.456 6.779H29.561c3.684-1.98 6.278-5.783 6.506-10.256l.003-.08c.003-.083.007-.167.009-.255l.001-.114v-.045a8.498 8.498 0 0 0 0-.29v-.032c0-.062-.001-.124-.003-.184l-.003-.094L36.07 41a14.944 14.944 0 0 0-.008-.175l-.01-.153-.014-.182-.002-.02a11.502 11.502 0 0 0-.03-.31l-.003-.026a8.635 8.635 0 0 0-.013-.117l-.025-.19-.006-.043a8.381 8.381 0 0 0-.012-.088l-.03-.182-.022-.14a11.965 11.965 0 0 0-.059-.308l-.002-.01c-.021-.106-.044-.21-.07-.318l-.026-.108c-.016-.068-.032-.136-.05-.205a5.08 5.08 0 0 0-.022-.081l-.009-.033a9.769 9.769 0 0 0-.148-.506l-.038-.12a12.887 12.887 0 0 0-.176-.499l-.039-.102-.081-.204-.028-.069-.008-.019a12.435 12.435 0 0 0-.645-1.322.68.68 0 0 0-1.185.667 11.006 11.006 0 0 1 .586 1.205l.018.045.073.184.036.094a10.71 10.71 0 0 1 .155.439l.035.11.052.171.003.01a6.728 6.728 0 0 1 .077.271l.027.1c.016.06.03.122.045.183l.024.096c.021.094.042.187.06.278l.004.015c.018.09.035.18.05.27l.022.129.025.158.01.073.007.047.022.168.011.1.003.026.017.164.01.113.002.017.012.16.009.137.007.155.006.142.003.163v.036l.001.097v.15l-.002.054v.093a16.71 16.71 0 0 1-.01.274l-.002.024a10.944 10.944 0 0 1-3.121 7.12 4.363 4.363 0 0 0-2.264-2.059l-3.226-1.293v-.646c1.006-.507 1.813-1.398 2.26-2.497.063.02.13.03.198.03 1.127 0 2.044-.963 2.044-2.146 0-.896-.525-1.664-1.27-1.985v-.728c0-3.218-2.42-5.837-5.395-5.837h-.393c-2.976 0-5.396 2.619-5.396 5.837v.73c-.741.322-1.264 1.09-1.264 1.983 0 1.183.917 2.146 2.043 2.146a.682.682 0 0 0 .207-.033c.457 1.127 1.293 2.034 2.332 2.535v.607l-3.31 1.296a4.365 4.365 0 0 0-2.268 2.063 10.96 10.96 0 0 1-3.125-8.238l.002-.024.003-.047.001-.023.014-.205.006-.07.008-.09a13.462 13.462 0 0 1 .023-.223l.006-.047.019-.16.013-.091.006-.045a12.107 12.107 0 0 1 .074-.448l.025-.132.034-.16.028-.127c.01-.05.023-.1.035-.15l.013-.056a5.72 5.72 0 0 1 .019-.075l.048-.18.011-.042.016-.056c.025-.088.05-.175.077-.261l.005-.016c.029-.092.058-.182.088-.27l.031-.087.068-.188c.011-.032.023-.062.037-.097a9.3 9.3 0 0 1 .177-.437l.044-.098a11.312 11.312 0 0 1 .2-.424l.044-.09c.03-.06.06-.118.092-.176l.023-.044.008-.014a10.989 10.989 0 0 1 2.004-2.655l.039-.038.09-.088.069-.063.047-.043.082-.075.074-.066.03-.026a9.16 9.16 0 0 1 .1-.088l.079-.065.029-.025a6.957 6.957 0 0 1 .313-.251 15.03 15.03 0 0 1 .329-.245 12.06 12.06 0 0 1 .565-.379l.119-.074.115-.069.116-.068.12-.067.011-.007.108-.06.101-.054.032-.016a8.557 8.557 0 0 1 .19-.098l.075-.037a8.515 8.515 0 0 1 .183-.088l.063-.03.092-.042c.042-.02.086-.038.129-.056l.018-.008a10.16 10.16 0 0 1 .351-.146l.065-.024.092-.035.103-.039.092-.032.065-.023.102-.035.077-.025.074-.024.112-.035.154-.046.003-.001a.677.677 0 0 0 .268.055h.002c.213 0 .404-.1.528-.254.042-.01.084-.018.125-.026l.016-.003.118-.022a8.314 8.314 0 0 1 .43-.071l.126-.018.149-.018.012-.002.123-.013c.05-.006.1-.01.152-.015l.13-.012.158-.01.014-.002.114-.007.11-.005.097-.004c.027 0 .053-.002.08-.003l.146-.002.141-.002.167.002.072.001h.054l.288.012h.007a11.802 11.802 0 0 1 .342.023l.077.007.157.014.162.019.126.015.078.01.08.012a7.265 7.265 0 0 1 .225.035l.047.008.137.024.102.02.027.005a11.263 11.263 0 0 1 .427.092l.13.032a13.148 13.148 0 0 1 .414.112l.129.038a11.293 11.293 0 0 1 .532.178l.126.046.042.017.093.035.094.038.083.034.08.032.11.048.06.027.083.036.105.048.074.035.07.034.105.052.076.038.066.032a9.019 9.019 0 0 1 .334.18l.026.015.117.066.085.05.064.039.086.051a5.1 5.1 0 0 1 .087.055l.065.04.079.05.115.077.016.01.098.066.097.068.04.028.086.06.097.072.023.017.096.072a14.277 14.277 0 0 1 .428.341 9.852 9.852 0 0 1 .406.359l.01.009.092.086.094.092.031.03a5.707 5.707 0 0 1 .164.164l.095.098.073.078.02.02a.68.68 0 1 0 .995-.925l-.018-.02-.086-.092a11.93 11.93 0 0 0-.106-.11l-.106-.107a8.096 8.096 0 0 0-.081-.08l-.029-.028a9.467 9.467 0 0 0-.109-.105l-.103-.097-.01-.01a16.773 16.773 0 0 0-.34-.304l-.118-.1a10.705 10.705 0 0 0-.236-.193l-.12-.094a16.237 16.237 0 0 0-.233-.178l-.022-.016a9.046 9.046 0 0 0-.212-.153l-.038-.027a6.973 6.973 0 0 0-.226-.154l-.013-.009a10.044 10.044 0 0 0-.13-.086l-.095-.06-.061-.039-.105-.066-.103-.061-.056-.033-.103-.062a10.01 10.01 0 0 0-.137-.077l-.026-.015a13.487 13.487 0 0 0-.46-.244l-.068-.034a8.786 8.786 0 0 0-.213-.103l-.07-.033a9 9 0 0 0-.222-.1l-.056-.025c-.043-.02-.086-.038-.13-.056-.03-.014-.062-.026-.093-.04l-.084-.033a7.73 7.73 0 0 0-.217-.085l-.045-.018-.142-.052-.143-.05c-.05-.018-.1-.036-.155-.054l-.142-.046a14.48 14.48 0 0 0-.462-.139 17.932 17.932 0 0 0-.454-.116 15.031 15.031 0 0 0-.31-.07l-.17-.034-.028-.006a10.65 10.65 0 0 0-.114-.021l-.158-.028-.046-.008-.114-.019a7.876 7.876 0 0 0-.148-.021l-.076-.011a8.025 8.025 0 0 0-.242-.031l-.177-.02a11.62 11.62 0 0 0-.18-.017l-.068-.006a13.173 13.173 0 0 0-.388-.027h-.01l-.018-.001c-.106-.005-.21-.01-.313-.012l-.075-.001h-.066a8.61 8.61 0 0 0-.271-.002l-.072.001-.169.003-.097.004-.095.003a9.592 9.592 0 0 0-.263.015h-.012a11.963 11.963 0 0 0-.63.058l-.014.001a13.451 13.451 0 0 0-.627.091l-.03.005-.029-12.756h15.515v7.411c0 .376.304.68.68.68h7.412v27.716zM28.704 41.363a5.33 5.33 0 0 0 .039-.63v-.724c.07-.01.137-.03.2-.06.178.142.296.38.296.648 0 .374-.23.688-.535.766zm-9.918.003c-.311-.073-.545-.39-.545-.77 0-.266.117-.503.295-.645.065.031.136.052.21.06v.722c0 .215.015.426.04.633zM38.46 23.337v-5.77l5.77 5.77h-5.77zm12.792 24.868h-4.698-.003V24.017v-.023a.684.684 0 0 0-.013-.109.688.688 0 0 0-.023-.085l-.008-.021a.682.682 0 0 0-.033-.077l-.002-.004a.671.671 0 0 0-.047-.075l-.014-.018a.684.684 0 0 0-.059-.068l-8.091-8.092a.663.663 0 0 0-.161-.12c-.002 0-.004 0-.006-.002a.669.669 0 0 0-.075-.033l-.022-.008a.699.699 0 0 0-.084-.023h-.004a.663.663 0 0 0-.082-.01l-.025-.002-.022-.001H27.654l-.007-2.847h15.515v7.411c0 .376.304.68.68.68h7.411v27.715z"/></g></symbol><symbol id="icon-features-16" viewBox="0 0 64 64"><g fill="none" fill-rule="evenodd"><path fill="#FFD2DB" d="M24.909 18H12v28.16h5.54v6.529l6.736-6.528h12.471V39.48c-5.893-.73-10.05-3.193-12.471-7.389-2.42-4.196-2.21-8.893.633-14.091z"/><path fill="#FF91A1" d="M41.715 38.812c-8.87 1.317-14.7-1.127-17.491-7.332-4.186-9.306 2.703-20.01 12.27-19.562 9.569.449 16.093 5.87 15.666 15.616-.561 3.05-2.575 6.085-6.042 9.106l2.24 4.752-6.643-2.58z"/><circle cx="29.5" cy="26.5" r="1.5" fill="#FFF"/><circle cx="36.5" cy="26.5" r="1.5" fill="#FFF"/><circle cx="43.5" cy="26.5" r="1.5" fill="#FFF"/><g fill="currentColor" fill-rule="nonzero"><path d="M46.751 36.655c3.807-2.718 6.061-6.949 6.061-11.43 0-7.936-6.937-14.394-15.464-14.394-5.02 0-9.706 2.26-12.61 6.061H11.857c-.369 0-.668.3-.668.668v28.166c0 .37.3.669.668.669h5.036V52.5a.668.668 0 0 0 1.135.48l6.758-6.585h12.028c.37 0 .669-.3.669-.669V39.62c1.255-.01 2.503-.16 3.714-.449l6.791 2.547a.667.667 0 0 0 .833-.924l-2.069-4.138zm-10.606 8.403H24.513a.669.669 0 0 0-.466.19l-5.818 5.668v-5.19c0-.369-.3-.668-.668-.668h-5.036V18.229h11.307a13.818 13.818 0 0 0-1.688 4.367h-5.296c-.37 0-.669.3-.669.669v2.14c0 .368.3.668.669.668h5.063c.078 1.25.327 2.473.745 3.654h-5.808c-.37 0-.669.3-.669.668v2.14c0 .369.3.668.669.668h7.628a14.956 14.956 0 0 0 3.76 3.655H16.848c-.37 0-.669.299-.669.668v2.14c0 .368.3.668.669.668h14.974c.37 0 .668-.3.668-.669v-.77c1.182.364 2.406.592 3.655.681v5.482zM21.949 23.933c-.026.268-.046.535-.056.803h-4.377v-.803h4.433zm1.261 7.131c.13.271.268.539.416.802h-6.11v-.802h5.694zm7.423 7.13c.172.078.345.152.52.224v.579H17.516v-.802h13.117zm10.84-.348a.67.67 0 0 0-.4-.022 15.25 15.25 0 0 1-4.238.45 15.035 15.035 0 0 1-5.78-1.355c-2.328-1.073-4.291-2.718-5.678-4.758l-.001-.002a12.717 12.717 0 0 1-1.121-2.023v-.001l-.004-.008a12.134 12.134 0 0 1-1.028-4.732v-.061c-.002-.036-.002-.072-.002-.108a12.327 12.327 0 0 1 2.393-7.272c2.633-3.623 7.02-5.786 11.734-5.786 7.79 0 14.128 5.858 14.128 13.058 0 4.218-2.225 8.2-5.95 10.648a.669.669 0 0 0-.231.858l1.568 3.136-5.39-2.022z"/><path d="M48.85 20.099a.668.668 0 1 0-1.18.628 9.473 9.473 0 0 1 1.132 4.499.668.668 0 1 0 1.337 0c0-1.797-.434-3.522-1.29-5.127zm-2.307-3.014c-2.435-2.309-5.7-3.58-9.195-3.58a.668.668 0 1 0 0 1.337c3.15 0 6.09 1.14 8.275 3.213a.666.666 0 0 0 .945-.025.669.669 0 0 0-.025-.945zm-9.908 6.581c-1.45 0-2.63 1.18-2.63 2.63s1.18 2.629 2.63 2.629 2.63-1.18 2.63-2.63-1.18-2.629-2.63-2.629zm0 3.922a1.294 1.294 0 0 1 0-2.585c.713 0 1.292.58 1.292 1.292 0 .713-.58 1.293-1.292 1.293zm7.13-3.922c-1.45 0-2.629 1.18-2.629 2.63s1.18 2.629 2.63 2.629 2.629-1.18 2.629-2.63-1.18-2.629-2.63-2.629zm0 3.922a1.294 1.294 0 0 1 0-2.585c.713 0 1.293.58 1.293 1.292 0 .713-.58 1.293-1.292 1.293zm-14.26-3.922c-1.45 0-2.63 1.18-2.63 2.63s1.18 2.629 2.63 2.629 2.629-1.18 2.629-2.63-1.18-2.629-2.63-2.629zm0 3.922a1.294 1.294 0 0 1 0-2.585c.712 0 1.292.58 1.292 1.292 0 .713-.58 1.293-1.293 1.293z"/></g></g></symbol><symbol id="icon-features-17" viewBox="0 0 64 64"><g fill="none" fill-rule="evenodd"><path fill="#FF91A1" d="M44.012 43.117h4.96c2.092.067 3.139-1.173 3.139-3.718v-7.285c-.487-2.15-1.732-3.224-3.733-3.224-2.002 0-3.457.225-4.366.677v13.55z"/><path fill="#FFD2DB" d="M25 13h15v3H25zM30.217 47.549h5.774v3.827h-5.774z"/><path fill="#FF91A1" d="M20.544 43.117h-4.96c-2.093.067-3.14-1.173-3.14-3.718v-7.285c.488-2.15 1.732-3.224 3.734-3.224s3.457.225 4.366.677v13.55z"/><path fill="currentColor" fill-rule="nonzero" d="M53.488 28.233c0-7.405-5.623-13.548-12.916-14.26A2.183 2.183 0 0 0 38.48 12.4H26.454c-.991 0-1.829.665-2.093 1.572-7.293.714-12.916 6.858-12.916 14.261v11.443a4.412 4.412 0 0 0 4.407 4.407h3.43c1.021 0 1.852-.83 1.852-1.851v-12.16c0-1.02-.83-1.851-1.852-1.851h-3.43c-1.092 0-2.092.4-2.863 1.06v-1.048c0-6.596 5.003-12.072 11.496-12.721.35.737 1.1 1.25 1.969 1.25h12.025c.87 0 1.619-.513 1.97-1.25 6.492.648 11.494 6.124 11.494 12.721v1.047a4.387 4.387 0 0 0-2.861-1.06H45.65c-1.021 0-1.852.831-1.852 1.852v12.16c0 1.02.831 1.851 1.852 1.851h3.43c1.092 0 2.092-.4 2.863-1.06v.562a5.298 5.298 0 0 1-5.292 5.291h-9.357a2.89 2.89 0 0 0-2.779-2.112h-2.817a2.888 2.888 0 0 0-2.884 2.885 2.888 2.888 0 0 0 2.884 2.884h2.817a2.89 2.89 0 0 0 2.779-2.112h9.357a6.844 6.844 0 0 0 6.836-6.836V28.233zm-33.899 1.839v12.16c0 .169-.137.307-.307.307h-.307V29.765h.307c.17 0 .307.138.307.307zm-3.737-.307h1.579v12.774h-1.58a2.866 2.866 0 0 1-2.862-2.863v-7.049a2.866 2.866 0 0 1 2.863-2.862zm22.627-14.548H26.454a.637.637 0 0 1 0-1.273h12.025a.637.637 0 0 1 0 1.273zm6.865 27.015v-12.16c0-.17.137-.307.307-.307h.307v12.774h-.307a.308.308 0 0 1-.307-.307zm-10.828 8.757h-2.817c-.739 0-1.34-.601-1.34-1.34 0-.74.601-1.34 1.34-1.34h2.817c.74 0 1.34.6 1.34 1.34 0 .739-.6 1.34-1.34 1.34zm14.566-8.45h-1.58V29.765h1.58a2.866 2.866 0 0 1 2.862 2.862v7.05a2.866 2.866 0 0 1-2.862 2.862z"/></g></symbol><symbol id="icon-features-18" viewBox="0 0 64 64"><g fill="none" fill-rule="evenodd" transform="translate(9.845 10.91)"><path fill="#FFD2DB" d="M36.177 42.03h2.232v-1.916l-5.974-11.133c2.943-2.765 3.627-6.517 2.052-11.255-2.362-7.107-13.775-5.125-15.635 0-1.86 5.126-1.027 10.858 4.565 12.5 3.728 1.095 5.906 1.095 6.535 0l6.225 11.804z"/><ellipse cx="26.655" cy="22.089" fill="#FF91A1" rx="6.5" ry="6"/><path fill="currentColor" fill-rule="nonzero" d="M.8 1.699H44.51a.8.8 0 0 0 0-1.6H.8a.8.8 0 0 0 0 1.6zM44.51 5.088H.8a.8.8 0 0 0 0 1.6H44.51a.8.8 0 0 0 0-1.6zm0 4.988H.8a.8.8 0 0 0 0 1.6H44.51a.8.8 0 0 0 0-1.6zm.8 5.79a.8.8 0 0 0-.8-.8H33.05c-2.995-2.782-7.57-3.436-11.3-1.302a9.585 9.585 0 0 0-1.77 1.301H.8a.8.8 0 0 0 0 1.6h17.805a9.65 9.65 0 0 0-1.46 3.389H.8a.8.8 0 0 0 0 1.6h16.134a9.54 9.54 0 0 0 .45 3.388H.8a.8.8 0 0 0 0 1.6h17.268a9.532 9.532 0 0 0 5.929 4.709c.837.228 1.688.34 2.534.34.877 0 1.748-.122 2.593-.363l6.055 10.583a2.324 2.324 0 0 0 3.17.862 2.325 2.325 0 0 0 .862-3.17l-6.055-10.58a9.473 9.473 0 0 0 1.808-2.382h9.547a.8.8 0 0 0 0-1.599h-8.866a9.616 9.616 0 0 0 .457-3.39l8.41.001a.8.8 0 0 0 0-1.6h-8.618a9.619 9.619 0 0 0-1.467-3.388h10.084a.8.8 0 0 0 .8-.8zm-7.488 24.532c.096.167.12.363.07.549a.724.724 0 0 1-1.326.17l-5.928-10.361c.217-.104.43-.215.641-.336.211-.12.414-.25.614-.385l5.929 10.363zM34.23 24.192a7.943 7.943 0 0 1-3.744 4.84 7.943 7.943 0 0 1-6.07.775 7.943 7.943 0 0 1-4.84-3.744c-2.19-3.826-.858-8.72 2.969-10.91a7.95 7.95 0 0 1 6.07-.776c2.06.561 3.78 1.89 4.84 3.745a7.943 7.943 0 0 1 .775 6.07z"/><path fill="currentColor" fill-rule="nonzero" d="M28.391 15.2a7.095 7.095 0 0 0-5.423.693 7.096 7.096 0 0 0-3.345 4.324 7.096 7.096 0 0 0 .693 5.423 7.148 7.148 0 0 0 9.747 2.652c3.419-1.956 4.608-6.328 2.652-9.747a7.096 7.096 0 0 0-4.324-3.345zm-4.629 2.08a5.512 5.512 0 0 1 4.21-.537 5.507 5.507 0 0 1 3.355 2.596c.451.788.685 1.642.724 2.493H20.977c.02-.4.081-.8.189-1.195a5.508 5.508 0 0 1 2.596-3.356zm5.507 9.624a5.508 5.508 0 0 1-4.21.538 5.508 5.508 0 0 1-3.356-2.596 5.57 5.57 0 0 1-.569-1.415h10.757a5.526 5.526 0 0 1-2.622 3.473z"/></g></symbol><symbol id="icon-features-19" viewBox="0 0 64 64"><g fill="none" fill-rule="evenodd"><path fill="#FFD2DB" d="M26 29.93c4.615-2.341 7.304-4.84 8.067-7.498 1.145-3.986 1.92-6.734 3.959-6.405 2.039.329 2.504 3.594 2.039 6.405-.31 1.874-.99 3.732-2.04 5.574H48.52l2.798 2.633-1.842 2.599 1.842 2.524-1.842 2.729 1.842 2.545-1.842 2.504 1.842 2.718-2.798 2.254H31.77L26 46.258V29.931z"/><path fill="#FF91A1" d="M13 28h13v20H13z"/><circle cx="21.113" cy="37.131" r="1" fill="currentColor" fill-rule="nonzero"/><path fill="currentColor" fill-rule="nonzero" d="M52.257 30.521v-.082a3.327 3.327 0 0 0-3.323-3.323H39.45a14.3 14.3 0 0 0 1.917-6.938c.006-.411.003-.836 0-1.285-.003-.29-.005-.597-.005-.93a3.116 3.116 0 0 0-3.103-3.113c-.32-.003-1.383.05-2.22.924a2.99 2.99 0 0 0-.762 1.45c-.226 1.066-.508 1.976-.862 2.782-1.299 2.954-3.15 5.421-5.5 7.334-.627.51-1.292.979-1.986 1.406a2.227 2.227 0 0 0-2.142-1.63H12.535a.791.791 0 0 0-.792.791V48.36c0 .437.355.791.792.791h12.252a2.226 2.226 0 0 0 2.214-2.03 8.323 8.323 0 0 0 5.465 2.03h16.468a3.327 3.327 0 0 0 3.323-3.323 3.317 3.317 0 0 0-1.173-2.531 3.317 3.317 0 0 0 1.173-2.532v-.1a3.317 3.317 0 0 0-1.173-2.53 3.317 3.317 0 0 0 1.173-2.532v-.018a3.317 3.317 0 0 0-1.173-2.531 3.317 3.317 0 0 0 1.173-2.532zm-26.83-.47v16.876c0 .353-.287.64-.64.64h-2.883v-6.893a.791.791 0 0 0-1.583 0v6.894h-6.995v-18.87h11.461c.353 0 .64.288.64.641v.712zm21.315 3.793h2.192c.96 0 1.74.78 1.74 1.74v.018c0 .96-.78 1.74-1.74 1.74h-2.192a.791.791 0 0 0 0 1.582h2.192c.96 0 1.74.781 1.74 1.74v.1c0 .96-.78 1.74-1.74 1.74h-2.192a.791.791 0 0 0 0 1.583h2.192c.96 0 1.74.78 1.74 1.74s-.78 1.74-1.74 1.74H32.466a6.753 6.753 0 0 1-4.71-1.9l-.746-.72V30.534c1.026-.572 2.001-1.231 2.903-1.965 2.548-2.073 4.55-4.74 5.95-7.926.399-.906.714-1.917.963-3.09a1.39 1.39 0 0 1 .356-.684c.39-.407.898-.436 1.035-.436h.034c.843 0 1.528.687 1.528 1.532 0 .336.003.647.005.941.003.44.007.855 0 1.248a12.765 12.765 0 0 1-2.429 7.292.791.791 0 0 0 .642 1.254h10.937c.96 0 1.74.78 1.74 1.74v.082c0 .96-.78 1.74-1.74 1.74h-2.192a.791.791 0 0 0 0 1.583z"/></g></symbol><symbol id="icon-features-2" viewBox="0 0 64 64"><g fill="none" fill-rule="evenodd"><path fill="#FFD2DB" d="M40.472 23.12c3.65 4.596 5.678 8.795 6.086 12.596.408 3.8.66 7.381.757 10.74l3.588-.838 1.08 3.974a12334.01 12334.01 0 0 1-13.407 3.763c-.06.014-.527-1.482-1.4-4.49l3.632-.862c-.73-4.163-1.94-7.124-3.633-8.881a110.444 110.444 0 0 1-5.253-5.893c-.344-.93-.171-1.594.52-1.995 1.036-.6 1.443-.62 2.47.228.686.564 2.54 2.322 5.56 5.272V23.12z"/><path fill="#FF91A1" d="M18.792 17.918h14.786c-.275-1.993-.162-3.568.341-4.726.755-1.738 2.165-2.762 3.552-2.376 1.388.387 3.101 1.294 3.096 3.51-.004 1.478-.006 8.958-.006 22.439l-6.166-5.658-1.926.58-.331 2.043 5.852 6.15 2.983 8.536-3.502.664H18.792V17.918z"/><path fill="currentColor" fill-rule="nonzero" d="M28.456 32.346h-6.052a.865.865 0 0 0 0 1.732h6.052a.865.865 0 0 0 0-1.732z"/><path fill="currentColor" fill-rule="nonzero" d="M52.809 49.49l-1.114-4.16a.865.865 0 0 0-1.058-.612l-2.368.635a49.478 49.478 0 0 0-.127-4.977c-.216-2.817-1.914-12.102-6.717-18.123v-8.09c0-1.156-.45-2.243-1.266-3.061a4.291 4.291 0 0 0-3.057-1.268H15.487a4.331 4.331 0 0 0-4.323 4.329v3.463c0 .479.387.866.865.866h6.052v30.25c0 .477.387.865.865.865h17.782l1.048 3.918a.865.865 0 0 0 1.059.612l13.362-3.586a.866.866 0 0 0 .612-1.06zm-11.91-11.657a.866.866 0 0 0 .526-.797V25.249c1.402 2.238 2.603 4.992 3.525 8.105 1.018 3.44 1.405 6.33 1.468 7.155.18 2.33.142 4.344.105 5.313l-4.79 1.285c-.923-5.394-3.618-8.602-3.739-8.744-.014-.017-2.907-2.916-2.907-2.916l1.224-1.3 3.65 3.513c.25.24.62.309.938.173zM12.893 16.76v-2.598a2.599 2.599 0 0 1 2.594-2.598h18.16a4.311 4.311 0 0 0-.868 2.598v2.598H12.893zm6.917 31.114V18.492h13.834a.865.865 0 0 0 .864-.866V15.03h2.594a.865.865 0 0 0 0-1.732h-2.445a2.598 2.598 0 0 1 2.445-1.732c.693 0 1.344.27 1.834.761s.76 1.144.76 1.837v20.84l-4.2-4.043a2.575 2.575 0 0 0-1.826-.754c-.693 0-1.344.27-1.834.76-.49.492-.76 1.144-.76 1.838 0 .693.27 1.346.76 1.836l4.862 4.87c.23.282 2.572 3.245 3.355 8.048l-1.183.317H19.81zm15.255-14.929l-1.201 1.276-.806-.806a.86.86 0 0 1-.253-.612.86.86 0 0 1 .253-.612.858.858 0 0 1 .611-.254c.231 0 .448.09.612.254l.784.754zm4.158 19.294l-.666-2.488 11.692-3.137.666 2.488-11.692 3.137z"/><path fill="currentColor" fill-rule="nonzero" d="M30.886 35.81h-8.482a.865.865 0 0 0 0 1.732h8.482a.865.865 0 0 0 0-1.732zm1.124 3.407a3.465 3.465 0 0 0-3.459 3.463 3.465 3.465 0 0 0 3.459 3.464 3.465 3.465 0 0 0 3.458-3.464 3.465 3.465 0 0 0-3.458-3.463zm0 5.195a1.732 1.732 0 0 1 0-3.464 1.732 1.732 0 0 1 0 3.464zm-7.099-3.464h-2.507a.867.867 0 0 0 0 1.732h2.507a.866.866 0 0 0 0-1.732zm1.384 3.464h-3.891a.865.865 0 0 0 0 1.732h3.89a.865.865 0 0 0 0-1.732zm4.15-20.724H29.32a.865.865 0 0 0 0 1.731h1.124a.865.865 0 0 0 0-1.731zm6.657 0h-3.199a.865.865 0 0 0 0 1.731h3.2a.865.865 0 0 0 0-1.731zm-3.89 3.463H29.32a.865.865 0 0 0 0 1.732h3.89a.865.865 0 0 0 0-1.732zm3.89 0h-.432a.865.865 0 0 0 0 1.732h.432a.865.865 0 0 0 0-1.732z"/><path fill="currentColor" d="M20.916 24.251h.858c0 .044-.002.11-.005.201a4.333 4.333 0 0 0 .005.56h-.652l-.206.707h.934c.16.885.503 1.564 1.032 2.04.528.474 1.194.712 1.998.712.738 0 1.43-.21 2.074-.631l-.163-1.327c-.529.587-1.097.881-1.705.881-.434 0-.804-.145-1.108-.435-.304-.29-.514-.703-.63-1.24h2.15l.326-.707h-2.573a4.098 4.098 0 0 1-.011-.358c0-.182.004-.316.01-.403h2.9l.315-.707H23.37c.123-.507.337-.9.64-1.18.305-.279.67-.418 1.098-.418.71 0 1.285.257 1.726.772l.456-1.055c-.586-.522-1.343-.783-2.27-.783-.846 0-1.543.232-2.09.696-.546.464-.903 1.12-1.07 1.968h-.738l-.206.707z"/><path fill="currentColor" fill-rule="nonzero" d="M31.828 20.224H29.32a.867.867 0 0 0 0 1.732h2.507a.866.866 0 0 0 0-1.732zm3.458 0a.867.867 0 0 0 0 1.732.866.866 0 0 0 0-1.732z"/></g></symbol><symbol id="icon-features-3" viewBox="0 0 64 64"><g fill="none" fill-rule="evenodd"><path fill="#FFD2DB" d="M17.537 39.697l-5.609.884-4.233-25.91 21.314-3.801 1.477 7.977 8.675-11.525 17.594 13-12.464 16.379-2.172-4.38-2.958-1.536.684-9.19H17.537"/><path fill="#FF91A1" d="M39.228 22.161H17.495v26.66h21.246v-2.692c-1.906.695-3.26 1.016-4.06.962-1.202-.08-8.488-1.794-9.017-8.018-.529-6.224 4.086-9.141 5.626-9.842 1.54-.701 5.648-1.044 7.938.68-.073-1.808-.073-4.392 0-7.75z"/><path fill="currentColor" fill-rule="nonzero" d="M57.02 19.557L39.455 6.804a.782.782 0 0 0-1.093.174l-7.66 10.549-1.054-6.646a.783.783 0 0 0-.896-.65L7.317 13.633a.783.783 0 0 0-.65.895l4.186 26.384a.783.783 0 0 0 .896.65l4.925-.782v8.398c0 .432.35.782.783.782h21.705c.432 0 .783-.35.783-.782V46.97a9.962 9.962 0 0 0 1.515-1.067l1.95 1.95-.627.627a.783.783 0 0 0 0 1.107l7.083 7.083a.78.78 0 0 0 1.107 0l2.361-2.36a.783.783 0 0 0 0-1.108l-7.083-7.083a.783.783 0 0 0-1.107 0l-.627.627-1.95-1.95a9.891 9.891 0 0 0 2.355-7.248l12.27-16.899a.782.782 0 0 0-.173-1.093zM45.696 47.78l5.977 5.977-1.255 1.254-5.976-5.976 1.254-1.255zM16.675 22.464v3.207l-2.318.368a.783.783 0 0 0 .245 1.546l2.073-.329v5.178l-1.271.201a.783.783 0 0 0 .245 1.546l1.026-.163v5.178l-4.399.697-3.94-24.837 19.89-3.157 1.177 7.419-1.716 2.363h-10.23a.783.783 0 0 0-.782.783zm21.704 25.931H18.24V23.247H38.38v5.706a9.87 9.87 0 0 0-4.044-.57.786.786 0 0 0-.182-.023H22.466a.783.783 0 0 0 0 1.565h7.159a9.993 9.993 0 0 0-4.045 5.113h-3.114a.783.783 0 0 0 0 1.566h2.706a9.99 9.99 0 0 0-.15 1.722c0 1.174.2 2.31.592 3.39h-3.148a.783.783 0 0 0 0 1.566h3.876a9.926 9.926 0 0 0 8.646 5.009c1.175 0 2.31-.2 3.391-.592v.696zm2.549-4.13a8.41 8.41 0 0 1-2.122 1.545 8.309 8.309 0 0 1-3.818.915 8.372 8.372 0 0 1-7.485-4.582 8.308 8.308 0 0 1-.915-3.818c0-.775.107-1.546.317-2.291a8.328 8.328 0 0 1 1.644-3.102 8.385 8.385 0 0 1 6.439-3.007c1.343 0 2.628.309 3.818.917a8.372 8.372 0 0 1 4.582 7.483 8.345 8.345 0 0 1-2.46 5.94zm3.599-8.835a9.93 9.93 0 0 0-4.582-5.75V25.6l4.254 3.089a.78.78 0 0 0 1.093-.173.783.783 0 0 0-.173-1.094l-5.174-3.756v-1.202a.783.783 0 0 0-.783-.783h-1.95l-1.55-1.125a.783.783 0 0 0-1.068 1.125h-4.973l1.239-1.706 8.31-11.444 16.296 11.833-10.94 15.066z"/><path fill="currentColor" fill-rule="nonzero" d="M34.988 31.7a6.634 6.634 0 0 0-6.626 6.625 6.634 6.634 0 0 0 6.626 6.627 6.634 6.634 0 0 0 6.626-6.627 6.634 6.634 0 0 0-6.626-6.626zm0 11.686c-2.79 0-5.061-2.27-5.061-5.06 0-2.791 2.27-5.062 5.06-5.062 2.792 0 5.062 2.27 5.062 5.061 0 2.79-2.27 5.061-5.061 5.061z"/><path fill="currentColor" fill-rule="nonzero" d="M36.376 34.85a.783.783 0 0 0-1.107 0l-2.295 2.296a.783.783 0 1 0 1.107 1.107l2.295-2.296a.782.782 0 0 0 0-1.107zm12.666-13.16l-9.457-6.867a.783.783 0 0 0-.92 1.267l9.458 6.867a.78.78 0 0 0 1.093-.174.782.782 0 0 0-.174-1.093zM25.75 17.934a.782.782 0 0 0-.896-.65L13.31 19.114a.783.783 0 0 0 .246 1.546l11.543-1.832a.782.782 0 0 0 .65-.895zM37.21 37.86a.783.783 0 0 0-1.107 0l-2.087 2.087a.783.783 0 1 0 1.107 1.107l2.087-2.087a.782.782 0 0 0 0-1.107z"/></g></symbol><symbol id="icon-features-4" viewBox="0 0 64 64"><g fill="none" fill-rule="evenodd"><path fill="#FFD2DB" d="M35.69 50.202l-8.176 1.652v-.826l.626-2.953-2.938-1.271-2.164 1.83 2.164 3.22-7.856 2.021-5.369-26.723 2.851.98 2.518-2.093-1.407-2.912-2.672.78-1.29.976-1.883-7.685 26.56-5.177-.964 3.106 2.181 2.071 3.115-1.521-1.753-3.656 7.236-1.801 3.696 17.912-7.467 1.959v-5.208h-3.465l-1.362 3.249 1.992 1.959-8.072 1.957 1.875 7.947 2.988-2.179 2.579 2.179-.736 2.716H33.666z"/><path fill="#FF91A1" d="M32 31.776l1.463 7.693c.952-.885 1.994-1.395 3.126-1.532 1.698-.205 2.522 1.504 2.618 2.228.096.725-.805 2.314-1.869 2.566-.709.167-1.805-.102-3.289-.808l1.558 8.17 17.667-3.345.584-1.142-1.623-6.59H51l-1.725 1.491-2.813-1.492.664-2.646 2.15-.897 2.112.897-1.306-8.047-7.588 1.323-.459-.986c1.193-1.136 1.491-2.048.895-2.735-.895-1.032-1.52-1.439-3.013-1.032-1.494.407-2.278 1.661-1.494 2.974.523.875 1.021 1.689 1.494 2.442L32 31.776z"/><path fill="currentColor" d="M34.78 43.199a3.188 3.188 0 0 0 2.565.604 3.187 3.187 0 0 0 2.045-1.354 3.18 3.18 0 0 0 .491-1.184 3.205 3.205 0 0 0-1.353-3.283 3.212 3.212 0 0 0-4.538.999l-.029.006-.736-3.785-.451-2.33a.264.264 0 0 1 .208-.318l6.816-1.325a.708.708 0 0 0 .559-.831l-.205-1.054a.708.708 0 0 0-.402-.508 1.782 1.782 0 0 1-1.022-1.291c-.09-.47.007-.948.275-1.345a1.783 1.783 0 0 1 1.145-.757c.471-.092.95.005 1.346.273.397.267.666.674.758 1.144a1.783 1.783 0 0 1-.661 1.758.704.704 0 0 0-.26.695l.169.865a.707.707 0 0 0 .828.56l7.129-1.386a.265.265 0 0 1 .311.208l1.197 6.155a3.187 3.187 0 0 0-2.57-.607 3.187 3.187 0 0 0-2.047 1.354 3.212 3.212 0 0 0 .865 4.454c.71.48 1.565.653 2.406.49a3.187 3.187 0 0 0 2.133-1.489l.028-.005 1.19 6.123a.266.266 0 0 1-.21.311L36.285 49.55a.266.266 0 0 1-.312-.21l-1.193-6.14zM29.195 14.41v-.003a.268.268 0 0 1 .213-.237l6.155-1.197a3.212 3.212 0 0 0 .748 4.617c1.466.99 3.464.601 4.453-.865a3.212 3.212 0 0 0-.999-4.539l-.005-.028 6.123-1.19a.266.266 0 0 1 .312.21l3.202 16.475a.263.263 0 0 1-.21.309l-6.153 1.196a3.188 3.188 0 0 0 .605-2.569 3.186 3.186 0 0 0-1.355-2.047 3.212 3.212 0 0 0-4.454.865 3.188 3.188 0 0 0-.49 2.408 3.187 3.187 0 0 0 1.49 2.133l.004.026-6.123 1.19a.264.264 0 0 1-.305-.187l-1.322-6.83a.7.7 0 0 0-.297-.45.701.701 0 0 0-.54-.116l-1.054.205a.708.708 0 0 0-.509.401 1.783 1.783 0 0 1-1.293 1.022 1.776 1.776 0 0 1-1.337-.27 1.782 1.782 0 0 1-.756-1.146c-.091-.47.006-.949.274-1.345a1.784 1.784 0 0 1 1.146-.758 1.777 1.777 0 0 1 1.748.657c.062.08.14.144.227.19.145.08.314.107.477.076l.865-.168a.707.707 0 0 0 .56-.828l-1.382-7.13c-.005-.026-.011-.051-.018-.077zM17.933 25.22a3.186 3.186 0 0 0-1.353-2.05 3.186 3.186 0 0 0-2.405-.49l-.002.001a3.187 3.187 0 0 0-2.132 1.485l-.028.006-1.186-6.124a.266.266 0 0 1 .21-.312l.728-.14c.021 0 .04-.004.053-.007l15.696-3.044a.264.264 0 0 1 .286.139v.005l.01.062 1.196 6.151a3.115 3.115 0 0 0-.575-.35 3.326 3.326 0 0 0-.124-.056l-.009-.004a3.187 3.187 0 0 0-1.86-.194 3.187 3.187 0 0 0-2.048 1.356 3.187 3.187 0 0 0-.49 2.406 3.187 3.187 0 0 0 1.776 2.287c.622.299 1.31.387 1.995.254a3.187 3.187 0 0 0 2.132-1.486l.021-.004 1.189 6.115a.109.109 0 0 0 .005.019.262.262 0 0 1-.212.297l-6.818 1.32a.708.708 0 0 0-.559.829l.205 1.056a.708.708 0 0 0 .401.509 1.796 1.796 0 0 1 1.023 1.965l-.014.066-.01.048c-.052.197-.137.385-.253.557a1.785 1.785 0 0 1-1.146.758 1.783 1.783 0 0 1-1.346-.275 1.783 1.783 0 0 1-.757-1.145 1.783 1.783 0 0 1 .662-1.758.704.704 0 0 0 .26-.692l-.167-.868a.708.708 0 0 0-.829-.56l-7.13 1.381a.265.265 0 0 1-.311-.208l-1.192-6.156a3.19 3.19 0 0 0 2.571.609 3.187 3.187 0 0 0 2.047-1.353 3.186 3.186 0 0 0 .49-2.406zm10.396 25.739c.48-.71.654-1.565.491-2.406a3.187 3.187 0 0 0-1.353-2.049 3.186 3.186 0 0 0-2.406-.49l-.002.001a3.186 3.186 0 0 0-2.047 1.352 3.186 3.186 0 0 0-.49 2.405 3.186 3.186 0 0 0 1.486 2.134l.006.029-6.124 1.186a.265.265 0 0 1-.312-.21l-3.191-16.478a.264.264 0 0 1 .192-.307.227.227 0 0 0 .019-.002l6.153-1.192a3.19 3.19 0 0 0-.606 2.568 3.187 3.187 0 0 0 1.353 2.049c.71.48 1.565.654 2.408.49a3.187 3.187 0 0 0 2.047-1.353c.48-.71.654-1.564.49-2.408a3.187 3.187 0 0 0-1.486-2.134l-.006-.026 6.126-1.186.01-.003a.266.266 0 0 1 .295.197l.458 2.358.867 4.474a.702.702 0 0 0 .298.452.702.702 0 0 0 .53.108l1.054-.204a.708.708 0 0 0 .508-.401 1.784 1.784 0 0 1 1.293-1.022 1.795 1.795 0 0 1 2.104 2.1 1.797 1.797 0 0 1-3.178.752.703.703 0 0 0-.692-.26l-.865.168a.705.705 0 0 0-.539.481.706.706 0 0 0-.023.357l1.38 7.129a.264.264 0 0 1-.21.312l-6.156 1.192c.041-.053.08-.108.118-.163zm23.875-12.57l-1.053.205a.708.708 0 0 0-.509.402 1.783 1.783 0 0 1-1.293 1.022 1.797 1.797 0 0 1-.685-3.523 1.782 1.782 0 0 1 1.76.66c.165.212.43.311.693.26l.865-.168a.707.707 0 0 0 .559-.828l-1.386-7.129a1.682 1.682 0 0 0-.49-.894c.143-.316.186-.672.12-1.013l-3.203-16.475a1.681 1.681 0 0 0-1.969-1.328l-6.816 1.325a.707.707 0 0 0-.56.828l.205 1.054a.708.708 0 0 0 .402.508 1.782 1.782 0 0 1 1.021 1.293c.092.471-.005.95-.273 1.346a1.783 1.783 0 0 1-1.145.757 1.782 1.782 0 0 1-1.346-.273 1.782 1.782 0 0 1-.757-1.145 1.782 1.782 0 0 1 .66-1.76.703.703 0 0 0 .26-.693l-.169-.865a.707.707 0 0 0-.828-.559l-7.129 1.386c-.34.066-.654.239-.893.49a1.657 1.657 0 0 0-1-.114l-10.12 1.96-2.552.496a.638.638 0 0 0-.04.006l-3.766.73c-.44.085-.82.336-1.071.708a1.668 1.668 0 0 0-.257 1.259l1.32 6.818a.702.702 0 0 0 .298.45.702.702 0 0 0 .53.11l1.055-.205a.708.708 0 0 0 .508-.401 1.782 1.782 0 0 1 1.292-1.02h.001c.472-.092.95.005 1.346.273.397.269.666.675.757 1.146.092.47-.006.949-.274 1.346a1.784 1.784 0 0 1-1.146.757 1.783 1.783 0 0 1-1.76-.661.703.703 0 0 0-.692-.261l-.866.168a.708.708 0 0 0-.559.828l1.381 7.13c.066.34.238.653.49.893A1.656 1.656 0 0 0 13 36.7l3.19 16.478c.085.44.337.821.709 1.072.372.251.819.343 1.26.257l6.818-1.32a.702.702 0 0 0 .45-.298.712.712 0 0 0 .108-.53l-.204-1.054a.708.708 0 0 0-.4-.509 1.797 1.797 0 0 1-.747-2.64 1.782 1.782 0 0 1 1.144-.755h.002c.47-.091.949.006 1.345.274.398.268.666.675.758 1.146a1.783 1.783 0 0 1-.662 1.759.703.703 0 0 0-.26.692l.167.866a.703.703 0 0 0 .828.56l7.13-1.382c.354-.068.665-.24.906-.5.317.143.672.186 1.013.12l16.475-3.203a1.681 1.681 0 0 0 1.328-1.969l-1.325-6.817a.707.707 0 0 0-.829-.558z"/></g></symbol><symbol id="icon-features-5" viewBox="0 0 64 64"><g fill="none" fill-rule="evenodd"><path fill="#FF91A1" d="M24.958 30v15.577h-8.263l15.066 12.777 15.543-12.372-7.758-.405V30z"/><path fill="#FFD2DB" d="M24.532 39.15h-7.778c-6.485-1.713-9.728-5.61-9.728-11.69 0-9.12 7.66-9.579 9.728-9.613 1.379-.023 3.148.273 5.308.889.6-8.184 4.53-12.276 11.79-12.276 7.261 0 10.891 4.485 10.891 13.454 8.351-.873 12.527 2.294 12.527 9.5 0 7.206-3.817 10.451-11.45 9.736l-6.376-.216v-9.188l-14.912.246"/><path fill="currentColor" d="M33.226 10.287a.766.766 0 0 0 0 1.532 6.802 6.802 0 0 1 6.794 6.794.766.766 0 0 0 1.532 0c0-4.591-3.735-8.326-8.326-8.326m13.281 12.26a.766.766 0 0 0 0 1.532 5.37 5.37 0 0 1 5.364 5.364.766.766 0 0 0 1.533 0 6.904 6.904 0 0 0-6.897-6.897"/><path fill="currentColor" d="M56.454 29.254c0-4.955-4.031-8.987-8.986-8.987-.956 0-1.897.15-2.798.445a.817.817 0 0 1-1.055-.936 10.59 10.59 0 0 0 .203-2.068c0-5.797-4.715-10.512-10.511-10.512-5.796 0-10.512 4.715-10.512 10.512 0 .319.016.647.046.976a.817.817 0 0 1-1.168.81 9.766 9.766 0 0 0-4.27-.97c-5.435 0-9.858 4.423-9.858 9.859a9.823 9.823 0 0 0 8.851 9.807.82.82 0 0 1 .213.05h7.112v6.484H16.26a.817.817 0 0 0-.513 1.453L31.432 58.84a.817.817 0 0 0 1.026 0l15.74-12.662a.817.817 0 0 0-.512-1.454H40.17v-6.483h7.014a.775.775 0 0 1 .084-.003c.066.001.133.003.2.003 4.955 0 8.986-4.032 8.986-8.987zM45.367 46.358l-13.42 10.797-13.375-10.797h5.966a.817.817 0 0 0 .817-.817V30.532h13.18v15.009c0 .451.366.817.818.817h6.014zm12.721-17.104c0 5.856-4.764 10.62-10.62 10.62l-.167-.001a.85.85 0 0 1-.051.002h-7.08v-10.16a.817.817 0 0 0-.817-.817H24.538a.817.817 0 0 0-.817.817v10.16h-7.407a.813.813 0 0 1-.379-.093 11.465 11.465 0 0 1-7.037-3.671 11.465 11.465 0 0 1-2.987-7.728c0-6.337 5.156-11.492 11.492-11.492 1.298 0 2.557.21 3.76.628.1-6.61 5.51-11.957 12.144-11.957 6.697 0 12.145 5.449 12.145 12.146 0 .376-.017.752-.052 1.127.679-.134 1.37-.202 2.068-.202 5.856 0 10.62 4.765 10.62 10.621z"/><path fill="currentColor" d="M38.848 23.373H24.954a.766.766 0 0 0 0 1.532h13.894a.766.766 0 0 0 0-1.532m0 2.86H24.954a.766.766 0 0 0 0 1.533h13.894a.766.766 0 0 0 0-1.533"/></g></symbol><symbol id="icon-features-6" viewBox="0 0 64 64"><g fill="none" fill-rule="evenodd"><path fill="#FFD2DB" d="M12.234 18.157h30.819v37.12H19.838v-7.965h-7.889z"/><path fill="#FF91A1" d="M18.753 11.072v7.007h23.93v33.387h9.274V11.072z"/><path fill="currentColor" d="M51.231 50.18h-7.648V17.859a.786.786 0 0 0-.786-.786H30.592V13.25a.786.786 0 1 0-1.572 0v3.824h-3.876V11.52H51.23v38.66zm-9.22.786v3.405H20.534v-7.177a.786.786 0 0 0-.786-.786H12.571V18.645H23.572v3.876h-6.338a.786.786 0 1 0 0 1.572h6.448a2.886 2.886 0 0 0 2.771 2.095h1.258a2.886 2.886 0 0 0 2.77-2.095h7.287a.786.786 0 1 0 0-1.572h-7.176v-3.876h11.42v32.32zm-23.049 0v2.293l-5.28-5.28H18.963v2.987zm.734-33.893h3.876V11.52h-3.876v5.553zm9.06 7.02c-.24.317-.618.523-1.045.523h-1.258c-.427 0-.806-.206-1.045-.523h3.348zm-3.612-5.448h3.876v3.876h-3.876v-3.876zm0-9.167c0-.723.587-1.31 1.31-1.31h3.352c.722 0 1.31.587 1.31 1.31v.471h-5.972v-.471zm26.873.471h-19.33v-.471a2.884 2.884 0 0 0-2.881-2.882h-3.353a2.884 2.884 0 0 0-2.88 2.882v.471H18.91a.786.786 0 0 0-.786.786v6.338h-6.338a.786.786 0 0 0-.786.786v29.334c0 .027.001.053.004.079l.005.031.006.045.01.036c.002.013.005.026.009.038l.012.036.014.037.015.032.018.038.018.03.021.036.024.032.022.03a.91.91 0 0 0 .048.053l.004.004 7.962 7.962.003.003a.85.85 0 0 0 .055.05l.027.02.035.025.033.02c.01.007.021.014.033.02.01.006.023.01.034.016.012.006.023.012.036.017l.034.012c.012.005.025.01.038.013l.035.01.04.009c.013.003.027.004.04.006l.035.005a.797.797 0 0 0 .078.004h23.049a.786.786 0 0 0 .786-.786v-3.405h8.433a.786.786 0 0 0 .786-.786v-40.23a.785.785 0 0 0-.785-.786z"/><path fill="currentColor" d="M37.768 29.226H17.234a.786.786 0 1 0 0 1.572h20.534a.786.786 0 1 0 0-1.572m0 6.705H17.234a.786.786 0 1 0 0 1.572h20.534a.786.786 0 1 0 0-1.572m0 6.706H17.234a.786.786 0 1 0 0 1.571h20.534a.786.786 0 1 0 0-1.571"/></g></symbol><symbol id="icon-features-7" viewBox="0 0 64 64"><g fill="none" fill-rule="evenodd"><path fill="#FFD2DB" d="M16.554 23.382H54.15v24.141H16.154z"/><path fill="#FFD2DB" d="M44.425 23.654l3.252-5.018 3.576 1.922-2.441 4.894z"/><path fill="#FF91A1" d="M16.154 23.372h-5.818l-.447 23.791 6.265.36zM48.499 25.454l-3.726-2.562-10.081 15.252 3.661 2.494z"/><path fill="currentColor" fill-rule="nonzero" d="M54.528 23.151a1.805 1.805 0 0 0-1.284-.532h-.498a.664.664 0 1 0 0 1.33h.498a.485.485 0 0 1 .487.487V46.46a.488.488 0 0 1-.487.488H16.769V23.948h25.183a.664.664 0 1 0 0-1.329H10.756a1.819 1.819 0 0 0-1.816 1.817V46.46c0 1.002.815 1.817 1.816 1.817h42.488a1.819 1.819 0 0 0 1.816-1.817V24.436c0-.485-.189-.941-.532-1.285zM15.44 46.947h-4.684a.488.488 0 0 1-.487-.488V24.436c0-.269.218-.488.487-.488h4.684v22.999z"/><path fill="currentColor" fill-rule="nonzero" d="M53.124 17.36a1.219 1.219 0 0 0-.517-.784l-.946-.64a1.22 1.22 0 0 0-.92-.19c-.322.063-.6.247-.784.518l-1.168 1.725a1.7 1.7 0 0 0-1.967.65l-12.85 18.99c-.004.004-.006.01-.009.014a.647.647 0 0 0-.036.064l-.012.025a.661.661 0 0 0-.033.09l-1.74 6.264a.984.984 0 0 0 1.547 1.047l5.167-3.944a.66.66 0 0 0 .072-.065c.007-.006.012-.013.018-.02a.662.662 0 0 0 .047-.058l.01-.013L49.35 25.745l.377-.557.843.57-5.403 7.985a.664.664 0 0 0 1.1.745l5.471-8.084a1.21 1.21 0 0 0-.324-1.678l-.943-.638 1.384-2.045a1.7 1.7 0 0 0-.093-2.027l1.175-1.736a1.22 1.22 0 0 0 .188-.92zM33.697 43.455l1.218-4.386 2.4 1.624-3.618 2.762zm4.578-3.717l-2.83-1.915 9.6-14.188 2.831 1.915-9.6 14.188zm10.78-15.93l.003-.004-.003.005zm-.434.642l-2.83-1.916.555-.821 2.83 1.915-.555.822zm2.132-3.152l-.832 1.23-2.83-1.916.831-1.23a.37.37 0 0 1 .513-.098l2.22 1.502a.37.37 0 0 1 .098.512zm-.053-2.086l-.777-.526L51 17.093l.777.526-1.078 1.593zm.863 23.401H38.246a.664.664 0 1 0 0 1.33h13.317a.664.664 0 1 0 0-1.33zm-20.779 0h-12.19a.664.664 0 1 0 0 1.33h12.19a.664.664 0 1 0 0-1.33z"/><path fill="currentColor" d="M18.49 30.354h.997c0 .05-.002.128-.006.234a5.017 5.017 0 0 0 .006.65h-.757l-.24.819h1.085c.185 1.025.585 1.814 1.198 2.364.614.551 1.388.826 2.32.826.858 0 1.661-.243 2.41-.731l-.19-1.539C24.7 33.658 24.04 34 23.333 34c-.504 0-.933-.168-1.286-.505-.353-.336-.597-.815-.731-1.437h2.497l.378-.82h-2.989a4.745 4.745 0 0 1-.012-.416c0-.21.004-.366.012-.467h3.367l.366-.82h-3.594c.143-.588.39-1.044.744-1.368a1.819 1.819 0 0 1 1.274-.485c.824 0 1.492.298 2.005.895l.53-1.223c-.681-.606-1.56-.908-2.636-.908-.984 0-1.793.269-2.428.807s-1.049 1.299-1.242 2.283h-.858l-.24.82z"/><path fill="currentColor" fill-rule="nonzero" d="M51.563 38.238h-9.437a.664.664 0 1 0 0 1.33h9.437a.664.664 0 1 0 0-1.33zm-19.84 0H18.595a.664.664 0 1 0 0 1.33h13.128a.665.665 0 0 0 0-1.33z"/></g></symbol><symbol id="icon-features-8" viewBox="0 0 64 64"><g fill="none" fill-rule="evenodd"><path fill="#FFD2DB" d="M9 30.663l35.63-8.843v8.843zM13.136 32.948l33.893 8.287v5.849z"/><path fill="#FF91A1" d="M29.261 18.868l13.732 3.424L9 30.663zM48.337 31.191l6.356 12.098L9.522 31.628z"/><path fill="currentColor" d="M47.255 40.335L13.8 31.683h34.44l5.51 10.332-6.495-1.68zm-.96 5.802L18.045 34.366l28.252 7.306v4.465zm-2.455-23.25v7.26h-29.7l29.7-7.26zm-13.85-3.44l11.24 2.499-28.1 6.869 16.86-9.367zm25.937 23.387l-6.55-12.28a.768.768 0 0 0-.677-.406h-3.325V21.91v-.011a.676.676 0 0 0-.004-.062l-.002-.019-.004-.027-.005-.028a.426.426 0 0 0-.005-.024l-.002-.011-.004-.012-.006-.025-.009-.026-.009-.024-.007-.019a.829.829 0 0 0-.011-.026l-.013-.027-.007-.014a.761.761 0 0 0-.013-.024l-.017-.028-.007-.012-.015-.022-.02-.027-.01-.012-.016-.02-.02-.023-.013-.013-.018-.018-.021-.02-.015-.013-.021-.016a.846.846 0 0 0-.038-.029l-.024-.015-.02-.013-.019-.01-.026-.014a.482.482 0 0 0-.022-.011l-.018-.008-.027-.011a.895.895 0 0 0-.027-.01l-.016-.006-.026-.008a.686.686 0 0 0-.033-.008l-.011-.003-.01-.002-.003-.001-14.723-3.272a.765.765 0 0 0-.54.078L7.404 30.24c-.001 0-.002 0-.003.002l-.005.002-.009.006-.009.005-.019.011-.017.011-.008.006a.361.361 0 0 0-.011.008l-.007.005-.017.013-.017.013-.007.005a.346.346 0 0 0-.012.011l-.006.005-.014.013-.016.016-.006.005-.012.013a.362.362 0 0 0-.006.006l-.01.013-.016.018-.005.006-.01.013-.007.008-.01.014-.012.017-.006.009-.008.013-.006.009-.008.015a.682.682 0 0 0-.016.028l-.007.012-.004.01-.007.015-.014.032-.005.013-.003.007-.006.018-.009.026-.002.007c0 .004-.002.008-.003.011l-.007.03-.006.025-.002.008a.418.418 0 0 0-.004.024l-.002.022c-.001.006-.003.013-.003.02a.14.14 0 0 1-.001.009v.009L7 30.873v.024L7 30.922v.026l.003.027.001.02.002.016c0 .004 0 .008.002.011 0 .01.003.019.004.028l.003.017v.003l.005.016.009.036v.004l.004.013.002.006c0 .003.002.006.003.008l.002.006.011.031.003.007.004.012.004.008.001.004.005.009.013.027v.001l.009.018.006.01v.002l.004.006h.001l.015.027.007.01.005.01h.001l.01.015.013.017a.305.305 0 0 0 .01.012c.003.006.008.011.012.017l.01.011.016.019.01.01.012.013.004.004.008.007a.987.987 0 0 0 .025.024l.02.017.01.008.006.005.003.002.003.003.019.013c.006.004.012.01.018.013l.012.008a.718.718 0 0 0 .027.016l.014.01a.814.814 0 0 0 .056.027l.027.013h.001l39.293 16.372a.765.765 0 0 0 .721-.07.768.768 0 0 0 .342-.638v-5.22l7.227 1.87a.767.767 0 0 0 .869-1.105zm-3.952-29.06H41.333a.768.768 0 1 0 0 1.536h10.642a.767.767 0 1 0 0-1.535m-18.01 34.383H23.322a.768.768 0 0 0 0 1.535h10.643a.767.767 0 1 0 0-1.535M47.882 10.5H32.327a.767.767 0 0 0 0 1.535h15.555a.767.767 0 1 0 0-1.535m-3.275 40.933H29.053a.767.767 0 1 0 0 1.535h15.554a.767.767 0 1 0 0-1.535"/></g></symbol><symbol id="icon-features-9" viewBox="0 0 64 64"><g fill="none" fill-rule="evenodd"><path fill="#FFD2DB" d="M14 25h18v5H14zM14 34h18v5H14zM14 43h18v5H14z"/><path fill="#FF91A1" d="M32 24.5h4.767v5.638H32zM32 34h10.991v5.638H32zM32 43h16.125v5.638H32z"/><path fill="currentColor" fill-rule="nonzero" d="M52.758 19.876H34.146l2.531-1.755a.671.671 0 0 0 .289-.552v-6.327c0-.37-.3-.671-.671-.671h-8.948c-.37 0-.67.3-.67.671v6.328c0 .228.116.441.309.565l2.72 1.741H11.243c-.37 0-.671.3-.671.671v32.211c0 .37.3.671.671.671h41.516c.37 0 .671-.3.671-.671v-32.21c0-.371-.3-.672-.671-.672zm-21.43 27.558H15.135v-4.026H31.33v4.026zm0-8.947H15.135V34.46H31.33v4.026zm0-8.948H15.135v-4.026H31.33v4.026zm0-5.368H14.464c-.37 0-.671.3-.671.671v5.369c0 .37.3.67.671.67h16.866v2.238H14.463c-.37 0-.671.3-.671.67v5.37c0 .37.3.67.671.67h16.866v2.237H14.463c-.37 0-.671.3-.671.671v5.369c0 .37.3.67.671.67h16.866v3.311H11.913V21.218h19.416v2.953zm.657-4.43l-3.967-2.539v-5.289h7.606v5.305l-3.639 2.523zm.686 5.772h3.31v4.026h-3.31v-4.026zm0 8.948h9.395v4.026H32.67V34.46zm0 8.947h14.763v4.026H32.671v-4.026zm19.416 8.679H32.671v-3.31h15.434c.371 0 .671-.3.671-.672v-5.368c0-.37-.3-.671-.67-.671H32.67v-2.237h10.066c.37 0 .671-.3.671-.671v-5.369c0-.37-.3-.67-.671-.67H32.67V30.88h3.982c.37 0 .67-.3.67-.67v-5.37c0-.37-.3-.67-.67-.67H32.67v-2.953h19.416v30.869z"/></g></symbol><symbol id="icon-highlights-1" viewBox="0 0 170 170"><g fill="none" fill-rule="evenodd" transform="translate(40.5 39)"><use fill="#FFD2DB" xlink:href="#a"/><rect width="53" height="78" x="2.057" y="1.676" stroke="currentColor" stroke-width="3" rx="2"/><use fill="#FFD2DB" xlink:href="#b"/><rect width="53" height="78" x="8.165" y="7.976" stroke="currentColor" stroke-width="3" rx="2"/><path fill="#FFD2DB" d="M14.728 15.107h51.695v75.076H14.728z"/><ellipse cx="27.625" cy="28.849" fill="#FFF" rx="5.716" ry="5.523"/><path fill="#FF91A1" d="M42.868 55.258H86.69V79.19H42.87z"/><path fill="currentColor" d="M21.273 49.475c0 .87.74 1.576 1.65 1.576.913 0 1.652-.7 1.652-1.57s-.74-1.575-1.65-1.575c-.913 0-1.652.705-1.652 1.576zm8.935-1.576c-.912 0-1.65.7-1.65 1.57 0 .87.738 1.575 1.65 1.575.91 0 1.65-.706 1.65-1.576s-.74-1.576-1.65-1.576m7.485 0c-.912 0-1.65.703-1.65 1.574 0 .87.738 1.574 1.65 1.574.91 0 1.65-.705 1.65-1.575s-.74-1.576-1.65-1.576M27.63 31.59c-2.06 0-3.735-1.6-3.735-3.565 0-1.966 1.675-3.564 3.734-3.564 2.052 0 3.73 1.6 3.73 3.57 0 1.966-1.678 3.565-3.737 3.565m0-10.28c-3.88 0-7.036 3.01-7.036 6.716 0 3.703 3.156 6.716 7.035 6.716 3.878 0 7.035-3.01 7.035-6.714 0-3.702-3.155-6.714-7.034-6.714m29.88 21.94c.91 0 1.65-.706 1.65-1.576 0-.87-.74-1.577-1.65-1.577h-35.45c-.912 0-1.65.705-1.65 1.576 0 .87.738 1.575 1.65 1.575h35.45z"/><path fill="currentColor" d="M84.807 77.86H44.33V57.885l19.412 10.71a1.722 1.722 0 0 0 1.652 0l19.413-10.71V77.86zm-20.34 10.776H16.153V16.482H64.47v36.962H42.68c-.91 0-1.65.706-1.65 1.576v24.417c0 .87.74 1.576 1.65 1.576h21.79v7.623zm16.076-32.04l-15.975 8.812-15.974-8.812h31.95zm5.915-3.152H67.77V14.906c0-.87-.74-1.576-1.65-1.576H14.5c-.91 0-1.65.706-1.65 1.576V90.21c0 .872.74 1.577 1.65 1.577h51.62c.91 0 1.65-.705 1.65-1.576v-9.19h18.687c.912 0 1.65-.706 1.65-1.576V55.016c0-.87-.74-1.573-1.65-1.573z"/></g></symbol><symbol id="icon-highlights-2" viewBox="0 0 170 170"><g fill="none" fill-rule="evenodd"><path fill="#FFD2DB" d="M62.986 49h28.986v30H62.986z"/><path fill="#FFD2DB" d="M77.98 61h28.985v30H77.98z"/><path fill="#D8D8D8" d="M77.98 63h13.99v16H77.98z"/><path fill="#FF91A1" d="M77.98 63h13.99v16H77.98z"/><path fill="currentColor" d="M132.104 107.514a.498.498 0 0 1-.497.498H37.483a.498.498 0 0 1-.497-.498v-6.686h95.12v6.686zM68.4 121.56l2.25-10.562h25.028l2.25 10.562H68.4zm31.37 2.987h4.667a.55.55 0 0 1 .543.543v1.83c0 .295-.25.544-.543.544H62.212a.55.55 0 0 1-.542-.543v-1.83c0-.29.248-.54.542-.54H99.77zm33.828-30.177c-.825 0-1.493.668-1.493 1.493v1.98h-95.12v-55.16c0-.277.223-.5.497-.5h21.79a1.492 1.492 0 1 0 0-2.983h-21.79A3.483 3.483 0 0 0 34 42.682v64.832a3.488 3.488 0 0 0 3.482 3.484h30.116l-2.25 10.563h-3.135a3.537 3.537 0 0 0-3.528 3.53v1.84a3.53 3.53 0 0 0 3.528 3.53h42.224a3.53 3.53 0 0 0 3.528-3.53v-1.84c0-1.94-1.582-3.53-3.528-3.53h-3.457L98.73 111h32.877a3.487 3.487 0 0 0 3.482-3.484v-11.65c0-.826-.67-1.495-1.5-1.495z"/><path fill="currentColor" d="M131.607 39.198h-74.03c-.824 0-1.492.668-1.492 1.493 0 .83.668 1.5 1.493 1.5h74.03c.273 0 .496.23.496.5v46.52a1.493 1.493 0 0 0 2.985.01V42.68c0-1.92-1.57-3.484-3.49-3.484"/><path fill="currentColor" d="M132.104 42.682v54.89a1.492 1.492 0 1 0 2.985-.001V42.69m-30.04 47.7H78.76V80.15h13.15c.824 0 1.492-.668 1.492-1.493v-14.58h11.656v26.31zM78.76 77.165h11.657V64.078H78.76v13.086zm-2.984-14.58v14.58H64.12v-26.31h26.3v10.238H77.27c-.823 0-1.492.668-1.492 1.493zm30.775-1.492H93.41v-11.73c0-.825-.668-1.494-1.492-1.494H62.63c-.825 0-1.492.67-1.492 1.49v29.3c0 .82.668 1.49 1.492 1.49h13.148v11.73c0 .82.67 1.49 1.493 1.49h29.28c.83 0 1.5-.67 1.5-1.5v-29.3c0-.827-.67-1.49-1.49-1.49zM118.704 68.188h2.82V53.07h-2.82v15.12zm4.312-18.104h-5.806c-.823 0-1.49.67-1.49 1.494V69.68c0 .826.667 1.494 1.49 1.494h5.806c.824 0 1.492-.668 1.492-1.493v-18.1c0-.82-.668-1.49-1.492-1.49zm0 24.184h-5.806c-.825 0-1.493.668-1.493 1.493 0 .83.667 1.5 1.492 1.5h5.8c.82 0 1.49-.67 1.49-1.49s-.67-1.49-1.5-1.49m0 6.08h-5.8c-.83 0-1.5.67-1.5 1.5s.66 1.5 1.49 1.5H123a1.49 1.49 0 1 0 .003-2.98m0 6.08h-5.8a1.495 1.495 0 0 0-.003 2.99h5.8a1.493 1.493 0 0 0-.002-2.984m-76.465-32h4.476v-4.48h-4.48v4.48zM52.503 47H45.04c-.823 0-1.49.668-1.49 1.493v7.467c0 .824.67 1.492 1.492 1.492h7.462c.825 0 1.493-.67 1.493-1.495V48.48c0-.825-.67-1.493-1.5-1.493zm-5.968 19.1h4.476v-4.48h-4.47v4.48zm5.97-7.467H45.04c-.823 0-1.49.668-1.49 1.493v7.466c0 .83.67 1.5 1.492 1.5h7.462c.825 0 1.493-.67 1.493-1.49v-7.47c0-.824-.67-1.492-1.5-1.492zm-5.97 19.112h4.476v-4.48h-4.47v4.48zm5.97-7.466H45.04c-.823 0-1.49.67-1.49 1.49v7.46c0 .82.67 1.49 1.492 1.49h7.462c.825 0 1.493-.66 1.493-1.49v-7.46c0-.82-.67-1.49-1.5-1.49zm-5.97 19.11h4.476v-4.47h-4.47v4.48zm5.97-7.46H45.04c-.823 0-1.49.67-1.49 1.5v7.46c0 .82.67 1.49 1.492 1.49h7.462c.825 0 1.493-.67 1.493-1.5v-7.47c0-.826-.67-1.495-1.5-1.495z"/><path fill="currentColor" fill-rule="nonzero" d="M124.283 101.58l-7.9-7.9 5.636-3.256c.44-.254.69-.738.66-1.245a1.33 1.33 0 0 0-.84-1.14L96.71 78.01a1.326 1.326 0 1 0-1.725 1.724l10.023 25.134a1.328 1.328 0 0 0 2.386.173l3.255-5.63 7.9 7.9c.25.25.59.39.94.39s.69-.14.94-.39l3.85-3.85c.52-.51.52-1.36 0-1.87z"/></g></symbol><symbol id="icon-highlights-3" viewBox="0 0 170 170"><g fill="none" fill-rule="evenodd"><path fill="#FF91A1" d="M93.01 91.693V78.897h40.382v35.924h-27.454v6.56H83.625V99.19h22.878v-5.028l-2.972-2.47"/><path fill="#FFD2DB" d="M38.803 48.342v47.653h44.91l1.617-3.517h7.772v-17.03l3.5-3.28h32.764v-24.49"/><path fill="currentColor" d="M129.016 118.822h-21.734v-2.746h24.036v.442a2.305 2.305 0 0 1-2.302 2.304zm-25.815 7.36H85.84a.85.85 0 0 1-.85-.85v-2.123h19.062v2.12a.85.85 0 0 1-.85.85zm-35.58-19.655l2.62-2.82h11.52v2.82H67.62zM39.51 98.15h42.25v2.328H42.955a3.726 3.726 0 0 1-3.45-2.327zm3.45-53.92h80.72c1.475 0 2.75.864 3.352 2.11h-87.43a3.727 3.727 0 0 1 3.352-2.11zm42.036 75.75h19.063v-19.7H84.99v19.7zm42.41-70.41v22.098H96.48a5.54 5.54 0 0 0-5.532 5.534v13.644H85.84a4.084 4.084 0 0 0-4.08 4.075H39.23V49.57h88.17zm-23.35 47.48H84.99v-2.124c0-.47.382-.85.85-.85h17.362c.47 0 .85.38.85.85v2.123zm-.85-6.204H94.18v-9.973h37.14v31.973h-24.04v-17.92c0-2.25-1.83-4.08-4.08-4.08zm28.116-13.644v.44H94.18v-.44a2.305 2.305 0 0 1 2.302-2.304h32.537c1.27 0 2.3 1.034 2.3 2.304zm-.69-5.293V47.95a6.963 6.963 0 0 0-6.955-6.955h-80.72C39.12 41 36 44.12 36 47.955V96.75a6.963 6.963 0 0 0 6.955 6.955H65.83l-2.617 2.82H59.29a1.614 1.614 0 1 0-.001 3.23h22.47v15.575c0 2.25 1.83 4.085 4.08 4.085h17.36c2.25 0 4.08-1.83 4.08-4.08v-3.28h21.732c3.05 0 5.53-2.483 5.53-5.534V77.2c0-2.49-1.65-4.6-3.918-5.293z"/></g></symbol><symbol id="icon-highlights-4" viewBox="0 0 170 170"><g fill="none" fill-rule="evenodd"><path fill="#FF91A1" d="M90.32 75.558l-9.026-10.054h-4.437L74 62.264V34.367L76.857 31h56.995l4.055 3.368v27.895l-2.672 3.24h-21.94l-5.266-3.24-5.97 3.24H91.64"/><path fill="#FFD2DB" d="M92 102.335v-11.76l3.41-8.466 5.222-3.67 4.635-1.15-4.635-5.84L102.31 63h8.147l5.155 5.623-3.93 6.952 5.656 4.938 6.938 10.063v11.76"/><g fill="currentColor" fill-rule="nonzero" transform="translate(72 29)"><path d="M60.71 0H6.27A6.132 6.132 0 0 0 .146 6.126v25.35a6.133 6.133 0 0 0 6.126 6.125H8.5l6.022 8.08c.655.88 1.64 1.36 2.678 1.36.352 0 .71-.05 1.064-.17a3.321 3.321 0 0 0 2.33-3.16l.085-6.11h6.75a8.994 8.994 0 0 0-.66 3.37 8.95 8.95 0 0 0 3.44 7.05c-6.73 2.39-11.55 8.68-11.55 16.04v8.22h-8.8c-.81 0-1.47.66-1.47 1.47 0 .81.66 1.47 1.47 1.47h48.59c.81 0 1.47-.66 1.47-1.47 0-.81-.66-1.47-1.47-1.47h-4.67v-8.22c0-7.61-5.15-14.07-12.24-16.27a8.936 8.936 0 0 0 3.16-6.82c0-4.94-4.02-8.96-8.96-8.96-2.49 0-4.74 1.02-6.37 2.66H19.23c-.804 0-1.46.65-1.47 1.45l-.104 7.56c-.003.26-.164.36-.298.41-.134.04-.327.05-.48-.154l-6.462-8.67a1.477 1.477 0 0 0-1.18-.59H6.272a3.191 3.191 0 0 1-3.186-3.19V6.126A3.19 3.19 0 0 1 6.273 2.94h54.44a3.19 3.19 0 0 1 3.186 3.18v25.35c0 1.76-1.43 3.19-3.19 3.19h-5.62c-.82 0-1.47.66-1.47 1.47 0 .81.65 1.47 1.47 1.47h5.61c3.37 0 6.12-2.75 6.12-6.12V6.13A6.119 6.119 0 0 0 60.71 0zm-9.87 64.053v8.213h-4.845V64.57a1.469 1.469 0 1 0-2.938.002v7.694H29.652V64.57a1.47 1.47 0 0 0-2.94.002v7.694H21.61v-8.213c0-7.79 6.557-14.13 14.616-14.13 8.06 0 14.616 6.34 14.616 14.13zM35.74 34.94c3.32 0 6.02 2.702 6.02 6.022 0 3.32-2.7 6.022-6.02 6.022-3.32 0-6.022-2.7-6.022-6.022 0-3.32 2.7-6.022 6.02-6.022z"/><circle cx="64.76" cy="73.736" r="1.469"/><circle cx="20.981" cy="18.137" r="1.469"/><circle cx="29.554" cy="18.137" r="1.469"/><circle cx="37.223" cy="18.137" r="1.469"/><circle cx="45.615" cy="18.137" r="1.469"/><circle cx="48.815" cy="36.069" r="1.469"/></g><path fill="#FFD2DB" d="M41.256 140.395V115.98h-5.548L33 109.964v-19.99l4.128-7.298 8.963-4.814-4.83-5.472 1.19-6.154L49.05 63l7.444 4.33-1.168 7.863-2.832 2.67 10.374 6.35 3.462 13.303v14.413l-7.89 5.34v21.77"/><g transform="translate(32 61)"><mask id="b" fill="#fff"><use xlink:href="#a"/></mask><path fill="currentColor" d="M32.866 48c0 2.504-1.764 4.674-4.29 5.28l-.624.148V33.29c0-.836-.682-1.518-1.52-1.518-.836 0-1.518.682-1.518 1.52v44.065h-5.31V53.83c0-.838-.682-1.52-1.52-1.52-.837 0-1.52.682-1.52 1.52v23.527h-5.31V33.29a1.52 1.52 0 0 0-3.038.002v20.16l-.598-.112c-2.654-.493-4.58-2.74-4.58-5.34V32.76c0-7.95 6.69-14.416 14.914-14.416 8.223 0 14.914 6.467 14.914 14.417V48zM11.32 9.173a6.142 6.142 0 0 1 6.135-6.135 6.142 6.142 0 0 1 6.134 6.135c0 3.382-2.76 6.134-6.14 6.134a6.141 6.141 0 0 1-6.14-6.134zM24.206 16.4l-.737-.268.54-.56c1.68-1.727 2.61-4 2.61-6.4C26.62 4.115 22.51 0 17.45 0S8.28 4.115 8.28 9.172c0 2.54 1.02 4.905 2.876 6.66l.566.538-.725.298C4.32 19.408 0 25.724 0 32.76V48c0 4.344 3.337 7.967 7.763 8.428l.453.048v19.92l.004.458c0 1.952 1.59 3.54 3.543 3.54H24.41a3.549 3.549 0 0 0 3.543-3.413V56.46l.438-.058c4.29-.57 7.52-4.18 7.52-8.397V32.76c0-7.248-4.7-13.823-11.69-16.36z" mask="url(#b)"/></g></g></symbol><symbol id="icon-inconnect-large" viewBox="0 0 200 140"><path fill="#2688EA" d="M80 112.12l-2.313 4.721c-2.152-2.804-4.654-4.206-7.505-4.206-2.676 0-4.742.973-6.196 2.918-1.455 1.946-2.183 4.464-2.183 7.554 0 2.89.743 5.322 2.226 7.297 1.484 1.974 3.55 2.96 6.196 2.96 2.88 0 5.368-1.401 7.462-4.205L80 133.88c-2.851 2.747-6.341 4.12-10.473 4.12-4.19 0-7.49-1.416-9.905-4.25-2.414-2.83-3.622-6.38-3.622-10.642 0-4.377 1.208-7.99 3.622-10.836 2.414-2.847 5.715-4.271 9.905-4.271 4.248 0 7.738 1.373 10.473 4.12m14.13 19.836c.847-1.211 1.27-2.842 1.27-4.892 0-2.107-.416-3.767-1.248-4.977-.83-1.21-2.019-1.816-3.565-1.816-1.604 0-2.83.6-3.675 1.795-.845 1.196-1.268 2.862-1.268 4.998 0 2.05.429 3.68 1.29 4.892.86 1.21 2.078 1.815 3.653 1.815 1.517 0 2.698-.605 3.544-1.815m-11.33 3.033c-1.869-2.01-2.801-4.665-2.801-7.97 0-3.303.933-5.966 2.8-7.989 1.866-2.021 4.462-3.032 7.787-3.032 3.267 0 5.819 1.004 7.656 3.011 1.838 2.008 2.757 4.679 2.757 8.01 0 3.304-.92 5.96-2.757 7.968-1.837 2.007-4.39 3.011-7.656 3.011-3.325 0-5.92-1.004-7.787-3.011M116.85 138v-11.283c0-2.353-.359-4-1.076-4.945-.719-.943-1.753-1.415-3.105-1.415-1.237 0-2.294.493-3.165 1.481-.873.988-1.31 2.614-1.31 4.88V138H103v-21.564h5.194v3.616c.393-.988 1.153-1.91 2.28-2.767 1.125-.857 2.505-1.285 4.137-1.285 2.308 0 4.117.755 5.427 2.265 1.308 1.51 1.962 4.168 1.962 7.973V138h-5.151zm22 0v-11.283c0-2.353-.36-4-1.077-4.945-.718-.943-1.752-1.415-3.104-1.415-1.238 0-2.294.493-3.166 1.481-.873.988-1.309 2.614-1.309 4.88V138H125v-21.564h5.193v3.616c.394-.988 1.154-1.91 2.28-2.767 1.125-.857 2.506-1.285 4.138-1.285 2.307 0 4.117.755 5.426 2.265 1.308 1.51 1.963 4.168 1.963 7.973V138h-5.151zm13.93-17.044c-.892 1.025-1.367 2.32-1.425 3.887h9.112c.086-1.51-.238-2.79-.972-3.845-.733-1.053-1.85-1.58-3.346-1.58-1.354 0-2.476.512-3.369 1.538m7.838 12.367c1.166-.556 2.122-1.247 2.87-2.073l1.124 4.144c-2.274 1.737-5.023 2.606-8.247 2.606-3.168 0-5.686-.911-7.557-2.734-1.872-1.823-2.807-4.414-2.807-7.775 0-3.844.942-6.72 2.828-8.629 1.886-1.907 4.326-2.862 7.32-2.862 2.705 0 4.858.826 6.455 2.478 1.598 1.652 2.397 3.973 2.397 6.963 0 .94-.087 1.794-.26 2.563h-13.256c0 1.993.46 3.517 1.382 4.57.922 1.054 2.274 1.581 4.058 1.581a8.484 8.484 0 0 0 3.693-.832m7.062 1.686c-1.786-1.993-2.679-4.656-2.679-7.988 0-3.36.9-6.037 2.7-8.03 1.8-1.994 4.2-2.991 7.2-2.991 3.315 0 6.014 1.182 8.1 3.546l-2.014 4.058c-1.343-2.222-3.157-3.333-5.443-3.333-1.571 0-2.785.62-3.643 1.86-.858 1.238-1.286 2.883-1.286 4.933 0 2.08.443 3.717 1.329 4.913.885 1.196 2.086 1.794 3.6 1.794 2.029 0 3.857-1.04 5.486-3.118l1.971 3.8c-.828 1.055-1.965 1.91-3.407 2.564-1.443.655-3.022.983-4.736.983-3 0-5.392-.997-7.178-2.99m24.295-3.238c0 1.782.722 2.672 2.167 2.672 1.3 0 2.53-.7 3.685-2.102v5.125c-1.329 1.022-3.035 1.533-5.115 1.533-4.047 0-6.07-2.19-6.07-6.57V120.6H183v-3.723c1.27 0 2.196-.045 2.774-.132.579-.088 1.128-.365 1.647-.832.52-.467.86-1.154 1.02-2.06.158-.905.266-2.19.325-3.854h3.208v6.878H198v3.723h-6.026v11.171z"/><path fill="#471B51" d="M3 138h9v-30H3zm38.993-30v16.573L28.223 108H19v30h9.007v-16.661L41.777 138H51v-30z"/><path fill="#2688EA" d="M144 44c0-23.748 0-43-43-43S58 20.252 58 44s0 43 43 43 43-19.252 43-43"/><path fill="#471B51" d="M69.041 53.498l28.262-12.02c2.562-1.088 5.549.116 6.638 2.678 1.09 2.561-.114 5.548-2.677 6.638l-28.26 12.018c-2.563 1.09-5.55-.114-6.639-2.676-1.09-2.562.115-5.549 2.676-6.638"/><path fill="#FFF" d="M134.036 33.865a1.813 1.813 0 0 1-1.534.848 1.83 1.83 0 0 1-.408-3.612 1.83 1.83 0 0 1 1.942 2.764m3.652-1.23a5.226 5.226 0 0 0-1.789-3.608 5.217 5.217 0 0 0-3.82-1.273 5.229 5.229 0 0 0-3.607 1.79L120.07 39.2l-13.462 15.507c-1.632 1.635-4.675 2.78-7.553 2.78-6.453 0-11.702-5.25-11.702-11.702s5.25-11.701 11.702-11.701c6.451 0 11.7 5.249 11.7 11.7 0 .156-.01.308-.016.461l8.36-9.572c-3.473-7.608-11.15-12.91-20.044-12.91-12.144 0-22.022 9.879-22.022 22.022 0 12.143 9.878 22.022 22.022 22.022 5.558 0 11.646-2.435 14.516-5.484l22.843-25.868a5.226 5.226 0 0 0 1.273-3.82"/><path fill="#471B51" d="M72.535 35.658a1.817 1.817 0 0 1-1.535.847 1.83 1.83 0 0 1-.407-3.612 1.829 1.829 0 0 1 1.942 2.765m28.526 5.461L72.967 29.791c-2.69-1.084-5.776.229-6.86 2.917-1.084 2.689.23 5.776 2.918 6.86l28.093 11.328c2.688 1.084 5.775-.228 6.86-2.917 1.084-2.688-.229-5.776-2.917-6.86"/></symbol><symbol id="icon-inconnect" viewBox="0 0 128 128"><path d="M128 64c0-35.346 0-64-64-64S0 28.654 0 64c0 35.346 0 64 64 64s64-28.654 64-64" fill="#FFF"/><path d="M16.434 78.136l42.064-17.889c3.812-1.62 8.258.172 9.88 3.985 1.621 3.812-.171 8.258-3.984 9.88L22.33 92c-3.813 1.621-8.259-.17-9.88-3.984-1.621-3.813.171-8.259 3.984-9.88" fill="#471B51"/><path d="M113.17 48.915a2.698 2.698 0 0 1-1.705 1.197 2.703 2.703 0 0 1-2.053-.36 2.723 2.723 0 0 1-.837-3.754 2.707 2.707 0 0 1 1.705-1.196 2.722 2.722 0 0 1 2.89 4.114m5.435-1.832a7.779 7.779 0 0 0-2.662-5.369 7.764 7.764 0 0 0-5.125-1.914 8.76 8.76 0 0 0-.561.019 7.783 7.783 0 0 0-5.369 2.664L92.384 56.856l-20.036 23.08c-2.429 2.433-6.958 4.136-11.242 4.136-9.603 0-17.416-7.813-17.416-17.416 0-9.602 7.813-17.415 17.416-17.415 9.603 0 17.415 7.813 17.415 17.415 0 .231-.015.457-.024.686L90.94 53.095C85.77 41.77 74.344 33.88 61.106 33.88c-18.074 0-32.777 14.703-32.777 32.776 0 18.074 14.703 32.777 32.777 32.777 8.273 0 17.334-3.623 21.606-8.161L116.71 52.77a7.778 7.778 0 0 0 1.895-5.686" fill="#2688EA"/><path d="M21.633 51.584a2.704 2.704 0 0 1-2.284 1.261 2.723 2.723 0 0 1-.606-5.376 2.722 2.722 0 0 1 2.89 4.115m42.457 8.128l-41.813-16.86c-4.003-1.614-8.597.34-10.21 4.341-1.614 4.002.34 8.597 4.342 10.21l41.813 16.86c4.001 1.615 8.596-.339 10.21-4.34 1.613-4.002-.34-8.598-4.342-10.21" fill="#471B51"/></symbol><symbol id="icon-infast" viewBox="0 0 128 128"><path fill="#FFF" d="M128 64c0-35.346 0-64-64-64S0 28.654 0 64c0 35.346 0 64 64 64s64-28.654 64-64"/><path fill="currentColor" d="M97.866 37.614a2.672 2.672 0 0 1-1.35 1.562 2.731 2.731 0 0 1-.54.203c-.496.12-1.02.11-1.52-.05a2.698 2.698 0 0 1-1.725-3.4c.23-.68.71-1.24 1.35-1.56.65-.33 1.38-.38 2.07-.16a2.688 2.688 0 0 1 1.725 3.394m2.498-6.69c-3.217-2.818-8.165-2.503-10.996.7L62.127 62.46l-44.29-.24c-4.287-.02-7.81 3.45-7.835 7.72-.02 4.266 3.467 7.776 7.75 7.8l47.81.26c.92.004 1.806-.16 2.63-.45l.273-.1c.09-.037.18-.074.27-.114a7.68 7.68 0 0 0 2.763-1.984l29.575-33.478c2.83-3.205 2.515-8.132-.703-10.95"/><path fill="#FF2444" d="M112.622 48.91a2.664 2.664 0 0 1-2.25 1.25 2.66 2.66 0 0 1-1.452-.42 2.711 2.711 0 0 1-.827-3.725c.385-.608.98-1.03 1.682-1.186a2.664 2.664 0 0 1 2.022.35c1.248.8 1.62 2.47.825 3.72m5.36-1.817a7.734 7.734 0 0 0-2.625-5.323 7.627 7.627 0 0 0-5.605-1.877 7.637 7.637 0 0 0-5.292 2.64L92.136 56.78l-19.75 22.885c-2.394 2.413-6.858 4.102-11.08 4.102-9.465 0-17.166-7.748-17.166-17.27 0-9.52 7.7-17.27 17.166-17.27 3.588 0 6.92 1.12 9.676 3.02l10.033-11.474C75.557 36.533 68.72 34 61.305 34 43.493 34 29 48.58 29 66.5S43.492 99 61.306 99c8.154 0 17.085-3.593 21.296-8.093l33.51-38.176a7.717 7.717 0 0 0 1.87-5.63"/></symbol><symbol id="icon-intia" viewBox="0 0 1060 226"><path fill="currentColor" d="M.956 226h75V0h-75m374 0v226H304.05L198.197 100.48V226h-69.24V0h70.905l105.856 124.852V0m347.238 63.76h-87.162V226h-71.676V63.76h-87.162V0h246m22 226h75V0h-75m202.182 0l-95.182 226h77.46l1.215-.79 106.208-37.644L982.495 226h77.46L963.79 0h-86.652zm43.328 63.094l24.713 67.727-58 23.376 33.286-91.102z"/></symbol><symbol id="icon-linkedin" viewBox="0 0 34 34"><path fill="currentColor" d="M13.684 18.124c0-2.175-.07-3.994-.14-5.563h4.64l.248 2.427h.106c.702-1.143 2.425-2.818 5.31-2.818 3.515 0 6.152 2.388 6.152 7.524V30h-5.345v-9.664c0-2.247-.775-3.78-2.708-3.78-1.476 0-2.354 1.034-2.742 2.032-.14.356-.176.855-.176 1.355V30h-5.346V18.124zM5.14 29.998h5.346V12.56H5.14V30zM10.66 7.71c0 1.498-1.09 2.71-2.883 2.71C6.09 10.42 5 9.208 5 7.71 5 6.177 6.127 5 7.848 5c1.722 0 2.778 1.177 2.813 2.71z"/></symbol><symbol id="icon-logo-alt" viewBox="0 0 176 33"><path fill="currentColor" d="M77 27h7V6h-7m35 0v21h-6.63l-9.896-11.663V27H89V6h6.63l9.896 11.6V6M138 11.925h-8.15V27h-6.7V11.925H115V6h23m2 21h7V6h-7m18.902 0L150 27h7.245l.113-.073 9.933-3.498 1.47 3.57H176l-8.994-21h-8.104zm4.052 5.863l2.31 6.293-5.423 2.172 3.12-8.465z"/><path fill="#28A4E8" d="M20.767 29.942a5.35 5.35 0 0 1-1.774-3.657 5.55 5.55 0 0 1 .116-1.57c-.98.406-2.05.633-3.16.633-4.68 0-8.48-3.892-8.48-8.676 0-3.003 1.5-5.654 3.77-7.212C3.65 11.194.97 16.797.85 17.075L.124 18.67C1.09 26.732 7.816 33 15.95 33c2.64 0 5.13-.666 7.325-1.835a5.15 5.15 0 0 1-2.508-1.223"/><path fill="#FF2444" d="M47.846 25.348c-4.83 0-7.54-3.22-10.02-7.347l-5.886 6.93c3.28 4.4 7.76 7.95 15.507 8.07h.112c.09 0 .19.01.28.01.1 0 .19 0 .29-.01h.2c8.56-.27 15.45-7.48 15.45-16.312 0 0-3.894 8.675-15.95 8.675m-21.68-9.886L32.08 8.5C28.75 3.984 24.13.34 15.95.34 7.154.342 0 7.67 0 16.672c0 0 3.938-8.676 15.95-8.676 4.894 0 7.663 3.284 10.207 7.47"/><path fill="#28A4E8" d="M47.846.344c-2.672 0-5.193.678-7.406 1.873a5.13 5.13 0 0 1 2.81 1.265c1.455 1.295 2.033 3.24 1.69 5.048a8.218 8.218 0 0 1 2.906-.534c4.673 0 8.475 3.892 8.475 8.676 0 3.007-1.5 5.66-3.77 7.217 7.63-1.73 10.28-7.34 10.41-7.62l.725-1.61C62.7 6.6 55.978.34 47.848.34"/><path fill="currentColor" d="M39.805 6.12h.035c.73.018 1.31.642 1.29 1.39-.018.735-.608 1.32-1.324 1.32h-.033c-.73-.02-1.31-.643-1.29-1.39.018-.735.608-1.32 1.322-1.32zM24.19 27.285h-.035c-.73-.02-1.31-.643-1.29-1.39.018-.736.608-1.322 1.323-1.322h.034c.73.02 1.31.644 1.29 1.39-.018.737-.608 1.322-1.323 1.322zm-3.23-4.248c-1.545 1.82-1.356 4.6.42 6.182a4.195 4.195 0 0 0 2.805 1.07c1.198 0 2.39-.51 3.233-1.5l15.64-18.41c1.545-1.82 1.356-4.6-.42-6.18a4.192 4.192 0 0 0-2.804-1.07c-1.2 0-2.39.51-3.234 1.5L20.96 23.04z"/></symbol><symbol id="icon-logo-vertical" viewBox="0 0 210 165"><path fill="#FFF" d="M.31 140.482h14.056v-44.68H.31m73.848 0v44.68H60.1l-20.985-24.815v24.815H25.388v-44.68h14.057l20.986 24.684V95.803m67.92 12.605h-17.09v32.073H97.2v-32.07H80.104v-12.6h48.242m5.943 44.68h14.05V95.81h-14.05m39 0l-19.14 44.68h15.57l.25-.16 21.35-7.44 3.14 7.6h15.57L190.7 95.81h-17.43zm8.71 12.473l4.97 13.39-11.67 4.62 6.69-18.01z"/><path fill="#9D93A0" d="M18.978 149.395h2.25v10.263h4.952v1.963h-7.202m8.442 0h2.197v-8.91H27.42v8.92zm0-10.33h2.197v-1.89H27.42v1.89zM33.952 155.286c-.36.51-.54 1.21-.54 2.098 0 .876.18 1.566.54 2.07.36.504.858.757 1.494.757.66 0 1.168-.25 1.522-.75.353-.5.53-1.19.53-2.07 0-.89-.176-1.59-.53-2.1-.355-.51-.863-.76-1.523-.76-.636 0-1.133.26-1.493.77zm-.54-.945c.227-.44.584-.82 1.07-1.13.487-.31 1.066-.47 1.74-.47 1.03 0 1.892.39 2.582 1.16.69.78 1.035 1.93 1.035 3.47 0 1.48-.35 2.62-1.05 3.43s-1.56 1.22-2.58 1.22c-.66 0-1.24-.16-1.74-.48-.5-.32-.86-.73-1.08-1.22v1.53H31.2v-12.23h2.2l.003 4.74zm12.366-2.82h-1.62l1.062-2.61h1.98l-1.422 2.61zm-2.052 3.32c-.372.43-.57.98-.594 1.64h3.798c.036-.64-.098-1.18-.404-1.62-.307-.44-.77-.66-1.395-.66-.56 0-1.03.22-1.4.65zm3.268 5.21c.486-.23.885-.52 1.197-.87l.47 1.75c-.95.73-2.09 1.1-3.44 1.1-1.32 0-2.37-.38-3.15-1.15-.78-.77-1.17-1.86-1.17-3.27 0-1.62.4-2.83 1.18-3.63.79-.8 1.81-1.2 3.05-1.2 1.13 0 2.03.35 2.7 1.04.67.7 1 1.68 1 2.94 0 .4-.03.76-.11 1.08h-5.53c0 .84.2 1.49.58 1.93.39.45.95.67 1.7.67.54 0 1.05-.12 1.54-.35zm3.3-7.12h2.215v1.68c.24-.62.59-1.09 1.07-1.39.47-.3 1.15-.46 2.04-.46l-.04 2.22c-.27-.14-.63-.22-1.1-.22-.75 0-1.26.26-1.55.77-.29.51-.43 1.22-.43 2.12v4.21h-2.21v-8.91zm8.588 1.91c-.372.43-.57.98-.595 1.64h3.8c.035-.64-.1-1.18-.405-1.62-.307-.44-.772-.66-1.396-.66-.564 0-1.032.22-1.404.65m3.268 5.21c.486-.23.884-.52 1.197-.87l.468 1.75c-.95.73-2.094 1.1-3.44 1.1-1.32 0-2.37-.38-3.15-1.15-.78-.76-1.17-1.86-1.17-3.27 0-1.62.392-2.83 1.18-3.63.786-.8 1.802-1.2 3.05-1.2 1.13 0 2.027.35 2.693 1.045.666.695 1 1.674 1 2.935a5 5 0 0 1-.11 1.08H58.34c0 .84.194 1.48.578 1.92.385.447.948.67 1.694.67.54 0 1.053-.115 1.54-.35m3.01-7.12h6.734v1.46l-4.25 5.76h4.376v1.694h-7.076v-1.44l4.268-5.78h-4.052M73.082 157.493H77.8v-1.55h-4.718m5.418-3.025h2.448l2.234 6.303 2.106-6.3h2.053l-3.36 8.92H82m11.464-2.37c.35-.51.52-1.19.52-2.06 0-.88-.17-1.58-.51-2.09-.342-.51-.83-.76-1.47-.76-.66 0-1.162.25-1.51.76-.35.51-.522 1.21-.522 2.11 0 .87.178 1.56.53 2.07.356.51.858.77 1.505.77.626 0 1.11-.25 1.46-.76m-4.663 1.28c-.77-.85-1.152-1.97-1.152-3.36 0-1.392.384-2.514 1.152-3.366.767-.855 1.836-1.28 3.204-1.28 1.346 0 2.396.42 3.152 1.27.756.845 1.134 1.97 1.134 3.375 0 1.39-.378 2.51-1.134 3.36-.756.844-1.806 1.27-3.15 1.27-1.37 0-2.438-.426-3.206-1.27m11.087-7.826v4.81c0 .96.15 1.62.45 1.97.3.36.75.534 1.35.534.53 0 .98-.2 1.34-.59.37-.39.55-1.03.55-1.92v-4.81h2.23v8.915h-2.23v-1.48c-.17.43-.49.818-.96 1.15-.47.34-1.06.508-1.77.508-1 0-1.77-.296-2.33-.88-.56-.59-.84-1.66-.84-3.21v-5.01h2.22zm11.9 7.42c.28-.215.41-.5.41-.845 0-.54-.42-.91-1.26-1.116l-1.28-.306c-1.52-.36-2.28-1.19-2.28-2.485 0-.77.27-1.44.79-2 .53-.57 1.39-.85 2.58-.85 1.39 0 2.54.33 3.44.99l-.45 1.55c-.34-.325-.79-.6-1.32-.84-.53-.233-1.03-.35-1.48-.35-.46 0-.8.11-1.04.34-.24.23-.36.51-.36.848 0 .48.39.815 1.16 1.006l1.28.29c.88.205 1.53.51 1.968.92.43.407.65.954.65 1.64 0 .85-.326 1.543-.973 2.08-.65.53-1.54.8-2.682.8-1.48 0-2.7-.42-3.673-1.26l.502-1.587a5.1 5.1 0 0 0 1.37 1.044c.55.3 1.09.45 1.62.45.43 0 .783-.106 1.06-.32m10.14-5.05c-.353.51-.53 1.21-.53 2.096 0 .875.177 1.565.53 2.07.355.503.86.756 1.52.756.64 0 1.136-.25 1.497-.75.36-.504.54-1.194.54-2.07 0-.89-.18-1.59-.54-2.1-.36-.51-.86-.764-1.495-.764-.66 0-1.163.26-1.52.77zm3.557-5.68h2.215v12.22h-2.22v-1.53c-.215.5-.58.9-1.08 1.23-.503.327-1.08.49-1.73.49-1.02 0-1.874-.406-2.564-1.216s-1.04-1.955-1.04-3.43c0-1.55.34-2.708 1.026-3.477.687-.77 1.546-1.15 2.578-1.15.67 0 1.257.156 1.75.47.49.31.84.69 1.06 1.133v-4.736zm6.245 3.31v4.81c0 .96.15 1.616.45 1.97.3.354.75.53 1.35.53.53 0 .98-.2 1.34-.59.37-.39.55-1.03.55-1.92v-4.806h2.236v8.91h-2.23v-1.477c-.164.43-.49.81-.96 1.15-.474.33-1.07.5-1.774.5-.99 0-1.77-.296-2.33-.88-.56-.59-.834-1.66-.834-3.21v-5.004h2.21zm14.097 6.12c0 .734.3 1.1.9 1.1.54 0 1.05-.29 1.53-.864v2.106c-.553.42-1.26.63-2.13.63-1.68 0-2.52-.9-2.52-2.7v-4.86h-1.51v-1.53c.53 0 .915-.02 1.155-.05.24-.036.468-.15.68-.34.218-.19.36-.475.425-.85s.11-.9.132-1.58h1.33v2.827h2.5v1.53h-2.5v4.59zm6.137-4.21c-.37.43-.57.98-.598 1.64h3.8c.035-.64-.1-1.18-.405-1.62-.306-.45-.77-.67-1.395-.67-.568 0-1.036.21-1.408.64m3.27 5.21c.486-.236.88-.528 1.197-.876l.47 1.75c-.95.73-2.09 1.1-3.44 1.1-1.32 0-2.37-.38-3.15-1.15-.79-.768-1.17-1.86-1.17-3.277 0-1.62.39-2.83 1.18-3.633.78-.806 1.8-1.208 3.05-1.208 1.12 0 2.02.35 2.69 1.043.66.694 1 1.673 1 2.934 0 .397-.04.757-.11 1.08h-5.53c0 .84.19 1.484.58 1.93.383.44.946.66 1.69.66.54 0 1.05-.12 1.54-.35m9.08 1.79v-4.77c0-1.68-.564-2.52-1.692-2.52-1.26 0-1.89.84-1.89 2.52v4.77h-2.2v-8.91h2.195v1.44c.48-1.08 1.41-1.62 2.79-1.62.66 0 1.21.17 1.66.52.44.35.77.8.97 1.35.18-.49.52-.924 1.02-1.302.5-.38 1.1-.57 1.83-.57 1.09 0 1.92.31 2.48.92.56.61.844 1.68.844 3.206v4.97h-2.22v-4.77c0-.89-.14-1.53-.41-1.93-.28-.393-.72-.59-1.338-.59-1.2 0-1.8.84-1.8 2.52v4.77h-2.25zm15.578-2.37c.36-.51.53-1.22.53-2.12 0-.865-.17-1.55-.53-2.054-.35-.506-.86-.76-1.52-.76-.63 0-1.13.25-1.49.76-.36.5-.54 1.19-.54 2.05 0 .89.18 1.59.54 2.11.36.52.86.78 1.49.78.66 0 1.17-.26 1.52-.77zm-3.57 5.51h-2.196v-12.08h2.197v1.51c.22-.48.58-.88 1.08-1.2a3.134 3.134 0 0 1 1.71-.48c1.036 0 1.9.41 2.596 1.21.692.81 1.04 1.95 1.04 3.42 0 1.55-.35 2.71-1.04 3.49-.696.78-1.56 1.16-2.59 1.16-.66 0-1.23-.15-1.71-.46-.48-.31-.84-.69-1.08-1.135V165zm11.97-4.663c.28-.214.415-.5.415-.844 0-.54-.42-.91-1.26-1.115l-1.28-.305c-1.525-.36-2.29-1.19-2.29-2.486 0-.766.26-1.433.79-1.997.53-.564 1.38-.85 2.57-.85 1.39 0 2.54.33 3.44.99l-.45 1.55c-.35-.322-.79-.6-1.33-.84-.54-.23-1.03-.35-1.49-.35-.46 0-.8.12-1.04.34-.24.23-.36.51-.36.85 0 .48.385.82 1.154 1.01l1.27.29c.88.21 1.53.51 1.967.92.43.41.65.958.65 1.64 0 .855-.33 1.548-.98 2.08-.646.536-1.54.8-2.68.8-1.476 0-2.7-.42-3.67-1.26l.5-1.582c.36.398.82.745 1.37 1.046.55.3 1.09.45 1.62.45.43 0 .79-.1 1.06-.32"/><path fill="#28A4E8" d="M88.442 51.362a2.84 2.84 0 0 1 2.762 2.907 2.839 2.839 0 0 1-2.907 2.76 2.842 2.842 0 0 1-2.76-2.91 2.83 2.83 0 0 1 2.905-2.76m-17.71 1.61c-10.004 0-18.142-8.14-18.142-18.14 0-6.28 3.21-11.83 8.075-15.08-16.26 3.62-21.986 15.34-22.26 15.92L36.855 39C38.922 55.872 53.32 68.98 70.73 68.98c13.27 0 24.788-7.614 30.436-18.7L83.292 47.9c-3.263 3.137-7.686 5.08-12.56 5.08m50.998-34.54a2.838 2.838 0 0 1-2.763-2.905 2.836 2.836 0 0 1 5.667.144 2.838 2.838 0 0 1-2.905 2.76M139.01.7c-13.146 0-24.574 7.475-30.276 18.395L127.09 21.2c3.193-2.794 7.357-4.502 11.92-4.502 10.004 0 18.142 8.138 18.142 18.14 0 6.287-3.217 11.833-8.088 15.09 16.324-3.613 22-15.343 22.27-15.924l1.55-3.37C170.804 13.784 156.412.697 139.01.697"/><path fill="#471B51" fill-opacity=".15" d="M59.493 20.043c-15.36 3.912-20.82 15.07-21.09 15.64l-1.548 3.332a33.95 33.95 0 0 0 2.38 8.97c.486-6.01 3.633-18.49 20.258-27.942m111.842 13.96l1.55-3.37a33.911 33.911 0 0 0-2.244-8.603c-.51 5.975-3.65 18.054-19.5 27.374 14.73-4.098 19.94-14.845 20.2-15.4"/><path fill="#FF2444" d="M139.01 52.978c-28.812 0-22.393-52.28-68.28-52.28-18.824 0-34.14 15.315-34.14 34.14 0 0 8.432-18.14 34.14-18.14 28.733 0 23.254 51.602 67.427 52.265h.24c.205.003.408.015.614.015.22 0 .42-.012.63-.016h.43v-.01c18.34-.56 33.09-15.642 33.09-34.114 0 0-8.33 18.14-34.14 18.14"/><path fill="#471B51" d="M104.803 17.114L92.375 31.98c.917 1.463 1.82 2.982 2.728 4.532l12.712-15.205a70.589 70.589 0 0 0-3.012-4.192m12.973 20.847c-.912-1.47-1.81-2.995-2.708-4.556l-12.656 15.14a72.851 72.851 0 0 0 3.03 4.168l12.334-14.752z" opacity=".15"/><path fill="#FFF" d="M121.73 18.44a2.838 2.838 0 0 1-2.763-2.905 2.836 2.836 0 0 1 5.667.144 2.838 2.838 0 0 1-2.905 2.76M88.29 57.03a2.836 2.836 0 0 1 .145-5.667 2.84 2.84 0 0 1 2.762 2.906 2.84 2.84 0 0 1-2.908 2.76m39.57-48.26c-3.8-3.31-9.62-2.91-12.93.89L81.46 48.15c-3.308 3.802-2.904 9.62.898 12.926 3.802 3.307 9.618 2.903 12.926-.9l33.478-38.48c3.308-3.802 2.903-9.62-.9-12.927"/></symbol><symbol id="icon-logo" viewBox="0 0 240 44"><path fill="#FFF" d="M105 37h9V8h-9m47 0v29h-8.935l-13.34-16.106V37H121V8h8.935l13.34 16.02V8M188 16.182h-10.984V37h-9.032V16.182H157V8h31m3 29h9V8h-9m25.326 0L204 37h10.03l.158-.102 13.754-4.83L229.97 37H240L227.547 8h-11.22zm5.61 8.096l3.2 8.69-7.51 3 4.31-11.69z"/><path fill="#28A4E8" d="M33.306 32.767c1.003.025 1.8.857 1.774 1.853a1.817 1.817 0 0 1-1.867 1.76 1.814 1.814 0 0 1-1.774-1.852c.02-.997.86-1.786 1.86-1.76m-11.378 1.03c-6.425 0-11.653-5.19-11.653-11.568 0-4.006 2.062-7.54 5.187-9.617C5.02 14.925 1.34 22.396 1.164 22.767L.17 24.892C1.497 35.644 10.746 44 21.93 44c8.523 0 15.92-4.856 19.55-11.925l-11.482-1.52a11.642 11.642 0 0 1-8.07 3.242m32.76-22.024a1.817 1.817 0 0 1-1.775-1.853 1.817 1.817 0 0 1 1.867-1.76c1.004.024 1.8.856 1.774 1.852a1.817 1.817 0 0 1-1.867 1.76M65.79.46c-8.447 0-15.787 4.766-19.45 11.73l11.79 1.342a11.655 11.655 0 0 1 7.66-2.87c6.424 0 11.65 5.19 11.65 11.568 0 4.008-2.066 7.545-5.194 9.62 10.484-2.3 14.13-9.78 14.304-10.152l.996-2.15C86.21 8.806 76.966.46 65.79.46"/><path fill="#471B51" fill-opacity=".25" d="M1.165 22.767L.17 24.893c.247 2.002.77 3.92 1.528 5.72.312-3.833 2.334-11.79 13.013-17.82-9.86 2.497-13.37 9.612-13.54 9.974zm86.38-3.22a21.424 21.424 0 0 0-1.44-5.485c-.332 3.81-2.345 11.513-12.53 17.456 9.463-2.613 12.81-9.466 12.976-9.82l1-2.15z"/><path fill="#FF2444" d="M65.79 33.797C47.28 33.797 51.403.46 21.93.46 9.838.46 0 10.224 0 22.23c0 0 5.416-11.57 21.93-11.57 18.455 0 14.936 32.907 43.31 33.33h.153c.133.002.263.01.396.01s.26-.008.4-.01h.27v-.007c11.78-.357 21.252-9.975 21.252-21.753 0 0-5.356 11.567-21.93 11.567"/><path fill="#471B51" fill-opacity=".25" d="M43.815 10.927l-7.983 9.48c.59.933 1.17 1.902 1.753 2.89L45.75 13.6a44.968 44.968 0 0 0-1.935-2.673M52.148 24.22a99.964 99.964 0 0 1-1.74-2.904l-8.13 9.654a48.017 48.017 0 0 0 1.948 2.66l7.922-9.41z"/><path fill="#FFF" d="M54.687 11.773a1.816 1.816 0 0 1-1.774-1.853 1.817 1.817 0 0 1 1.867-1.76c1.004.024 1.8.856 1.774 1.852a1.817 1.817 0 0 1-1.867 1.76m-21.474 24.61a1.817 1.817 0 0 1-1.774-1.854c.02-.997.86-1.786 1.86-1.76 1.002.024 1.8.856 1.773 1.852a1.818 1.818 0 0 1-1.868 1.76m25.42-30.773c-2.443-2.11-6.18-1.852-8.303.573L28.82 30.717c-2.124 2.424-1.864 6.134.578 8.243 2.442 2.11 6.178 1.852 8.303-.573l21.51-24.54c2.127-2.423 1.867-6.132-.58-8.24"/></symbol><symbol id="icon-numbers-1" viewBox="0 0 132 132"><path fill="#FFBA1A" d="M83.855 91.26v-4.174c0-.886-.392-1.722-1.074-2.284-3.78-3.102-7.85-5.164-8.69-5.572-.08-.052-.15-.137-.15-.24v-5.88a2.738 2.738 0 0 0 1.23-2.283v-6.1a5.499 5.499 0 0 0-5.5-5.506h-1.33c-3.03 0-5.5 2.46-5.5 5.51v6.07c0 .96.5 1.79 1.23 2.29v5.9c0 .11-.05.21-.15.24-.83.41-4.91 2.47-8.69 5.58a2.96 2.96 0 0 0-1.07 2.29v4.18"/><path fill="currentColor" d="M64.363 58.738h1.312a3.956 3.956 0 0 1 3.954 3.954v6.1c0 .41-.21.785-.55 1.007-.43.28-.68.76-.68 1.27v5.89c0 .7.39 1.33 1.02 1.63.76.37 4.72 2.36 8.38 5.38.32.27.51.66.51 1.09v4.17c0 .85.7 1.55 1.55 1.55.85 0 1.55-.7 1.55-1.55v-4.17c0-1.35-.6-2.63-1.64-3.48-3.24-2.66-6.72-4.61-8.28-5.41V71.8c.78-.8 1.22-1.873 1.22-3v-6.1c0-3.885-3.16-7.04-7.04-7.04h-1.31a7.04 7.04 0 0 0-7.04 7.04v6.085c0 1.145.44 2.22 1.22 3v4.4c-1.57.81-5.03 2.74-8.29 5.4a4.487 4.487 0 0 0-1.64 3.47v4.17c0 .852.7 1.55 1.55 1.55.85 0 1.55-.698 1.55-1.55v-4.17c0-.428.19-.82.51-1.093 3.66-3 7.63-5.01 8.38-5.386a1.8 1.8 0 0 0 1.02-1.633v-5.88c0-.51-.26-1.006-.68-1.278a1.19 1.19 0 0 1-.55-1.01v-6.1c-.04-2.184 1.74-3.956 3.92-3.956M16.78 27.14h1.31a3.956 3.956 0 0 1 3.956 3.953v6.1c0 .41-.205.786-.546 1.007-.428.29-.684.767-.684 1.278v5.898c0 .7.393 1.33 1.024 1.636.768.373 4.72 2.367 8.386 5.383.32.273.51.665.51 1.09v4.177c0 .853.7 1.55 1.55 1.55.853 0 1.55-.697 1.55-1.55V53.49a4.494 4.494 0 0 0-1.634-3.478c-3.24-2.658-6.714-4.6-8.282-5.402v-4.39a4.29 4.29 0 0 0 1.227-3v-6.102a7.04 7.04 0 0 0-7.04-7.038H16.8a7.041 7.041 0 0 0-7.04 7.038v6.084c0 1.142.444 2.216 1.228 3V44.6c-1.567.816-5.027 2.742-8.282 5.4a4.489 4.489 0 0 0-1.636 3.476v4.175a1.55 1.55 0 1 0 3.1 0v-4.17c0-.42.187-.81.51-1.09 3.665-3 7.636-5.01 8.386-5.38.63-.3 1.022-.93 1.022-1.63V39.5c0-.51-.256-1.006-.682-1.28a1.196 1.196 0 0 1-.546-1.006v-6.1c-.034-2.18 1.74-3.954 3.92-3.954m96.886 56.27h1.312a3.958 3.958 0 0 1 3.954 3.954v6.1c0 .41-.205.786-.546 1.008-.426.29-.68.768-.68 1.28v5.897c0 .69.39 1.33 1.02 1.63.768.37 4.722 2.37 8.386 5.38.324.27.51.66.51 1.09v4.17c0 .85.7 1.55 1.552 1.55.852 0 1.55-.7 1.55-1.55v-4.18c0-1.35-.595-2.63-1.635-3.48-3.24-2.66-6.72-4.6-8.28-5.41v-4.4c.78-.8 1.22-1.88 1.22-3v-6.1c0-3.89-3.16-7.04-7.04-7.04h-1.31c-3.89 0-7.04 3.15-7.04 7.03v6.08c0 1.143.44 2.22 1.22 3v4.4c-1.57.82-5.03 2.75-8.28 5.406a4.496 4.496 0 0 0-1.64 3.48v4.18c0 .85.7 1.55 1.55 1.55.85 0 1.55-.7 1.55-1.55v-4.174c0-.43.19-.82.51-1.09 3.66-3 7.63-5.01 8.38-5.39.63-.31 1.02-.94 1.02-1.64v-5.88c0-.51-.26-1.006-.69-1.28-.34-.22-.54-.595-.54-1.004v-6.1c-.04-2.187 1.74-3.96 3.92-3.96M29.083 85.544h.894a2.698 2.698 0 0 1 2.697 2.696v4.16c0 .28-.14.535-.372.686-.29.198-.465.523-.465.87v4.022c0 .477.267.907.697 1.116.523.256 3.22 1.615 5.718 3.672a.97.97 0 0 1 .348.744v2.847c0 .582.477 1.058 1.058 1.058.58 0 1.057-.476 1.057-1.058v-2.847c0-.918-.406-1.79-1.115-2.37-2.208-1.813-4.58-3.138-5.648-3.685v-2.998a2.925 2.925 0 0 0 .837-2.045v-4.16c0-2.65-2.15-4.8-4.8-4.8h-.9c-2.65 0-4.8 2.15-4.8 4.8V92.4c0 .78.3 1.51.83 2.046v2.998c-1.07.558-3.43 1.87-5.65 3.684a3.062 3.062 0 0 0-1.12 2.37v2.848c0 .58.47 1.057 1.05 1.057.58 0 1.06-.476 1.06-1.057V103.5c0-.292.12-.56.35-.745 2.49-2.046 5.2-3.417 5.71-3.673.43-.21.69-.64.69-1.115v-4.01c0-.348-.18-.685-.47-.87a.798.798 0 0 1-.37-.687v-4.16c-.03-1.488 1.18-2.696 2.67-2.696M72.22 18.63h.895a2.696 2.696 0 0 1 2.696 2.693v4.16a.82.82 0 0 1-.37.687c-.29.198-.46.524-.46.87v4.023c0 .477.27.907.7 1.116.53.25 3.22 1.61 5.72 3.67.23.18.35.45.35.74v2.84c0 .58.48 1.06 1.06 1.06.58 0 1.06-.48 1.06-1.06v-2.84c0-.92-.4-1.79-1.11-2.37-2.21-1.82-4.58-3.14-5.65-3.69v-2.99c.54-.55.84-1.28.84-2.05v-4.16c0-2.65-2.15-4.8-4.8-4.8h-.89c-2.65 0-4.8 2.15-4.8 4.8v4.14c0 .78.31 1.51.84 2.04v3c-1.07.56-3.42 1.87-5.64 3.68-.71.58-1.11 1.45-1.11 2.37v2.84c0 .58.48 1.06 1.06 1.06.58 0 1.06-.48 1.06-1.06v-2.84c0-.29.13-.56.35-.75 2.5-2.044 5.21-3.415 5.72-3.67.43-.21.7-.64.7-1.115v-4.01c0-.35-.18-.687-.47-.87a.823.823 0 0 1-.37-.69V21.3a2.668 2.668 0 0 1 2.674-2.7m40.14 23.13h.895c1.49 0 2.7 1.21 2.7 2.7v4.16c0 .28-.14.534-.376.685-.29.19-.46.52-.46.87v4.02c0 .47.27.9.7 1.11.523.25 3.22 1.61 5.72 3.67.22.18.35.45.35.74v2.85c0 .58.474 1.054 1.055 1.054.58 0 1.06-.48 1.06-1.06V59.7c0-.917-.41-1.79-1.12-2.37-2.207-1.81-4.58-3.137-5.647-3.683v-3c.53-.545.83-1.277.83-2.044v-4.16c0-2.65-2.15-4.8-4.8-4.8h-.892c-2.65 0-4.8 2.15-4.8 4.8v4.15c0 .78.3 1.51.835 2.044v3c-1.07.56-3.43 1.87-5.65 3.683a3.052 3.052 0 0 0-1.114 2.37v2.846c0 .58.475 1.054 1.06 1.054.58 0 1.06-.475 1.06-1.056V59.7c0-.29.13-.555.35-.74 2.5-2.044 5.204-3.416 5.72-3.67.43-.21.7-.64.7-1.116v-4.01c0-.35-.18-.69-.47-.87a.832.832 0 0 1-.37-.69v-4.16a2.662 2.662 0 0 1 2.67-2.698"/></symbol><symbol id="icon-numbers-2" viewBox="0 0 132 132"><path fill="#FFBA1A" d="M102.082 45.88L86.35 29 69.9 45.88h8.01l.144 51.488h17.163v-51.49"/><path fill="currentColor" fill-rule="evenodd" d="M89.356 49.022V99.08H75.34V49.022c0-.868-.706-1.573-1.574-1.573H68.96l13.388-13.5 13.387 13.5H90.93c-.868 0-1.574.703-1.574 1.57zM57.89 99.08h14.303V67.758H57.89V99.08zm-17.162 0h14.016V80.63H40.728v18.45zm58.783 0h-7.006V50.595h7.01c.77 0 1.253-.5 1.448-.97a1.55 1.55 0 0 0-.33-1.71L83.464 30.607a1.564 1.564 0 0 0-1.117-.465c-.423 0-.82.165-1.118.465L64.067 47.914c-.543.548-.528 1.243-.333 1.712.196.468.68.97 1.45.97h7.008V64.61H56.318c-.868 0-1.574.705-1.574 1.573v11.3h-15.59c-.867 0-1.573.705-1.573 1.572V99.08h-7.005c-.867 0-1.573.706-1.573 1.574 0 .867.707 1.573 1.574 1.573H99.51c.868 0 1.574-.706 1.574-1.573 0-.868-.706-1.574-1.573-1.574z"/></symbol><symbol id="icon-numbers-3" viewBox="0 0 132 132"><path fill="#FFBA1A" d="M91.473 105.428l2.955-2.955 2.955 2.955 2.955 2.955 2.954-2.955V56.354a5.127 5.127 0 0 0-5.13-5.13H56.84a5.127 5.127 0 0 1 5.13 5.13v49.058l2.956 2.955 2.955-2.955 2.96-2.955 2.96 2.955 2.96 2.955 2.96-2.955 2.96-2.955 2.96 2.955 2.957 2.955 2.908-2.94z"/><rect width="63" height="13" x="28" y="23" fill="#FFBA1A" rx="6.5"/><rect width="60" height="10" x="29.5" y="24.5" stroke="currentColor" fill="none" stroke-width="3" rx="5"/><rect width="52.728" height="2.842" x="33.136" y="28.079" fill="#FFBA1A" rx="1.421"/><rect width="49.728" height="1" x="34.636" y="29.579" stroke="currentColor" fill="none" stroke-width="3" rx=".5"/><path fill="currentColor" d="M65.31 59.773h26.88c.795 0 1.447-.65 1.447-1.445s-.652-1.446-1.446-1.446H65.31a1.45 1.45 0 0 0-1.445 1.446c0 .794.652 1.445 1.446 1.445m0 7.674h19.53c.8 0 1.45-.652 1.45-1.446 0-.79-.65-1.44-1.44-1.44H65.31c-.793 0-1.445.65-1.445 1.45 0 .81.652 1.45 1.446 1.45m0 7.04h26.88c.8 0 1.45-.65 1.45-1.44s-.65-1.44-1.44-1.44H65.31a1.45 1.45 0 0 0-1.445 1.447c0 .81.652 1.445 1.446 1.445m2.56 5.13h-2.56c-.79 0-1.44.65-1.44 1.446 0 .796.65 1.447 1.45 1.447h2.56c.8 0 1.45-.65 1.45-1.443s-.65-1.445-1.44-1.445m0 7.04h-2.56c-.79 0-1.44.65-1.44 1.444s.65 1.444 1.45 1.444h2.56a1.45 1.45 0 0 0 1.445-1.45c-.02-.81-.65-1.445-1.45-1.445m24.32-7.04H73.62a1.45 1.45 0 0 0-1.446 1.442c0 .798.65 1.45 1.446 1.45h18.57a1.45 1.45 0 0 0 1.447-1.444c0-.79-.652-1.442-1.446-1.442m-5.92 8.46a1.45 1.45 0 0 0-1.44-1.445h-11.2c-.79 0-1.44.65-1.44 1.44s.65 1.447 1.45 1.447h11.2c.8 0 1.45-.65 1.45-1.447"/><path fill="#FFF" d="M37.5 29.3h44v18.843h-44z"/><path fill="#FFF" d="M37.5 29.3h10.537v53.423H37.5z"/><path fill="currentColor" d="M72.714 102.333L67.82 97.44c-.28-.285-.65-.428-1.01-.428s-.73.14-1.01.42l-4.9 4.89-1.51-1.51v-48.46c0-.204-.01-.41-.03-.6 0-.065-.01-.113-.01-.176-.016-.143-.03-.286-.064-.43-.016-.063-.016-.11-.032-.174a3.11 3.11 0 0 0-.142-.54c0-.02 0-.02-.015-.04a5.046 5.046 0 0 0-.206-.54c-.01-.05-.04-.1-.06-.16-.06-.13-.11-.26-.19-.38-.03-.05-.05-.1-.08-.16-.08-.14-.172-.3-.27-.45-.013-.02-.013-.03-.03-.05v-.01h35.89a3.686 3.686 0 0 1 3.687 3.68v48.49l-1.51 1.51-4.89-4.895a1.45 1.45 0 0 0-2.035 0l-4.893 4.9-4.843-4.873a1.447 1.447 0 0 0-2.034 0l-4.89 4.877zm-26.45-49.98v26.31a3.689 3.689 0 0 1-3.687 3.685 3.689 3.689 0 0 1-3.686-3.685v-47.63h41.37v14.76H52.83a6.563 6.563 0 0 0-6.56 6.56zM83.5 105.4c.557.557 1.48.557 2.035 0l4.893-4.892 4.893 4.893a1.424 1.424 0 0 0 2.04 0l2.96-2.95c.27-.27.43-.633.43-1.014v-49.08c0-3.62-2.94-6.56-6.56-6.56H83.14v-16.19a1.45 1.45 0 0 0-1.446-1.445h-44.25c-.794 0-1.444.65-1.444 1.443V78.66c0 3.623 2.94 6.56 6.56 6.56h8.326a1.45 1.45 0 0 0 1.445-1.444 1.45 1.45 0 0 0-1.44-1.446H48a6.54 6.54 0 0 0 1.144-3.69V52.35a3.686 3.686 0 0 1 7.372.002v49.06c0 .1.018.19.03.29.02.07.035.11.05.18.017.04.017.07.03.1.035.07.066.13.098.18.016.018.016.05.032.065.047.08.11.16.174.222l2.955 2.95a1.45 1.45 0 0 0 2.03 0l4.896-4.896 4.9 4.89a1.44 1.44 0 0 0 2.03 0l4.9-4.89 4.88 4.91z"/></symbol><symbol id="icon-numbers-4" viewBox="0 0 132 132"><path fill="#FFBA1A" d="M74.002 35.336V63.23h27.91c0-7.076-2.64-13.55-6.988-18.468-5.124-5.785-12.597-9.426-20.92-9.426"/><path fill="currentColor" d="M74.338 57.91V32.7a26.584 26.584 0 0 1 25.207 25.209H74.34zm27.895 1.32c0-7.134-2.6-14.005-7.326-19.35A29.252 29.252 0 0 0 73.002 30c-.734 0-1.336.602-1.336 1.336V59.23c0 .735.602 1.337 1.336 1.337h27.895a1.33 1.33 0 0 0 1.336-1.336z"/><path fill="currentColor" d="M94.143 69.743c0-.734-.602-1.336-1.336-1.336-.734 0-1.336.602-1.336 1.336 0 16.223-13.19 29.407-29.4 29.407-16.22 0-29.4-13.2-29.4-29.407 0-16.21 13.2-29.407 29.41-29.407.74 0 1.34-.602 1.34-1.336 0-.734-.6-1.336-1.33-1.336C44.39 37.678 30 52.066 30 69.744c0 17.675 14.388 32.078 32.08 32.078 17.69 0 32.063-14.388 32.063-32.08"/><path fill="currentColor" d="M62.064 50.848c-.734 0-1.336.587-1.336 1.336 0 .734.602 1.336 1.336 1.336.734 0 1.336-.602 1.336-1.336 0-.75-.587-1.336-1.336-1.336m0-8.78a1.329 1.329 0 0 0 0 2.658c.734 0 1.336-.602 1.336-1.322 0-.75-.587-1.336-1.336-1.336m0 13.17c-.734 0-1.336.6-1.336 1.335 0 .734.602 1.336 1.336 1.336.734 0 1.336-.59 1.336-1.34 0-.74-.587-1.34-1.336-1.34m0-8.78c-.734 0-1.336.6-1.336 1.33s.602 1.33 1.336 1.33c.734 0 1.336-.61 1.336-1.34 0-.75-.587-1.34-1.336-1.34m0 17.56c-.734 0-1.336.6-1.336 1.333a1.34 1.34 0 0 0 1.336 1.334 1.33 1.33 0 0 0 1.336-1.335c0-.737-.587-1.34-1.336-1.34m0-4.39c-.734 0-1.336.59-1.336 1.337 0 .734.602 1.336 1.336 1.336.734 0 1.336-.6 1.336-1.34s-.587-1.33-1.336-1.33m0 8.78a1.352 1.352 0 0 0-1.336 1.336c0 .35.147.69.397.94s.587.38.94.38c.352 0 .69-.145.94-.38.248-.25.395-.59.395-.94 0-.352-.147-.69-.396-.94a1.306 1.306 0 0 0-.94-.395m27.69 1.335c0-.738-.588-1.34-1.336-1.34-.735 0-1.337.6-1.337 1.334s.61 1.337 1.34 1.337c.74 0 1.34-.602 1.34-1.336m-17.57 0c0-.736-.6-1.34-1.33-1.34s-1.33.6-1.33 1.337.59 1.335 1.34 1.335c.75 0 1.338-.6 1.338-1.334m4.403 0a1.337 1.337 0 1 0-1.34 1.338c.73 0 1.332-.606 1.332-1.34m4.39 0c0-.735-.6-1.337-1.334-1.337s-1.34.6-1.34 1.334.59 1.336 1.337 1.336c.73 0 1.335-.61 1.335-1.34m3.054 1.34a1.34 1.34 0 0 0-.001-2.678c-.735 0-1.336.6-1.336 1.335.01.736.6 1.34 1.332 1.34M67.8 69.71c0-.73-.59-1.335-1.337-1.335-.734 0-1.336.6-1.336 1.336s.605 1.34 1.34 1.34c.75 0 1.333-.6 1.333-1.33"/></symbol><symbol id="icon-star" viewBox="0 0 14 13"><path fill="currentColor" d="M6.615 9.998l-4.018 2.075.767-4.395-3.25-3.112 4.492-.64 2.01-4 2.008 4 4.492.64-3.25 3.112.767 4.395"/></symbol><symbol id="icon-superellispe" viewBox="0 0 100 100" preserveAspectRatio="none"><path fill="currentColor" d="M50 100c50 0 50-25 50-50s0-50-50-50S0 25 0 50s0 50 50 50z"/></symbol><symbol id="icon-twitter" viewBox="0 0 34 34"><path fill="currentColor" d="M33 7.08c-1.177.52-2.442.874-3.77 1.033a6.59 6.59 0 0 0 2.886-3.632 13.117 13.117 0 0 1-4.17 1.594 6.566 6.566 0 0 0-11.355 4.49c0 .515.057 1.016.17 1.497a18.642 18.642 0 0 1-13.532-6.86 6.538 6.538 0 0 0-.89 3.3c0 2.28 1.16 4.288 2.92 5.465a6.555 6.555 0 0 1-2.972-.82v.08a6.57 6.57 0 0 0 5.266 6.44 6.566 6.566 0 0 1-2.965.112 6.572 6.572 0 0 0 6.133 4.558 13.179 13.179 0 0 1-8.154 2.81c-.53 0-1.052-.03-1.566-.092a18.578 18.578 0 0 0 10.063 2.95c12.077 0 18.68-10.004 18.68-18.68 0-.284-.006-.567-.02-.85A13.238 13.238 0 0 0 33 7.08"/></symbol></svg>