<?xml version="1.0" encoding="UTF-8" standalone="no"?>
<!-- Created with Inkscape (http://www.inkscape.org/) -->

<svg
   xmlns:dc="http://purl.org/dc/elements/1.1/"
   xmlns:cc="http://creativecommons.org/ns#"
   xmlns:rdf="http://www.w3.org/1999/02/22-rdf-syntax-ns#"
   xmlns:svg="http://www.w3.org/2000/svg"
   xmlns="http://www.w3.org/2000/svg"
   xmlns:sodipodi="http://sodipodi.sourceforge.net/DTD/sodipodi-0.dtd"
   xmlns:inkscape="http://www.inkscape.org/namespaces/inkscape"
   version="1.1"
   id="svg188"
   xml:space="preserve"
   width="377.95334"
   height="377.95334"
   viewBox="0 0 377.95334 377.95334"
   sodipodi:docname="logo-orange.svg"
   inkscape:version="0.92.3 (2405546, 2018-03-11)"><metadata
     id="metadata194"><rdf:RDF><cc:Work
         rdf:about=""><dc:format>image/svg+xml</dc:format><dc:type
           rdf:resource="http://purl.org/dc/dcmitype/StillImage" /><dc:title></dc:title></cc:Work></rdf:RDF></metadata><defs
     id="defs192"><clipPath
       clipPathUnits="userSpaceOnUse"
       id="clipPath206"><path
         d="M 0,283.465 H 283.465 V 0 H 0 Z"
         id="path204"
         inkscape:connector-curvature="0" /></clipPath></defs><sodipodi:namedview
     pagecolor="#ffffff"
     bordercolor="#666666"
     borderopacity="1"
     objecttolerance="10"
     gridtolerance="10"
     guidetolerance="10"
     inkscape:pageopacity="0"
     inkscape:pageshadow="2"
     inkscape:window-width="1981"
     inkscape:window-height="1088"
     id="namedview190"
     showgrid="false"
     inkscape:zoom="2.3177464"
     inkscape:cx="188.97667"
     inkscape:cy="223.49296"
     inkscape:window-x="67"
     inkscape:window-y="27"
     inkscape:window-maximized="1"
     inkscape:current-layer="g196" /><g
     id="g196"
     inkscape:groupmode="layer"
     inkscape:label="Logo_Orange_Pantone151"
     transform="matrix(1.3333333,0,0,-1.3333333,0,377.95333)"><path
       d="M 0,0 H 283.465 V 283.465 H 0 Z"
       style="fill:#f4a22e;fill-opacity:1;fill-rule:nonzero;stroke:none"
       id="path198"
       inkscape:connector-curvature="0" /><g
       id="g200"><g
         id="g202"
         clip-path="url(#clipPath206)"><g
           id="g208"
           transform="translate(96.6476,35.7406)"><path
             d="m 0,0 c 0,-2.644 1.674,-5.124 4.687,-5.124 3.261,0 6.44,1.358 9.617,4.153 V 8.375 C 4.602,7.167 0,4.677 0,0 m 14.556,-8.294 c -4.016,-2.644 -8.364,-3.924 -13.049,-3.924 -7.362,0 -11.713,4.898 -11.713,11.464 0,8.83 8.115,13.509 24.845,15.394 v 2.199 c 0,2.869 -2.174,4.53 -6.192,4.53 -4.014,0 -7.276,-1.588 -9.617,-4.53 l -7.027,3.999 c 3.682,5.133 9.285,7.699 16.816,7.699 10.287,0 16.058,-4.451 16.058,-11.698 0,0 -0.015,-28.53 0.01,-28.604 h -9.209 z"
             style="fill:#ffffff;fill-opacity:1;fill-rule:nonzero;stroke:none"
             id="path210"
             inkscape:connector-curvature="0" /></g><g
           id="g212"
           transform="translate(129.5351,62.3978)"><path
             d="m 0,0 8.591,1.186 0.947,-4.681 c 4.85,3.549 8.699,5.438 13.552,5.438 8.113,0 12.298,-4.303 12.298,-12.832 V -38.362 H 25.012 v 25.663 c 0,4.83 -1.252,7.018 -5.018,7.018 -3.096,0 -6.19,-1.433 -9.704,-4.379 V -38.362 H 0 Z"
             style="fill:#ffffff;fill-opacity:1;fill-rule:nonzero;stroke:none"
             id="path214"
             inkscape:connector-curvature="0" /></g><g
           id="g216"
           transform="translate(241.4669,48.9413)"><path
             d="m 0,0 c 0,5.285 -3.011,8.38 -7.949,8.38 -4.681,0 -7.61,-3.021 -8.028,-8.38 z m -7.781,-25.658 c -11.625,0 -18.569,7.47 -18.569,20.453 0,13.133 7.026,20.604 18.401,20.604 11.377,0 18.153,-7.247 18.153,-20.08 0,-0.678 -0.084,-1.356 -0.084,-2.035 h -26.264 c 0.082,-7.473 3.179,-11.245 9.287,-11.245 3.928,0 6.523,1.585 8.949,5.054 l 7.61,-4.223 c -3.345,-5.586 -9.367,-8.528 -17.483,-8.528"
             style="fill:#ffffff;fill-opacity:1;fill-rule:nonzero;stroke:none"
             id="path218"
             inkscape:connector-curvature="0" /></g><g
           id="g220"
           transform="translate(34.887,55.715)"><path
             d="m 0,0 c -7.75,0 -9.183,-6.99 -9.183,-12.044 0,-5.058 1.433,-12.045 9.183,-12.045 7.752,0 9.188,6.987 9.188,12.045 C 9.188,-6.99 7.752,0 0,0 m 0,-32.863 c -10.262,0 -19.518,6.544 -19.518,20.819 0,14.276 9.256,20.819 19.518,20.819 10.264,0 19.519,-6.543 19.519,-20.819 0,-14.275 -9.255,-20.819 -19.519,-20.819"
             style="fill:#ffffff;fill-opacity:1;fill-rule:nonzero;stroke:none"
             id="path222"
             inkscape:connector-curvature="0" /></g><g
           id="g224"
           transform="translate(61.5257,63.4545)"><path
             d="m 0,0 h 9.871 v -4.642 c 1.878,2.5 6.526,5.452 10.874,5.452 0.418,0 0.918,0 1.339,-0.075 v -9.737 h -0.502 c -4.517,0 -9.455,-0.696 -11.042,-4.206 V -39.45 H 0 Z"
             style="fill:#ffffff;fill-opacity:1;fill-rule:nonzero;stroke:none"
             id="path226"
             inkscape:connector-curvature="0" /></g><g
           id="g228"
           transform="translate(208.8554,63.5981)"><path
             d="m 0,0 v -37.358 c 0,-6.595 -0.5,-17.443 -19.302,-17.563 -7.758,-0.049 -14.944,3.051 -16.384,9.824 l 10.248,1.649 c 0.429,-1.937 1.615,-3.873 7.427,-3.873 5.382,0 7.965,2.58 7.965,8.744 v 4.59 l -0.143,0.142 c -1.649,-2.94 -4.161,-5.734 -10.189,-5.734 -9.186,0 -16.434,6.377 -16.434,19.713 0,13.19 7.462,20.572 15.857,20.587 7.865,0.011 10.794,-3.575 11.459,-5.463 L -9.616,-4.721 -8.764,0 Z m -18.513,-31.12 c 7.88,0.059 8.541,8.071 8.541,13.305 0,6.162 -3.016,11.182 -8.613,11.182 -3.733,0 -7.892,-2.724 -7.892,-11.611 0,-4.876 0.344,-12.935 7.964,-12.876"
             style="fill:#ffffff;fill-opacity:1;fill-rule:nonzero;stroke:none"
             id="path230"
             inkscape:connector-curvature="0" /></g><g
           id="g232"
           transform="translate(272.7415,65.3794)"><path
             d="M 0,0 H -2.154 V 10.884 H -2.22 L -6.49,0 h -1.36 l -4.27,10.884 h -0.064 V 0 h -2.15 v 13.035 h 3.321 l 3.891,-9.901 3.827,9.901 H 0 Z m -16.994,11.296 h -4.082 V 0 h -2.151 v 11.296 h -4.081 v 1.739 h 10.314 z"
             style="fill:#ffffff;fill-opacity:1;fill-rule:nonzero;stroke:none"
             id="path234"
             inkscape:connector-curvature="0" /></g></g></g></g></svg>