<?xml version="1.0" encoding="UTF-8" standalone="no"?>
<!-- Created with Inkscape (http://www.inkscape.org/) -->

<svg
   xmlns:dc="http://purl.org/dc/elements/1.1/"
   xmlns:cc="http://creativecommons.org/ns#"
   xmlns:rdf="http://www.w3.org/1999/02/22-rdf-syntax-ns#"
   xmlns:svg="http://www.w3.org/2000/svg"
   xmlns="http://www.w3.org/2000/svg"
   xmlns:sodipodi="http://sodipodi.sourceforge.net/DTD/sodipodi-0.dtd"
   xmlns:inkscape="http://www.inkscape.org/namespaces/inkscape"
   version="1.1"
   id="svg2129"
   xml:space="preserve"
   width="1121.608"
   height="606.34534"
   viewBox="0 0 1121.608 606.34534"
   sodipodi:docname="logo_ltc.svg"
   inkscape:version="0.92.3 (2405546, 2018-03-11)"><metadata
     id="metadata2135"><rdf:RDF><cc:Work
         rdf:about=""><dc:format>image/svg+xml</dc:format><dc:type
           rdf:resource="http://purl.org/dc/dcmitype/StillImage" /><dc:title></dc:title></cc:Work></rdf:RDF></metadata><defs
     id="defs2133"><clipPath
       clipPathUnits="userSpaceOnUse"
       id="clipPath2145"><path
         d="M 0,595.28 H 841.89 V 0 H 0 Z"
         id="path2143"
         inkscape:connector-curvature="0" /></clipPath><clipPath
       clipPathUnits="userSpaceOnUse"
       id="clipPath2211"><path
         d="M 138.333,474.417 H 320.817 V 298.751 H 138.333 Z"
         id="path2209"
         inkscape:connector-curvature="0" /></clipPath><clipPath
       clipPathUnits="userSpaceOnUse"
       id="clipPath2263"><path
         d="M 190.232,432.296 V 294.624 l 135.801,52.358 v 85.314 z"
         id="path2261"
         inkscape:connector-curvature="0" /></clipPath><linearGradient
       x1="0"
       y1="0"
       x2="1"
       y2="0"
       gradientUnits="userSpaceOnUse"
       gradientTransform="matrix(49.282211,-104.43136,-104.43136,-49.282211,233.55859,415.5332)"
       spreadMethod="pad"
       id="linearGradient2275"><stop
         style="stop-opacity:1;stop-color:#d2113a"
         offset="0"
         id="stop2269" /><stop
         style="stop-opacity:1;stop-color:#d2113a"
         offset="0.61705631"
         id="stop2271" /><stop
         style="stop-opacity:1;stop-color:#7e091e"
         offset="1"
         id="stop2273" /></linearGradient><clipPath
       clipPathUnits="userSpaceOnUse"
       id="clipPath2285"><path
         d="m 190.223,294.535 h 135.994 v 52.447 z"
         id="path2283"
         inkscape:connector-curvature="0" /></clipPath><linearGradient
       x1="0"
       y1="0"
       x2="1"
       y2="0"
       gradientUnits="userSpaceOnUse"
       gradientTransform="matrix(23.073902,-59.06844,-59.06844,-23.073902,253.78418,332.11328)"
       spreadMethod="pad"
       id="linearGradient2297"><stop
         style="stop-opacity:1;stop-color:#ffffff"
         offset="0"
         id="stop2291" /><stop
         style="stop-opacity:1;stop-color:#ffffff"
         offset="0.00882149"
         id="stop2293" /><stop
         style="stop-opacity:1;stop-color:#c3baaa"
         offset="1"
         id="stop2295" /></linearGradient><clipPath
       clipPathUnits="userSpaceOnUse"
       id="clipPath2307"><path
         d="M 0,595.28 H 841.89 V 0 H 0 Z"
         id="path2305"
         inkscape:connector-curvature="0" /></clipPath><clipPath
       clipPathUnits="userSpaceOnUse"
       id="clipPath2451"><path
         d="m 178.536,401.715 c -18.496,5.972 -36.598,16.65 -61.816,16.186 v 0 c -10.1,-0.192 -19.232,-2.522 -25.82,-5.978 v 0 c -5.485,-2.892 -10.461,-11.76 -2.55,-15.019 v 0 c 5.437,-2.229 11.3,-1.041 19.016,0.144 v 0 c 4.667,0.714 10.018,1.433 16.364,1.395 v 0 c 23.392,-0.144 35.112,-9.229 54.681,-11.876 v 0 c 34.037,-4.593 74.314,0.784 82.917,34.402 v 0 c -27.534,-33.552 -70.234,-23.308 -82.792,-19.254"
         id="path2449"
         inkscape:connector-curvature="0" /></clipPath><linearGradient
       x1="0"
       y1="0"
       x2="1"
       y2="0"
       gradientUnits="userSpaceOnUse"
       gradientTransform="matrix(177.09424,0,0,-177.09424,84.233887,403.06055)"
       spreadMethod="pad"
       id="linearGradient2467"><stop
         style="stop-opacity:1;stop-color:#0aada6"
         offset="0"
         id="stop2457" /><stop
         style="stop-opacity:1;stop-color:#0aada6"
         offset="0.043956"
         id="stop2459" /><stop
         style="stop-opacity:1;stop-color:#ffffff"
         offset="0.80989541"
         id="stop2461" /><stop
         style="stop-opacity:1;stop-color:#ffffff"
         offset="0.85"
         id="stop2463" /><stop
         style="stop-opacity:1;stop-color:#ffffff"
         offset="1"
         id="stop2465" /></linearGradient><clipPath
       clipPathUnits="userSpaceOnUse"
       id="clipPath2477"><path
         d="m 189.256,371.221 c -21.882,4.524 -46.078,15.655 -71.788,15.18 v 0 c -10.3,-0.187 -19.602,-2.563 -26.321,-6.091 v 0 c -5.59,-2.949 -10.661,-11.988 -2.598,-15.308 v 0 c 5.542,-2.28 11.518,-1.071 19.382,0.141 v 0 c 4.76,0.734 10.21,1.465 16.677,1.428 v 0 c 26.196,-0.156 49.917,-7.553 65.206,-9.467 v 0 c 32.043,-4.003 62.341,12.813 70.733,34.938 v 0 c -20.025,-17.62 -48.063,-25.627 -71.291,-20.821"
         id="path2475"
         inkscape:connector-curvature="0" /></clipPath><linearGradient
       x1="0"
       y1="0"
       x2="1"
       y2="0"
       gradientUnits="userSpaceOnUse"
       gradientTransform="matrix(176.19287,0,0,-176.19287,84.354004,374.27686)"
       spreadMethod="pad"
       id="linearGradient2491"><stop
         style="stop-opacity:1;stop-color:#83b926"
         offset="0"
         id="stop2483" /><stop
         style="stop-opacity:1;stop-color:#83b926"
         offset="0.36027566"
         id="stop2485" /><stop
         style="stop-opacity:1;stop-color:#ffffff"
         offset="0.7747"
         id="stop2487" /><stop
         style="stop-opacity:1;stop-color:#ffffff"
         offset="1"
         id="stop2489" /></linearGradient></defs><sodipodi:namedview
     pagecolor="#ffffff"
     bordercolor="#666666"
     borderopacity="1"
     objecttolerance="10"
     gridtolerance="10"
     guidetolerance="10"
     inkscape:pageopacity="0"
     inkscape:pageshadow="2"
     inkscape:window-width="1978"
     inkscape:window-height="1088"
     id="namedview2131"
     showgrid="false"
     inkscape:zoom="0.3575224"
     inkscape:cx="48.947981"
     inkscape:cy="303.17267"
     inkscape:window-x="70"
     inkscape:window-y="27"
     inkscape:window-maximized="1"
     inkscape:current-layer="g2137" /><g
     id="g2137"
     inkscape:groupmode="layer"
     inkscape:label="logo_ltc_generique"
     transform="matrix(1.3333333,0,0,-1.3333333,0,793.70667)"><g
       id="g2139"><g
         id="g2141"
         clip-path="url(#clipPath2145)"><g
           id="g2147"
           transform="translate(358.7173,383.6152)"><path
             d="m 0,0 c -0.352,-0.045 -0.715,-0.069 -1.08,-0.069 -2.887,0 -4.29,1.453 -4.29,4.442 v 44.154 h -9.538 V 6.075 c 0,-5.195 0.875,-9.114 2.598,-11.646 1.766,-2.583 4.35,-3.891 7.682,-3.891 0.126,0 0.254,0.002 0.382,0.004 L 6.573,-9.132 6.89,-9.121 7.576,0.135 7.193,0.133 C 2.224,0.089 0.409,0.058 0,0"
             style="fill:#5e414a;fill-opacity:1;fill-rule:nonzero;stroke:none"
             id="path2149"
             inkscape:connector-curvature="0" /></g><g
           id="g2151"
           transform="translate(381.7197,381.4883)"><path
             d="M 0,0 C -2.003,0 -3,1.506 -3.048,4.602 L -3.16,11.683 H 3.144 V 4.595 C 3.158,2.773 2.796,1.48 2.074,0.751 1.569,0.246 0.891,0 0,0 m -0.837,36.943 -6.834,-2.035 3.506,-6.836 0.294,0.11 c 1.384,0.516 2.716,0.776 3.955,0.776 0.757,0 1.351,-0.226 1.818,-0.696 0.839,-0.843 1.256,-2.477 1.242,-4.854 v -3.875 c -9.98,0.318 -15.021,-4.171 -15.02,-13.233 0,-5.132 1.011,-8.858 3.004,-11.076 2.003,-2.214 4.884,-3.336 8.562,-3.336 3.679,0 6.697,1.235 8.975,3.669 2.189,2.36 3.298,5.428 3.298,9.118 v 18.974 c 0,8.986 -4.334,13.489 -12.8,13.294"
             style="fill:#5e414a;fill-opacity:1;fill-rule:nonzero;stroke:none"
             id="path2153"
             inkscape:connector-curvature="0" /></g><g
           id="g2155"
           transform="translate(416.9106,418.0415)"><path
             d="m 0,0 c -2.897,0 -5.803,-1.567 -8.64,-4.657 v 4.056 h -8.677 v -42.958 h 8.677 v 32.268 c 1.577,1.952 2.988,2.942 4.198,2.942 0.436,0 1.752,0 1.752,-2.982 V -43.559 H 5.899 V -7.81 C 5.899,-2.628 3.914,0 0,0"
             style="fill:#5e414a;fill-opacity:1;fill-rule:nonzero;stroke:none"
             id="path2157"
             inkscape:connector-curvature="0" /></g><g
           id="g2159"
           transform="translate(446.8594,418.0415)"><path
             d="m 0,0 c -2.893,0 -5.799,-1.567 -8.636,-4.657 v 4.056 h -8.667 v -42.958 h 8.667 v 32.268 c 1.581,1.952 2.993,2.942 4.203,2.942 0.431,0 1.743,0 1.743,-2.982 V -43.559 H 5.903 V -7.81 C 5.903,-2.628 3.919,0 0,0"
             style="fill:#5e414a;fill-opacity:1;fill-rule:nonzero;stroke:none"
             id="path2161"
             inkscape:connector-curvature="0" /></g><path
           d="m 459.505,374.484 h 8.676 v 42.959 h -8.676 z"
           style="fill:#5e414a;fill-opacity:1;fill-rule:nonzero;stroke:none"
           id="path2163"
           inkscape:connector-curvature="0" /><path
           d="m 459.505,423.872 h 8.676 v 8.592 h -8.676 z"
           style="fill:#5e414a;fill-opacity:1;fill-rule:nonzero;stroke:none"
           id="path2165"
           inkscape:connector-curvature="0" /><g
           id="g2167"
           transform="translate(483.1191,407.7495)"><path
             d="M 0,0 C 0,1.865 0.907,2.731 2.855,2.731 4.969,2.731 5.949,1.865 5.949,0 v -23.009 c 0,-2.253 -0.98,-3.3 -3.094,-3.3 -1.948,0 -2.855,1.047 -2.855,3.3 z m 3.213,10.762 c -3.538,0 -6.431,-0.947 -8.599,-2.819 -2.287,-1.996 -3.452,-4.774 -3.452,-8.261 v -21.905 c 0,-3.611 1.051,-6.543 3.109,-8.713 2.099,-2.255 4.987,-3.399 8.584,-3.399 3.676,0 6.591,1.073 8.667,3.188 2.077,2.12 3.131,5.071 3.131,8.772 v 21.818 c 0,3.334 -1.081,6.083 -3.213,8.168 -2.127,2.09 -4.895,3.151 -8.227,3.151"
             style="fill:#5e414a;fill-opacity:1;fill-rule:nonzero;stroke:none"
             id="path2169"
             inkscape:connector-curvature="0" /></g><g
           id="g2171"
           transform="translate(521.1982,418.0415)"><path
             d="m 0,0 c -2.901,0 -5.802,-1.565 -8.64,-4.654 v 4.053 h -8.672 v -42.958 h 8.672 v 32.268 c 1.581,1.952 2.994,2.942 4.203,2.942 0.431,0 1.742,0 1.742,-2.982 V -43.559 H 5.904 V -7.81 C 5.904,-2.628 3.914,0 0,0"
             style="fill:#5e414a;fill-opacity:1;fill-rule:nonzero;stroke:none"
             id="path2173"
             inkscape:connector-curvature="0" /></g><path
           d="m 533.202,392.585 h 19.526 v 6.683 h -19.526 z"
           style="fill:#5e414a;fill-opacity:1;fill-rule:nonzero;stroke:none"
           id="path2175"
           inkscape:connector-curvature="0" /><g
           id="g2177"
           transform="translate(579.7158,432.4639)"><path
             d="m 0,0 h -27.882 v -8.986 h 9.145 v -48.995 h 9.548 V -8.986 H 0 Z"
             style="fill:#5e414a;fill-opacity:1;fill-rule:nonzero;stroke:none"
             id="path2179"
             inkscape:connector-curvature="0" /></g><g
           id="g2181"
           transform="translate(588.1221,412.7617)"><path
             d="M 0,0 V 4.679 H -8.677 V -38.279 H 0 v 27.996 c 0,4.343 2.034,6.455 6.229,6.455 0.912,0 1.723,-0.171 2.411,-0.511 L 9.147,-4.588 V 5.156 H 8.003 C 4.688,5.156 1.999,3.424 0,0"
             style="fill:#5e414a;fill-opacity:1;fill-rule:nonzero;stroke:none"
             id="path2183"
             inkscape:connector-curvature="0" /></g><g
           id="g2185"
           transform="translate(622.4111,430.1992)"><path
             d="m 0,0 h -11.069 l -4.149,-9.501 h 7.124 z"
             style="fill:#5e414a;fill-opacity:1;fill-rule:nonzero;stroke:none"
             id="path2187"
             inkscape:connector-curvature="0" /></g><g
           id="g2189"
           transform="translate(610.7598,410.4839)"><path
             d="m 0,0 c 1.999,0 2.993,-1.506 3.039,-4.603 l 0.115,-7.087 h -6.266 v 7.095 c -0.009,1.828 0.347,3.126 1.072,3.852 C -1.545,-0.243 -0.876,0 0,0 m 0.299,8.112 c -3.668,0 -6.67,-1.218 -8.916,-3.625 -2.233,-2.395 -3.364,-5.477 -3.364,-9.165 v -18.967 c 0,-8.834 4.162,-13.316 12.375,-13.316 l 0.426,0.002 6.834,2.04 -3.488,6.843 -0.293,-0.111 c -1.379,-0.517 -2.704,-0.779 -3.941,-0.779 -0.747,0 -1.339,0.225 -1.802,0.693 -0.834,0.84 -1.255,2.477 -1.242,4.865 v 3.871 c 0.302,-0.009 0.595,-0.014 0.889,-0.014 9.35,0.002 14.094,4.46 14.094,13.251 0,5.136 -1.012,8.858 -3.012,11.062 -1.989,2.223 -4.871,3.35 -8.56,3.35"
             style="fill:#5e414a;fill-opacity:1;fill-rule:nonzero;stroke:none"
             id="path2191"
             inkscape:connector-curvature="0" /></g><g
           id="g2193"
           transform="translate(640.8643,367.5498)"><path
             d="M 0,0 C -1.232,0 -2.384,0.227 -3.419,0.676 -4.725,1.249 -5.358,2 -5.358,2.97 c 0,1.124 0.921,2.123 2.746,2.973 C 3.429,5.885 6.623,4.896 6.623,3.085 6.623,2.003 5.808,1.194 4.125,0.61 2.916,0.205 1.526,0 0,0 m 1.596,29.194 c 0,-2.669 -1.028,-3.966 -3.15,-3.966 -2.077,0 -3.038,1.26 -3.038,3.966 v 9.816 c 0,2.678 0.961,3.921 3.038,3.921 2.122,0 3.15,-1.281 3.15,-3.921 z m 2.57,-15.618 c -1.055,0.163 -2.558,0.294 -4.455,0.39 -1.966,0.121 -4.303,0.523 -4.303,1.751 0,0.722 0.527,1.501 1.576,2.317 0.033,-0.003 0.033,0 0.087,-0.005 1.457,-0.151 1.802,-0.172 1.935,-0.172 h 0.114 c 6.894,0 10.391,3.947 10.391,11.729 v 12.667 c 0,0.754 -0.481,2.003 -1.508,3.869 -2.641,3.211 -5.808,4.84 -9.41,4.84 -3.736,0 -6.609,-1.258 -8.548,-3.742 -1.724,-2.247 -2.599,-5.316 -2.599,-9.124 v -8.433 c 0,-4.439 1.641,-7.8 4.881,-10.004 -3.24,-2.462 -4.881,-4.957 -4.881,-7.421 0,-2.346 1.398,-4.004 4.158,-4.932 -2.086,-0.9 -3.548,-1.792 -4.452,-2.706 -1.252,-1.249 -1.883,-2.641 -1.883,-4.132 0,-4.701 4.57,-7.086 13.589,-7.086 10.355,0 15.603,3.478 15.603,10.338 0,5.536 -3.465,8.851 -10.295,9.856"
             style="fill:#5e414a;fill-opacity:1;fill-rule:nonzero;stroke:none"
             id="path2195"
             inkscape:connector-curvature="0" /></g><g
           id="g2197"
           transform="translate(665.748,407.7495)"><path
             d="M 0,0 C 0,1.865 0.903,2.731 2.852,2.731 4.964,2.731 5.949,1.865 5.949,0 v -23.009 c 0,-2.253 -0.985,-3.3 -3.097,-3.3 -1.949,0 -2.852,1.047 -2.852,3.3 z m 3.199,10.762 c -3.539,0 -6.426,-0.947 -8.586,-2.819 -2.286,-1.996 -3.45,-4.774 -3.45,-8.261 v -21.905 c 0,-3.607 1.045,-6.538 3.099,-8.713 2.094,-2.255 4.986,-3.399 8.59,-3.399 3.666,0 6.586,1.073 8.666,3.186 2.082,2.122 3.135,5.071 3.135,8.774 v 21.818 c 0,3.33 -1.077,6.078 -3.209,8.17 -2.134,2.088 -4.909,3.149 -8.245,3.149"
             style="fill:#5e414a;fill-opacity:1;fill-rule:nonzero;stroke:none"
             id="path2199"
             inkscape:connector-curvature="0" /></g><g
           id="g2201"
           transform="translate(703.1914,417.918)"><path
             d="m 0,0 c -3.306,0 -6.001,-1.737 -8.018,-5.166 v 4.689 h -8.658 v -42.958 h 8.658 v 27.996 c 0,4.342 2.037,6.455 6.225,6.455 0.936,0 1.729,-0.167 2.43,-0.511 L 1.145,-9.743 V 0 Z"
             style="fill:#5e414a;fill-opacity:1;fill-rule:nonzero;stroke:none"
             id="path2203"
             inkscape:connector-curvature="0" /></g><g
           id="g2205"><g
             id="g2207" /><g
             id="g2255"><g
               clip-path="url(#clipPath2211)"
               id="g2253"
               style="opacity:0.85000598"><g
                 transform="translate(299.8071,432.897)"
                 id="g2215"><path
                   d="M 0,0 -2.696,4.657 C -2.36,3.799 -2.107,2.901 -1.971,1.92 -1.588,0.788 -0.843,0.532 0,0"
                   style="fill:#f49e0d;fill-opacity:1;fill-rule:nonzero;stroke:none"
                   id="path2213"
                   inkscape:connector-curvature="0" /></g><g
                 transform="translate(294.3174,441.6787)"
                 id="g2219"><path
                   d="M 0,0 -0.554,0.784 -1.207,1.316 Z"
                   style="fill:#f49e0d;fill-opacity:1;fill-rule:nonzero;stroke:none"
                   id="path2217"
                   inkscape:connector-curvature="0" /></g><g
                 transform="translate(287.9102,448.5034)"
                 id="g2223"><path
                   d="M 0,0 C 1.015,-1.301 2.129,-2.415 3.263,-3.454 2.488,-2.347 1.434,-1.178 0,0"
                   style="fill:#f49e0d;fill-opacity:1;fill-rule:nonzero;stroke:none"
                   id="path2221"
                   inkscape:connector-curvature="0" /></g><g
                 transform="translate(292.2871,442.5176)"
                 id="g2227"><path
                   d="M 0,0 C -0.078,0.66 0.025,1.107 0.797,0.5 L 0.825,0.477 -1.115,2.535 C -0.587,1.664 -0.24,0.788 0,0"
                   style="fill:#f49e0d;fill-opacity:1;fill-rule:nonzero;stroke:none"
                   id="path2225"
                   inkscape:connector-curvature="0" /></g><g
                 transform="translate(292.2871,442.5176)"
                 id="g2231"><path
                   d="M 0,0 C 0.072,-0.637 0.351,-1.52 0.38,-1.865 Z"
                   style="fill:#f49e0d;fill-opacity:1;fill-rule:nonzero;stroke:none"
                   id="path2229"
                   inkscape:connector-curvature="0" /></g><g
                 transform="translate(284.7354,439.332)"
                 id="g2235"><path
                   d="m 0,0 c -0.739,0.481 1.108,1.77 -0.425,2.711 -3.091,2.647 -6.233,4.228 -8.998,6.632 -1.464,0.809 -2.154,4.229 -3.811,4.898 -3.597,2.129 -13.733,4.262 -8.631,1.462 7.646,-4.065 12.39,-7.411 18.15,-12.829 5.184,-3.979 9.493,-8.702 13.684,-14.177 0.923,-1.677 1.541,-3.364 2.181,-5.042 -0.769,2.215 -1.271,4.669 -2.465,7.089 C 8.467,-5.789 3.67,-3.827 0,0"
                   style="fill:#f49e0d;fill-opacity:1;fill-rule:nonzero;stroke:none"
                   id="path2233"
                   inkscape:connector-curvature="0" /></g><g
                 transform="translate(309.4482,395.1704)"
                 id="g2239"><path
                   d="m 0,0 c -0.3,0.903 -0.894,2.692 -0.894,2.69 1.131,4.183 0.061,8.548 -1.72,12.507 l -0.624,-2.084 c 0.671,-2.326 1.26,-2.523 1.359,-0.278 C -2.347,7.641 -1.849,3.114 -1.547,-1.666 -0.95,-1.345 -0.242,-1.382 0,0"
                   style="fill:#f49e0d;fill-opacity:1;fill-rule:nonzero;stroke:none"
                   id="path2237"
                   inkscape:connector-curvature="0" /></g><g
                 transform="translate(308.2295,390.7153)"
                 id="g2243"><path
                   d="M 0,0 -0.327,2.786 -0.516,2.681 -0.05,-0.102 Z"
                   style="fill:#f49e0d;fill-opacity:1;fill-rule:nonzero;stroke:none"
                   id="path2241"
                   inkscape:connector-curvature="0" /></g><g
                 transform="translate(271.8247,459.6968)"
                 id="g2247"><path
                   d="m 0,0 c -10.133,6.627 -20.912,10.885 -31.854,13.04 -0.925,-0.303 -1.589,-0.72 -2.681,-0.284 -0.798,0.517 -1.633,0.893 -2.475,1.186 -1.613,0.294 -3.25,0.294 -4.858,0.454 l -1.728,-0.087 -0.05,-0.009 c -0.918,-0.211 -0.651,-0.573 -0.104,-0.93 l 1.64,-0.898 c -0.295,0.201 -1.105,0.545 -1.64,0.898 -0.751,0.323 -1.598,0.591 -2.593,0.77 -1.479,-0.198 -3.016,-0.369 -4.616,-0.312 1.76,0.348 3.301,0.438 4.616,0.312 l 2.747,0.169 0.804,0.163 c -3.725,0.451 -7.439,0.153 -11.174,0.126 -0.851,-0.073 -1.657,-0.245 -2.307,-0.431 -2.635,-0.706 -5.19,-1.402 -7.06,-0.584 l -1.962,-0.419 0.417,-0.101 -0.78,0.018 c -2.736,-0.676 -5.585,-1.061 -8.265,-2.077 -1.596,-1.033 -3.177,-2.181 -4.812,-3.126 -0.015,0.04 -1.442,0.152 -2.169,0.227 -0.467,-0.845 -1.295,-1.659 -2.361,-2.385 1.666,0.055 3.196,-0.034 4.513,0.092 2.08,-0.308 3.064,3.561 5.844,2.351 -2.78,1.21 -3.764,-2.659 -5.844,-2.351 -1.317,-0.126 -2.847,-0.037 -4.513,-0.092 -2.275,-1.403 -5.332,-2.856 -8.312,-3.392 2.469,2.648 5.495,3.406 8.312,3.392 1.066,0.726 1.894,1.54 2.361,2.385 0.727,-0.075 2.154,-0.187 2.169,-0.227 1.635,0.945 3.216,2.093 4.812,3.126 -5.333,-1.622 -10.604,-3.77 -15.668,-6.581 -33.136,-17.722 -50.582,-56.776 -41.52,-95.477 4.772,-20.996 16.813,-39.573 33.327,-52.504 34.2,-25.848 80.658,-21.569 116.293,4.19 15.28,9.313 30.141,39.856 30.484,56.755 -1.872,22.324 -12.688,10.51 -13.08,10.189 -9.237,-10.29 -4.953,-20.761 -20.605,-37.408 10.347,11.766 -1.021,-14.094 -16.904,-17.587 -19.115,-5.365 -44.407,-17.91 -67.496,-7.551 -5.33,2.25 -10.917,4.817 -16.632,8.703 -27.453,21.578 -40.203,61.594 -19.244,94.443 5.288,8.354 10.169,16.125 16.739,22.171 5.096,3.992 11.709,6.284 16.557,7.921 7.564,2.902 14.337,4.94 21.154,6.229 -7.638,-0.84 -13.055,-2.485 -20.818,-5.639 -5.222,-2.189 2.546,4.348 6.395,5.649 1.509,0.965 4.539,-0.893 6.053,-0.244 3.477,0.664 6.621,1.929 10.517,2.676 1.668,0.573 1.49,-1.632 2.305,-1.421 5.146,0.365 9.607,2.865 12.956,1.577 2.553,-0.6 4.705,-1.732 6.824,-2.58 l 4.147,-1.383 2.917,-0.465 c -0.486,0.912 -0.47,1.802 -0.432,2.696 1.321,-0.647 3.095,-1.724 4.348,-2.453 -1.253,0.729 -3.027,1.806 -4.348,2.453 -0.038,-0.894 -0.054,-1.784 0.432,-2.696 7.038,-1.242 15.134,-4.088 21.883,-8.318 l 0.04,0.219 C -1.08,-2.718 -4.75,-0.234 -8.375,3.336 -6.723,1.945 -7.266,1.544 -9.455,2.461 L -10.6,4.263 c 4.106,-1.101 8.044,-3.025 10.454,-6.486 0,0 1.725,-0.66 2.593,-0.993 0.88,-1.047 0.4,-1.572 0.254,-2.216 l 2.295,-1.51 C 4.208,-4.928 0.028,0.002 0,0"
                   style="fill:#f49e0d;fill-opacity:1;fill-rule:nonzero;stroke:none"
                   id="path2245"
                   inkscape:connector-curvature="0" /></g><g
                 transform="translate(225.373,473.9028)"
                 id="g2251"><path
                   d="M 0,0 C 0.649,0.048 1.456,0.053 2.31,0.066 -0.788,0.473 -3.902,0.085 -7.04,0.135 -5.296,-0.875 -2.687,-0.437 0,0"
                   style="fill:#f49e0d;fill-opacity:1;fill-rule:nonzero;stroke:none"
                   id="path2249"
                   inkscape:connector-curvature="0" /></g></g></g></g></g></g><g
       id="g2257"><g
         id="g2259"
         clip-path="url(#clipPath2263)"><g
           id="g2265"><g
             id="g2267"><path
               d="M 190.232,432.296 V 294.624 l 135.801,52.358 v 85.314 z"
               style="fill:url(#linearGradient2275);stroke:none"
               id="path2277"
               inkscape:connector-curvature="0" /></g></g></g></g><g
       id="g2279"><g
         id="g2281"
         clip-path="url(#clipPath2285)"><g
           id="g2287"><g
             id="g2289"><path
               d="m 190.223,294.535 h 135.994 v 52.447 z"
               style="fill:url(#linearGradient2297);stroke:none"
               id="path2299"
               inkscape:connector-curvature="0" /></g></g></g></g><g
       id="g2301"><g
         id="g2303"
         clip-path="url(#clipPath2307)"><g
           id="g2309"
           transform="translate(343.979,340.5718)"><path
             d="m 0,0 c 0,12.464 8.615,13.803 12.295,13.803 3.933,0 6.525,-1.045 6.777,-1.13 1.296,-0.502 1.756,-1.966 1.38,-2.97 C 19.991,8.534 18.151,8.03 16.938,8.617 16.897,8.658 15.35,9.16 12.295,9.16 9.369,9.16 4.642,7.989 4.642,0 c 0,-7.987 4.727,-9.158 7.653,-9.158 3.012,0 4.727,0.584 5.104,0.711 h -0.085 c 1.004,0.542 2.552,-0.042 3.054,-1.172 0.502,-1.212 -0.043,-2.55 -1.338,-3.052 l -0.084,0.126 c -1.213,-0.461 -3.639,-1.256 -6.651,-1.256 C 8.615,-13.801 0,-12.462 0,0"
             style="fill:#03acbc;fill-opacity:1;fill-rule:nonzero;stroke:none"
             id="path2311"
             inkscape:connector-curvature="0" /></g><g
           id="g2313"
           transform="translate(343.979,340.5718)"><path
             d="m 0,0 c 0,12.464 8.615,13.803 12.295,13.803 3.933,0 6.525,-1.045 6.777,-1.13 1.296,-0.502 1.756,-1.966 1.38,-2.97 C 19.991,8.534 18.151,8.03 16.938,8.617 16.897,8.658 15.35,9.16 12.295,9.16 9.369,9.16 4.642,7.989 4.642,0 c 0,-7.987 4.727,-9.158 7.653,-9.158 3.012,0 4.727,0.584 5.104,0.711 h -0.085 c 1.004,0.542 2.552,-0.042 3.054,-1.172 0.502,-1.212 -0.043,-2.55 -1.338,-3.052 l -0.084,0.126 c -1.213,-0.461 -3.639,-1.256 -6.651,-1.256 C 8.615,-13.801 0,-12.462 0,0 Z"
             style="fill:none;stroke:#03acbc;stroke-width:0.5;stroke-linecap:butt;stroke-linejoin:miter;stroke-miterlimit:10;stroke-dasharray:none;stroke-opacity:1"
             id="path2315"
             inkscape:connector-curvature="0" /></g><g
           id="g2317"
           transform="translate(384.8755,344.3369)"><path
             d="m 0,0 v -7.528 c 0,-6.106 3.346,-6.944 6.648,-6.944 3.263,0 6.65,0.838 6.65,6.944 V 0 c 0,6.149 -3.387,6.942 -6.65,6.942 C 3.346,6.942 0,6.149 0,0 M -3.055,-7.528 V 0 c 0,10.038 7.238,10.038 9.703,10.038 2.386,0 9.702,0 9.702,-10.038 v -7.528 c 0,-9.997 -7.275,-10.038 -9.702,-10.038 -2.465,0 -9.703,0 -9.703,10.038"
             style="fill:#03acbc;fill-opacity:1;fill-rule:nonzero;stroke:none"
             id="path2319"
             inkscape:connector-curvature="0" /></g><g
           id="g2321"
           transform="translate(440.3271,328.2354)"><path
             d="M 0,0 C -0.252,6.607 -0.417,10.372 -0.71,17.19 -3.012,11.291 -5.395,5.395 -7.695,-0.461 v 0.041 c -0.17,-0.627 -0.752,-1.045 -1.38,-1.045 -0.711,0 -1.297,0.376 -1.508,0.963 l -6.943,17.692 c -0.248,-5.732 -0.5,-11.546 -0.711,-17.233 -0.082,-0.794 -0.835,-1.422 -1.673,-1.422 -0.752,0.083 -1.38,0.878 -1.421,1.632 0.334,7.946 0.71,16.563 1.045,24.508 0.041,0.711 0.669,1.256 1.379,1.465 0.588,0.084 1.298,-0.42 1.55,-1.004 2.97,-7.403 5.312,-13.343 8.282,-20.83 2.718,6.944 5.477,13.888 8.195,20.83 0.252,0.627 1.086,1.045 1.756,0.963 C 1.504,25.931 2.008,25.386 2.049,24.675 2.384,16.73 2.76,8.072 3.094,0.126 3.094,-0.669 2.466,-1.382 1.673,-1.465 H 1.545 C 0.752,-1.465 0.041,-0.795 0,0"
             style="fill:#03acbc;fill-opacity:1;fill-rule:nonzero;stroke:none"
             id="path2323"
             inkscape:connector-curvature="0" /></g><g
           id="g2325"
           transform="translate(483.8154,328.2354)"><path
             d="M 0,0 C -0.252,6.607 -0.417,10.372 -0.71,17.19 -3.012,11.291 -5.395,5.395 -7.695,-0.461 v 0.041 c -0.17,-0.627 -0.752,-1.045 -1.38,-1.045 -0.711,0 -1.297,0.376 -1.508,0.963 l -6.943,17.692 c -0.248,-5.732 -0.501,-11.546 -0.711,-17.233 -0.083,-0.794 -0.835,-1.422 -1.673,-1.422 -0.752,0.083 -1.38,0.878 -1.421,1.632 0.334,7.946 0.71,16.563 1.045,24.508 0.041,0.711 0.669,1.256 1.379,1.465 0.587,0.084 1.298,-0.42 1.55,-1.004 2.969,-7.403 5.311,-13.343 8.282,-20.83 2.718,6.944 5.477,13.888 8.195,20.83 0.252,0.627 1.086,1.045 1.756,0.963 C 1.504,25.931 2.008,25.386 2.049,24.675 2.384,16.73 2.759,8.072 3.094,0.126 3.094,-0.669 2.466,-1.382 1.673,-1.465 H 1.545 C 0.752,-1.465 0.041,-0.795 0,0"
             style="fill:#03acbc;fill-opacity:1;fill-rule:nonzero;stroke:none"
             id="path2327"
             inkscape:connector-curvature="0" /></g><g
           id="g2329"
           transform="translate(506.2607,336.8086)"><path
             d="m 0,0 v 16.02 c 0,0.918 0.628,1.546 1.55,1.546 0.838,0 1.549,-0.628 1.549,-1.546 V 0 c 0,-6.105 3.304,-6.944 6.605,-6.944 3.263,0 6.65,0.839 6.65,6.944 v 16.02 c 0,0.918 0.669,1.546 1.549,1.546 0.835,0 1.549,-0.628 1.549,-1.546 V 0 c 0,-9.997 -7.319,-10.038 -9.748,-10.038 C 7.279,-10.038 0,-9.997 0,0"
             style="fill:#03acbc;fill-opacity:1;fill-rule:nonzero;stroke:none"
             id="path2331"
             inkscape:connector-curvature="0" /></g><g
           id="g2333"
           transform="translate(558.9941,327.3984)"><path
             d="M 0,0 -12.128,19.991 V 0.919 c 0,-0.836 -0.711,-1.547 -1.55,-1.547 -0.875,0 -1.503,0.711 -1.503,1.547 V 25.43 c 0,0.71 0.459,1.297 1.128,1.462 h -0.083 c 0.628,0.252 1.421,-0.124 1.797,-0.669 C -7.944,18.987 -4.768,13.76 -0.293,6.44 v 18.99 c 0,0.918 0.628,1.547 1.548,1.547 0.84,0 1.509,-0.629 1.509,-1.547 V 0.919 c 0,-0.626 -0.504,-1.294 -1.297,-1.505 0,0 -0.088,-0.042 -0.129,-0.042 H 1.255 C 0.756,-0.628 0.252,-0.334 0,0"
             style="fill:#03acbc;fill-opacity:1;fill-rule:nonzero;stroke:none"
             id="path2335"
             inkscape:connector-curvature="0" /></g><g
           id="g2337"
           transform="translate(592.8662,340.4482)"><path
             d="M 0,0 C -0.963,2.844 -1.422,4.308 -2.513,7.528 -3.347,4.977 -4.057,2.8 -4.937,0 Z m 6.943,-11.628 c 0.376,-0.92 -0.463,-2.05 -1.379,-2.05 -0.669,0 -1.338,0.418 -1.467,1.087 v -0.042 c -1.126,3.387 -2.048,6.191 -3.176,9.58 H -5.94 c -0.963,-3.137 -2.132,-6.442 -3.094,-9.58 -0.294,-0.71 -1.215,-1.211 -1.926,-0.962 -0.793,0.252 -1.256,1.13 -1.003,1.925 l 7.989,24.551 c 0.252,0.711 0.792,1.087 1.461,1.087 0.628,0 1.297,-0.418 1.468,-1.087 C 1.59,4.725 4.268,-3.514 6.943,-11.628 v 0.041 -0.041 c 0,-0.042 0.041,-0.042 0.041,-0.042 z"
             style="fill:#03acbc;fill-opacity:1;fill-rule:nonzero;stroke:none"
             id="path2339"
             inkscape:connector-curvature="0" /></g><g
           id="g2341"
           transform="translate(616.7822,336.8086)"><path
             d="m 0,0 v 16.02 c 0,0.918 0.629,1.546 1.55,1.546 0.834,0 1.544,-0.628 1.544,-1.546 L 3.094,0 c 0,-6.105 3.305,-6.944 6.61,-6.944 3.263,0 6.65,0.839 6.65,6.944 v 16.02 c 0,0.918 0.669,1.546 1.545,1.546 0.839,0 1.549,-0.628 1.549,-1.546 V 0 c 0,-9.997 -7.32,-10.038 -9.744,-10.038 C 7.279,-10.038 0,-9.997 0,0"
             style="fill:#03acbc;fill-opacity:1;fill-rule:nonzero;stroke:none"
             id="path2343"
             inkscape:connector-curvature="0" /></g><g
           id="g2345"
           transform="translate(671.6465,352.8281)"><path
             d="M 0,0 C 0,-0.836 -0.628,-1.549 -1.544,-1.549 H -8.616 V -24.51 c 0,-0.92 -0.71,-1.548 -1.544,-1.548 -0.922,0 -1.55,0.628 -1.55,1.548 v 22.961 h -7.109 c -0.793,0 -1.509,0.713 -1.509,1.549 0,0.918 0.716,1.547 1.509,1.547 H -1.544 C -0.628,1.547 0,0.918 0,0"
             style="fill:#03acbc;fill-opacity:1;fill-rule:nonzero;stroke:none"
             id="path2347"
             inkscape:connector-curvature="0" /></g><g
           id="g2349"
           transform="translate(697.9883,361.6094)"><path
             d="M 0,0 C 0.669,-0.375 0.963,-1.211 0.669,-1.966 L -1.256,-6.23 c -0.206,-0.585 -0.793,-0.878 -1.338,-0.878 -1.045,0 -1.838,0.919 -1.339,2.09 l 1.967,4.308 -0.041,-0.041 c 0.21,0.668 1.214,1.045 1.966,0.751 z m 6.316,-33.292 c 0,-0.836 -0.67,-1.547 -1.504,-1.547 H -9.287 c -0.916,0 -1.544,0.711 -1.544,1.547 v 24.511 c 0,0.918 0.628,1.547 1.544,1.547 H 4.812 c 0.834,0 1.504,-0.629 1.504,-1.547 0,-0.837 -0.67,-1.55 -1.504,-1.55 h -12.59 v -8.365 H 3.934 c 0.834,0 1.547,-0.625 1.547,-1.547 0,-0.836 -0.713,-1.547 -1.547,-1.547 H -7.778 v -9.955 h 12.59 c 0.834,0 1.504,-0.669 1.504,-1.547"
             style="fill:#03acbc;fill-opacity:1;fill-rule:nonzero;stroke:none"
             id="path2351"
             inkscape:connector-curvature="0" /></g><g
           id="g2353"
           transform="translate(344.7524,294.7002)"><path
             d="m 0,0 c -0.678,0 -1.141,0.524 -1.141,1.141 v 18.088 c 0,0.679 0.463,1.142 1.141,1.142 0.618,0 1.143,-0.463 1.143,-1.142 V 2.285 H 9.878 C 10.495,2.285 11.02,1.79 11.02,1.141 11.02,0.524 10.495,0 9.878,0 Z"
             style="fill:#584d3a;fill-opacity:1;fill-rule:nonzero;stroke:none"
             id="path2355"
             inkscape:connector-curvature="0" /></g><g
           id="g2357"
           transform="translate(368.8345,297.9727)"><path
             d="m 0,0 v 3.208 c -0.524,0.095 -1.234,0.218 -1.945,0.248 h -0.709 c -1.389,0 -2.377,-0.248 -2.932,-0.71 h 0.03 c -0.34,-0.34 -0.463,-0.708 -0.463,-1.295 0,-1.112 0.433,-1.822 1.297,-2.223 0.431,-0.186 1.08,-0.277 1.667,-0.277 1.11,0 2.19,0.306 2.84,0.801 z m 1.111,-3.272 c -0.463,0 -0.863,0.277 -1.018,0.677 -0.958,-0.43 -2.038,-0.677 -3.148,-0.677 -0.896,0 -1.791,0.185 -2.563,0.495 -1.76,0.739 -2.623,2.158 -2.623,4.228 0,1.233 0.401,2.191 1.173,2.901 0.926,0.864 2.408,1.327 4.414,1.327 0.278,0 0.618,0 0.895,-0.032 C -1.111,5.617 -0.494,5.555 0,5.494 v 0.309 c 0,0.893 -0.154,1.48 -0.524,1.852 -0.402,0.463 -1.204,0.648 -2.378,0.648 -1.049,0 -1.975,-0.124 -2.684,-0.371 -0.556,-0.247 -1.174,0.094 -1.452,0.678 -0.154,0.525 0.123,1.112 0.648,1.359 0.988,0.371 2.161,0.557 3.488,0.557 1.76,0 3.088,-0.465 3.951,-1.329 C 1.852,8.395 2.223,7.253 2.223,5.803 v -7.964 c 0,-0.587 -0.464,-1.111 -1.112,-1.111"
             style="fill:#584d3a;fill-opacity:1;fill-rule:nonzero;stroke:none"
             id="path2359"
             inkscape:connector-curvature="0" /></g><g
           id="g2361"
           transform="translate(387.3623,303.3423)"><path
             d="m 0,0 v -7.531 c 0,-0.648 -0.464,-1.111 -1.083,-1.111 -0.648,0 -1.079,0.463 -1.079,1.111 V 0 c 0,0.988 -0.217,1.76 -0.648,2.193 -0.401,0.493 -1.235,0.741 -2.439,0.741 -1.235,0 -2.254,-0.218 -3.148,-0.681 v -9.784 c 0,-0.648 -0.525,-1.111 -1.112,-1.111 -0.647,0 -1.11,0.463 -1.11,1.111 V 4.045 c 0,0.587 0.463,1.112 1.11,1.112 0.403,0 0.74,-0.219 0.926,-0.525 0.988,0.339 2.099,0.525 3.334,0.525 1.852,0 3.241,-0.525 4.104,-1.484 C -0.404,2.872 0,1.574 0,0"
             style="fill:#584d3a;fill-opacity:1;fill-rule:nonzero;stroke:none"
             id="path2363"
             inkscape:connector-curvature="0" /></g><g
           id="g2365"
           transform="translate(403.1094,303.3423)"><path
             d="m 0,0 v -7.531 c 0,-0.648 -0.463,-1.111 -1.082,-1.111 -0.646,0 -1.081,0.463 -1.081,1.111 V 0 c 0,0.988 -0.215,1.76 -0.647,2.193 -0.402,0.493 -1.233,0.741 -2.438,0.741 -1.232,0 -2.255,-0.218 -3.149,-0.681 v -9.784 c 0,-0.648 -0.523,-1.111 -1.11,-1.111 -0.649,0 -1.112,0.463 -1.112,1.111 V 4.045 c 0,0.587 0.463,1.112 1.112,1.112 0.401,0 0.74,-0.219 0.926,-0.525 0.987,0.339 2.101,0.525 3.333,0.525 1.852,0 3.241,-0.525 4.107,-1.484 C -0.403,2.872 0,1.574 0,0"
             style="fill:#584d3a;fill-opacity:1;fill-rule:nonzero;stroke:none"
             id="path2367"
             inkscape:connector-curvature="0" /></g><g
           id="g2369"
           transform="translate(417.6528,294.7002)"><path
             d="M 0,0 C -0.43,0 -0.77,0.215 -0.958,0.524 -1.943,0.186 -3.057,0 -4.258,0 -6.109,0 -7.471,0.495 -8.365,1.48 V 1.45 c -0.769,0.803 -1.173,2.099 -1.173,3.704 v 7.533 c 0,0.587 0.527,1.112 1.109,1.112 0.587,0 1.114,-0.525 1.114,-1.112 V 5.154 c 0,-1.05 0.183,-1.79 0.586,-2.22 0.463,-0.463 1.266,-0.711 2.471,-0.711 1.233,0 2.282,0.186 3.176,0.649 v 9.815 c 0,0.587 0.436,1.112 1.082,1.112 0.619,0 1.109,-0.525 1.109,-1.112 V 1.111 C 1.109,0.463 0.619,0 0,0"
             style="fill:#584d3a;fill-opacity:1;fill-rule:nonzero;stroke:none"
             id="path2371"
             inkscape:connector-curvature="0" /></g><g
           id="g2373"
           transform="translate(425.9307,303.3745)"><path
             d="m 0,0 v -3.55 c 0,-2.533 1.416,-2.901 2.993,-2.901 1.544,0 2.993,0.368 2.993,2.901 V 0 C 5.986,2.53 4.537,2.901 2.993,2.901 1.416,2.901 0,2.53 0,0 M -2.19,-3.55 V 0 c 0,5.125 3.886,5.125 5.183,5.125 1.297,0 5.184,0 5.184,-5.125 v -3.55 c 0,-5.095 -3.887,-5.124 -5.184,-5.124 -1.297,0 -5.183,0 -5.183,5.124"
             style="fill:#584d3a;fill-opacity:1;fill-rule:nonzero;stroke:none"
             id="path2375"
             inkscape:connector-curvature="0" /></g><g
           id="g2377"
           transform="translate(450.4111,303.3423)"><path
             d="m 0,0 v -7.531 c 0,-0.648 -0.463,-1.111 -1.077,-1.111 -0.651,0 -1.081,0.463 -1.081,1.111 V 0 c 0,0.988 -0.216,1.76 -0.652,2.193 -0.398,0.493 -1.233,0.741 -2.438,0.741 -1.232,0 -2.251,-0.218 -3.145,-0.681 v -9.784 c 0,-0.648 -0.526,-1.111 -1.114,-1.111 -0.645,0 -1.108,0.463 -1.108,1.111 V 4.045 c 0,0.587 0.463,1.112 1.108,1.112 0.404,0 0.743,-0.219 0.927,-0.525 0.99,0.339 2.1,0.525 3.332,0.525 1.852,0 3.245,-0.525 4.106,-1.484 C -0.398,2.872 0,1.574 0,0"
             style="fill:#584d3a;fill-opacity:1;fill-rule:nonzero;stroke:none"
             id="path2379"
             inkscape:connector-curvature="0" /></g><g
           id="g2381"
           transform="translate(464.6475,303.127)"><path
             d="m 0,0 c 0,-0.679 -0.495,-1.112 -1.109,-1.112 h -7.008 c -0.619,0 -1.142,0.433 -1.142,1.112 0,0.616 0.523,1.111 1.142,1.111 h 7.008 C -0.495,1.111 0,0.616 0,0"
             style="fill:#584d3a;fill-opacity:1;fill-rule:nonzero;stroke:none"
             id="path2383"
             inkscape:connector-curvature="0" /></g><g
           id="g2385"
           transform="translate(483.0498,313.9297)"><path
             d="m 0,0 c 0,-0.616 -0.462,-1.141 -1.141,-1.141 h -5.22 v -16.948 c 0,-0.678 -0.523,-1.14 -1.142,-1.14 -0.678,0 -1.142,0.462 -1.142,1.14 v 16.948 h -5.248 c -0.586,0 -1.109,0.525 -1.109,1.141 0,0.679 0.523,1.142 1.109,1.142 H -1.141 C -0.462,1.142 0,0.679 0,0"
             style="fill:#584d3a;fill-opacity:1;fill-rule:nonzero;stroke:none"
             id="path2387"
             inkscape:connector-curvature="0" /></g><g
           id="g2389"
           transform="translate(493.5508,307.3555)"><path
             d="m 0,0 c 0,-0.587 -0.526,-1.08 -1.114,-1.08 h -0.307 c -1.297,0 -2.282,-0.185 -3.181,-0.68 v -9.784 c 0,-0.648 -0.462,-1.111 -1.109,-1.111 -0.586,0 -1.113,0.463 -1.113,1.111 V 0.032 c 0,0.587 0.527,1.112 1.113,1.112 0.431,0 0.771,-0.219 0.958,-0.525 0.985,0.339 2.067,0.525 3.332,0.525 h 0.403 C -0.463,1.082 0,0.619 0,0"
             style="fill:#584d3a;fill-opacity:1;fill-rule:nonzero;stroke:none"
             id="path2391"
             inkscape:connector-curvature="0" /></g><g
           id="g2393"
           transform="translate(505.4678,303.3423)"><path
             d="M 0,0 C 0,0.958 -0.247,1.73 -0.587,2.193 -1.081,2.624 -1.976,2.934 -3.181,2.934 -4.29,2.901 -5,2.624 -5.432,2.193 h 0.033 C -5.834,1.76 -6.019,1.049 -6.019,0.032 V -0.401 H 0 Z m 2.224,0 v -1.513 c 0,-0.586 -0.528,-1.079 -1.11,-1.079 h -7.133 v -0.926 c 0,-1.02 0.185,-1.728 0.62,-2.161 h -0.033 c 0.464,-0.492 1.326,-0.74 2.595,-0.74 1.169,0 2.159,0.153 2.929,0.431 0.559,0.247 1.174,0 1.453,-0.616 0.216,-0.558 -0.065,-1.204 -0.679,-1.452 -1.022,-0.401 -2.222,-0.586 -3.703,-0.586 -1.824,0 -3.272,0.524 -4.198,1.48 -0.775,0.834 -1.205,2.069 -1.205,3.644 v 3.55 c 0,1.604 0.43,2.84 1.205,3.674 0.829,0.894 2.126,1.356 3.795,1.451 1.916,0 3.364,-0.525 4.23,-1.513 C 1.819,2.81 2.224,1.574 2.224,0"
             style="fill:#584d3a;fill-opacity:1;fill-rule:nonzero;stroke:none"
             id="path2395"
             inkscape:connector-curvature="0" /></g><g
           id="g2397"
           transform="translate(521.5518,297.3242)"><path
             d="m 0,0 v 0.31 h 0.064 0.027 c -0.027,0 0,0.059 0.124,0.153 z m 0,0.31 v 7.901 l -0.184,0.06 c -0.866,0.463 -1.943,0.648 -3.272,0.648 -1.329,0 -2.159,-0.245 -2.654,-0.74 h 0.032 C -6.514,7.748 -6.696,7.038 -6.696,6.018 V 2.5 c 0,-1.02 0.182,-1.728 0.618,-2.161 H -6.11 c 0.495,-0.492 1.325,-0.74 2.654,-0.74 1.297,0 2.379,0.215 3.332,0.678 z m 2.19,9.753 V -1.112 c 0,-4.877 -3.208,-8.026 -8.085,-8.026 -0.646,0 -1.109,0.463 -1.109,1.112 0,0.587 0.463,1.08 1.109,1.08 3.332,0 5.496,1.792 5.835,4.846 -1.017,-0.338 -2.191,-0.524 -3.396,-0.524 -1.884,0 -3.333,0.524 -4.231,1.48 -0.802,0.834 -1.233,2.1 -1.233,3.644 v 3.518 c 0,1.544 0.431,2.81 1.233,3.644 0.898,0.988 2.347,1.481 4.231,1.481 1.329,0 2.471,-0.216 3.547,-0.587 0.188,0.371 0.587,0.619 0.99,0.619 0.619,0 1.109,-0.525 1.109,-1.112"
             style="fill:#584d3a;fill-opacity:1;fill-rule:nonzero;stroke:none"
             id="path2399"
             inkscape:connector-curvature="0" /></g><g
           id="g2401"
           transform="translate(536.6816,303.3423)"><path
             d="M 0,0 C 0,0.958 -0.247,1.73 -0.586,2.193 -1.081,2.624 -1.977,2.934 -3.182,2.934 -4.29,2.901 -5,2.624 -5.433,2.193 H -5.4 C -5.834,1.76 -6.019,1.049 -6.019,0.032 V -0.401 H 0 Z m 2.223,0 v -1.513 c 0,-0.586 -0.528,-1.079 -1.109,-1.079 h -7.133 v -0.926 c 0,-1.02 0.185,-1.728 0.619,-2.161 h -0.033 c 0.465,-0.492 1.326,-0.74 2.596,-0.74 1.169,0 2.159,0.153 2.929,0.431 0.559,0.247 1.173,0 1.453,-0.616 0.215,-0.558 -0.065,-1.204 -0.679,-1.452 -1.022,-0.401 -2.223,-0.586 -3.703,-0.586 -1.824,0 -3.273,0.524 -4.199,1.48 -0.775,0.834 -1.205,2.069 -1.205,3.644 v 3.55 c 0,1.604 0.43,2.84 1.205,3.674 0.83,0.894 2.127,1.356 3.796,1.451 1.915,0 3.364,-0.525 4.23,-1.513 C 1.819,2.81 2.223,1.574 2.223,0"
             style="fill:#584d3a;fill-opacity:1;fill-rule:nonzero;stroke:none"
             id="path2403"
             inkscape:connector-curvature="0" /></g><g
           id="g2405"
           transform="translate(551.3174,307.3555)"><path
             d="m 0,0 c 0,-0.587 -0.523,-1.08 -1.11,-1.08 h -0.312 c -1.292,0 -2.282,-0.185 -3.177,-0.68 v -9.784 c 0,-0.648 -0.463,-1.111 -1.113,-1.111 -0.587,0 -1.109,0.463 -1.109,1.111 V 0.032 c 0,0.587 0.522,1.112 1.109,1.112 0.436,0 0.775,-0.219 0.959,-0.525 0.989,0.339 2.066,0.525 3.331,0.525 h 0.403 C -0.463,1.082 0,0.619 0,0"
             style="fill:#584d3a;fill-opacity:1;fill-rule:nonzero;stroke:none"
             id="path2407"
             inkscape:connector-curvature="0" /></g><g
           id="g2409"
           transform="translate(578.5791,296.4902)"><path
             d="m 0,0 c 0.339,-0.493 0.248,-1.236 -0.279,-1.575 v 0.032 c -0.184,-0.186 -0.399,-0.247 -0.647,-0.247 -0.339,0 -0.678,0.186 -0.898,0.463 L -8.488,7.84 h -2.842 v -8.489 c 0,-0.617 -0.524,-1.141 -1.109,-1.141 -0.679,0 -1.142,0.524 -1.142,1.141 v 18.088 c 0,0.679 0.463,1.142 1.142,1.142 0.585,0 1.109,-0.463 1.109,-1.142 v -7.314 h 2.9 c 2.133,2.408 4.538,5.092 6.67,7.5 0.399,0.432 1.109,0.525 1.604,0.124 0.495,-0.433 0.495,-1.144 0.064,-1.606 L -6.48,8.89 Z"
             style="fill:#584d3a;fill-opacity:1;fill-rule:nonzero;stroke:none"
             id="path2411"
             inkscape:connector-curvature="0" /></g><g
           id="g2413"
           transform="translate(593.2471,294.7002)"><path
             d="M 0,0 C -0.433,0 -0.771,0.215 -0.958,0.524 -1.944,0.186 -3.058,0 -4.259,0 -6.11,0 -7.472,0.495 -8.365,1.48 V 1.45 c -0.77,0.803 -1.173,2.099 -1.173,3.704 v 7.533 c 0,0.587 0.527,1.112 1.108,1.112 0.586,0 1.114,-0.525 1.114,-1.112 V 5.154 c 0,-1.05 0.183,-1.79 0.587,-2.22 0.462,-0.463 1.265,-0.711 2.47,-0.711 1.233,0 2.282,0.186 3.177,0.649 v 9.815 c 0,0.587 0.435,1.112 1.082,1.112 0.618,0 1.108,-0.525 1.108,-1.112 V 1.111 C 1.108,0.463 0.618,0 0,0"
             style="fill:#584d3a;fill-opacity:1;fill-rule:nonzero;stroke:none"
             id="path2415"
             inkscape:connector-curvature="0" /></g><g
           id="g2417"
           transform="translate(617.0166,303.9609)"><path
             d="m 0,0 v -8.149 c 0,-0.649 -0.523,-1.112 -1.11,-1.112 -0.651,0 -1.114,0.463 -1.114,1.112 V 0 c 0,0.864 -0.15,1.419 -0.49,1.758 -0.435,0.495 -1.14,0.68 -2.007,0.618 h 0.032 C -5.248,2.283 -6.514,1.604 -7.343,1.018 -7.283,0.708 -7.283,0.431 -7.283,0 v -8.149 c 0,-0.649 -0.523,-1.112 -1.142,-1.112 -0.586,0 -1.113,0.463 -1.113,1.112 V 0 c 0,0.832 -0.124,1.419 -0.463,1.758 -0.432,0.495 -1.143,0.68 -2.035,0.618 -0.619,-0.093 -1.729,-0.772 -2.563,-1.326 v -9.199 c 0,-0.587 -0.463,-1.112 -1.109,-1.112 -0.586,0 -1.113,0.525 -1.113,1.112 V 3.457 c 0,0.586 0.527,1.081 1.113,1.081 0.582,0 0.985,-0.404 1.076,-0.896 0.804,0.401 1.67,0.802 2.412,0.896 1.481,0.121 2.961,-0.433 3.795,-1.236 0.033,0 0.124,-0.062 0.216,-0.215 0.894,0.584 2.281,1.357 3.332,1.451 1.485,0.121 2.9,-0.371 3.767,-1.236 C -0.367,2.53 0,1.419 0,0"
             style="fill:#584d3a;fill-opacity:1;fill-rule:nonzero;stroke:none"
             id="path2419"
             inkscape:connector-curvature="0" /></g><g
           id="g2421"
           transform="translate(631.9629,294.7002)"><path
             d="M 0,0 C -0.431,0 -0.77,0.215 -0.953,0.524 -1.943,0.186 -3.053,0 -4.258,0 -6.109,0 -7.467,0.495 -8.364,1.48 V 1.45 c -0.771,0.803 -1.169,2.099 -1.169,3.704 v 7.533 c 0,0.587 0.522,1.112 1.108,1.112 0.587,0 1.111,-0.525 1.111,-1.112 V 5.154 c 0,-1.05 0.187,-1.79 0.585,-2.22 0.463,-0.463 1.265,-0.711 2.471,-0.711 1.234,0 2.282,0.186 3.181,0.649 v 9.815 c 0,0.587 0.431,1.112 1.077,1.112 0.618,0 1.113,-0.525 1.113,-1.112 V 1.111 C 1.113,0.463 0.618,0 0,0"
             style="fill:#584d3a;fill-opacity:1;fill-rule:nonzero;stroke:none"
             id="path2423"
             inkscape:connector-curvature="0" /></g><g
           id="g2425"
           transform="translate(649.4121,303.3423)"><path
             d="m 0,0 v -7.531 c 0,-0.648 -0.463,-1.111 -1.082,-1.111 -0.646,0 -1.081,0.463 -1.081,1.111 V 0 c 0,0.988 -0.216,1.76 -0.646,2.193 -0.404,0.493 -1.234,0.741 -2.439,0.741 -1.232,0 -2.255,-0.218 -3.148,-0.681 v -9.784 c 0,-0.648 -0.524,-1.111 -1.11,-1.111 -0.651,0 -1.114,0.463 -1.114,1.111 V 4.045 c 0,0.587 0.463,1.112 1.114,1.112 0.4,0 0.738,-0.219 0.926,-0.525 0.986,0.339 2.1,0.525 3.332,0.525 1.852,0 3.241,-0.525 4.107,-1.484 C -0.403,2.872 0,1.574 0,0"
             style="fill:#584d3a;fill-opacity:1;fill-rule:nonzero;stroke:none"
             id="path2427"
             inkscape:connector-curvature="0" /></g><g
           id="g2429"
           transform="translate(657.4111,307.3872)"><path
             d="m 0,0 v -11.576 c 0,-0.648 -0.436,-1.111 -1.114,-1.111 -0.586,0 -1.049,0.463 -1.049,1.111 V 0 c 0,0.587 0.463,1.112 1.049,1.112 C -0.436,1.112 0,0.587 0,0 m 0.247,4.196 c 0,-0.74 -0.618,-1.356 -1.361,-1.356 -0.71,0 -1.325,0.616 -1.325,1.356 0,0.743 0.615,1.329 1.325,1.329 0.743,0 1.361,-0.586 1.361,-1.329"
             style="fill:#584d3a;fill-opacity:1;fill-rule:nonzero;stroke:none"
             id="path2431"
             inkscape:connector-curvature="0" /></g><g
           id="g2433"
           transform="translate(670.377,303.3423)"><path
             d="M 0,0 C 0,0.958 -0.248,1.73 -0.587,2.193 -1.082,2.624 -1.975,2.934 -3.181,2.934 -4.29,2.901 -5.001,2.624 -5.432,2.193 h 0.034 C -5.835,1.76 -6.018,1.049 -6.018,0.032 V -0.401 H 0 Z m 2.224,0 v -1.513 c 0,-0.586 -0.528,-1.079 -1.111,-1.079 h -7.131 v -0.926 c 0,-1.02 0.183,-1.728 0.62,-2.161 h -0.034 c 0.463,-0.492 1.327,-0.74 2.594,-0.74 1.17,0 2.16,0.153 2.93,0.431 0.558,0.247 1.174,0 1.454,-0.616 0.215,-0.558 -0.065,-1.204 -0.68,-1.452 -1.022,-0.401 -2.222,-0.586 -3.704,-0.586 -1.823,0 -3.271,0.524 -4.197,1.48 -0.775,0.834 -1.206,2.069 -1.206,3.644 v 3.55 c 0,1.604 0.431,2.84 1.206,3.674 0.829,0.894 2.126,1.356 3.796,1.451 1.915,0 3.363,-0.525 4.229,-1.513 C 1.82,2.81 2.224,1.574 2.224,0"
             style="fill:#584d3a;fill-opacity:1;fill-rule:nonzero;stroke:none"
             id="path2435"
             inkscape:connector-curvature="0" /></g><g
           id="g2437"
           transform="translate(678.6875,294.7002)"><path
             d="m 0,0 c -0.436,0 -0.742,0.215 -0.99,0.524 -0.152,0.339 -0.093,0.864 0.031,1.174 2.256,3.426 4.199,6.42 6.481,9.878 h -5 c -0.586,0 -1.082,0.524 -1.082,1.111 0,0.587 0.496,1.112 1.082,1.112 h 7.04 c 0.4,0 0.739,-0.186 0.925,-0.525 0.248,-0.403 0.185,-0.804 0,-1.174 L 2.034,2.223 H 8.086 C 8.735,2.223 9.199,1.698 9.199,1.111 9.199,0.463 8.735,0 8.086,0 Z"
             style="fill:#584d3a;fill-opacity:1;fill-rule:nonzero;stroke:none"
             id="path2439"
             inkscape:connector-curvature="0" /></g><g
           id="g2441"
           transform="translate(703.0713,307.0479)"><path
             d="m 0,0 c 0.742,-0.804 1.146,-2.099 1.146,-3.706 v -7.53 c 0,-0.649 -0.495,-1.112 -1.114,-1.112 -0.645,0 -1.082,0.463 -1.082,1.112 v 7.53 c 0,1.02 -0.215,1.79 -0.614,2.224 -0.435,0.462 -1.265,0.71 -2.47,0.71 -1.232,0 -2.255,-0.218 -3.149,-0.681 v -9.783 c 0,-0.649 -0.463,-1.112 -1.11,-1.112 -0.586,0 -1.113,0.463 -1.113,1.112 V 6.233 c 0,0.587 0.527,1.112 1.113,1.112 0.647,0 1.11,-0.525 1.11,-1.112 V 0.956 c 0.927,0.309 2.008,0.495 3.149,0.495 1.883,0 3.24,-0.525 4.134,-1.483 z"
             style="fill:#584d3a;fill-opacity:1;fill-rule:nonzero;stroke:none"
             id="path2443"
             inkscape:connector-curvature="0" /></g></g></g><g
       id="g2445"><g
         id="g2447"
         clip-path="url(#clipPath2451)"><g
           id="g2453"><g
             id="g2455"><path
               d="m 178.536,401.715 c -18.496,5.972 -36.598,16.65 -61.816,16.186 v 0 c -10.1,-0.192 -19.232,-2.522 -25.82,-5.978 v 0 c -5.485,-2.892 -10.461,-11.76 -2.55,-15.019 v 0 c 5.437,-2.229 11.3,-1.041 19.016,0.144 v 0 c 4.667,0.714 10.018,1.433 16.364,1.395 v 0 c 23.392,-0.144 35.112,-9.229 54.681,-11.876 v 0 c 34.037,-4.593 74.314,0.784 82.917,34.402 v 0 c -27.534,-33.552 -70.234,-23.308 -82.792,-19.254"
               style="fill:url(#linearGradient2467);stroke:none"
               id="path2469"
               inkscape:connector-curvature="0" /></g></g></g></g><g
       id="g2471"><g
         id="g2473"
         clip-path="url(#clipPath2477)"><g
           id="g2479"><g
             id="g2481"><path
               d="m 189.256,371.221 c -21.882,4.524 -46.078,15.655 -71.788,15.18 v 0 c -10.3,-0.187 -19.602,-2.563 -26.321,-6.091 v 0 c -5.59,-2.949 -10.661,-11.988 -2.598,-15.308 v 0 c 5.542,-2.28 11.518,-1.071 19.382,0.141 v 0 c 4.76,0.734 10.21,1.465 16.677,1.428 v 0 c 26.196,-0.156 49.917,-7.553 65.206,-9.467 v 0 c 32.043,-4.003 62.341,12.813 70.733,34.938 v 0 c -20.025,-17.62 -48.063,-25.627 -71.291,-20.821"
               style="fill:url(#linearGradient2491);stroke:none"
               id="path2493"
               inkscape:connector-curvature="0" /></g></g></g></g></g></svg>