<?xml version="1.0" encoding="UTF-8" standalone="no"?>
<!-- Created with Inkscape (http://www.inkscape.org/) -->

<svg
   xmlns:dc="http://purl.org/dc/elements/1.1/"
   xmlns:cc="http://creativecommons.org/ns#"
   xmlns:rdf="http://www.w3.org/1999/02/22-rdf-syntax-ns#"
   xmlns:svg="http://www.w3.org/2000/svg"
   xmlns="http://www.w3.org/2000/svg"
   xmlns:sodipodi="http://sodipodi.sourceforge.net/DTD/sodipodi-0.dtd"
   xmlns:inkscape="http://www.inkscape.org/namespaces/inkscape"
   id="svg8"
   version="1.1"
   viewBox="0 0 127 127.00001"
   height="480"
   width="480"
   inkscape:version="0.91 r13725"
   sodipodi:docname="Logo_avalon.svg"
   inkscape:export-filename="/home/Jean-Francois.Le-Foll/Images/avalon_v2.png"
   inkscape:export-xdpi="90"
   inkscape:export-ydpi="90">
  <sodipodi:namedview
     pagecolor="#ffffff"
     bordercolor="#666666"
     borderopacity="1"
     objecttolerance="10"
     gridtolerance="10"
     guidetolerance="10"
     inkscape:pageopacity="0"
     inkscape:pageshadow="2"
     inkscape:window-width="1536"
     inkscape:window-height="806"
     id="namedview9"
     showgrid="false"
     inkscape:zoom="0.834386"
     inkscape:cx="-86.278341"
     inkscape:cy="243.64444"
     inkscape:window-x="75"
     inkscape:window-y="34"
     inkscape:window-maximized="0"
     inkscape:current-layer="svg8" />
  <defs
     id="defs2" />
  <metadata
     id="metadata5">
    <rdf:RDF>
      <cc:Work
         rdf:about="">
        <dc:format>image/svg+xml</dc:format>
        <dc:type
           rdf:resource="http://purl.org/dc/dcmitype/StillImage" />
        <dc:title />
      </cc:Work>
    </rdf:RDF>
  </metadata>
  <g
     id="g4185">
    <g
       transform="matrix(1.185964,0,0,1.185964,0.74273943,-227.79125)"
       id="layer1">
      <path
         d="m 42.912397,220.15478 9.1159,0 m -9.1159,-7.97691 9.1159,0 m -9.1159,-7.43625 9.1159,0 m 28.142289,65.90487 -19.149339,-39.18329 0,-34.5625 -18.108809,0 0,34.57151 -19.039022,39.54223 c -0.411273,0.85682 -0.825276,1.71597 -1.204152,2.54711 -0.477658,1.04774 -0.912568,2.06179 -1.262305,3.00814 -0.174827,0.47313 -0.328464,0.92952 -0.455408,1.36467 -0.126739,0.43516 -0.227398,0.84924 -0.295453,1.23794 -0.06846,0.38877 -0.104735,0.75184 -0.10392,1.0856 10e-4,0.33376 0.04075,0.63814 0.119812,0.90853 0.0811,0.2706 0.20417,0.50684 0.365141,0.71386 0.160565,0.20702 0.359029,0.3843 0.588955,0.53647 0.229842,0.152 0.492003,0.27874 0.780612,0.38429 0.288527,0.10555 0.603868,0.19032 0.940442,0.25756 0.673107,0.13529 1.431387,0.20294 2.232375,0.23677 0.800947,0.0326 1.644603,0.0326 2.488177,0.0326 l 23.899192,0 25.559485,0 m 0,0 c 2.869538,-0.0367 5.462244,-0.28934 6.020756,-2.15698 0.632355,-2.11485 -1.343443,-6.29788 -3.376497,-10.52598"
         style="display:inline;fill:none;stroke:#003459;stroke-width:3.17499995;stroke-linecap:round;stroke-linejoin:round;stroke-miterlimit:4;stroke-dasharray:none;stroke-opacity:1"
         id="path843"
         inkscape:connector-curvature="0" />
      <path
         d="m 49.758204,243.98187 a 4.8577819,4.8577819 0 0 1 4.857782,-4.85778 4.8577819,4.8577819 0 0 1 4.857782,4.85778 l -4.857782,0 z m -0.04661,27.40187 1.265568,-18.72145 7.259283,-0.0214 1.337262,19.70044 -9.766641,0.0214 z"
         style="fill:none;fill-opacity:1;fill-rule:evenodd;stroke:#003459;stroke-width:0.75800002;stroke-miterlimit:4;stroke-dasharray:none;stroke-opacity:1"
         id="path1442"
         inkscape:connector-curvature="0" />
      <path
         d="m 26.924394,279.29437 4.618381,-3.02906 1.763281,-0.69162 3.715277,-3.756 1.479796,-3.38239 3.620217,1.74405 1.519536,-1.43488 5.615197,1.69912 2.131777,0.50213 7.539748,4.14866 5.13346,0.0849 8.578466,4.1004 z m 33.004462,-32.79926 4.32,-2.34306 0,4.13695 z m -10.679078,-0.0662 -4.320054,-2.34309 0,4.137 z m 1.320777,-2.41849 -0.02067,4.15686 -1.413867,0 0,4.89117 11.005013,0 0,-4.89117 -1.629876,0 -0.06873,-4.15686 z m -0.211873,5.37952 1.222664,0 0,2.44584 -1.222664,0 z m 2.44533,0 1.223182,0 0,2.44584 -1.223182,0 z m 2.445845,0 1.222663,0 0,2.44584 -1.222663,0 z m 2.445329,0 1.222664,0 0,2.44584 -1.222664,0 z m -9.812202,22.0099 13.588085,0 0,3.80156 -13.588085,0 z m 3.053773,-13.4491 7.354849,0.0143 0.34614,4.82419 -8.047637,-0.006 z m -0.886694,9.79289 9.062612,-0.006 0.258813,3.85781 -9.58544,10e-4 z"
         style="fill:#003459;fill-opacity:1;stroke:none;stroke-width:0.26458332px;stroke-linecap:butt;stroke-linejoin:miter;stroke-opacity:1"
         id="path1454"
         inkscape:connector-curvature="0" />
    </g>
    <path
       d="m 15.466863,119.36629 0,-1.2928 4.869964,-2.35968 0.627572,1.30536 -3.526958,1.70699 3.514407,1.7321 -0.640124,1.2928 -4.844861,-2.38477 z"
       style="font-style:normal;font-variant:normal;font-weight:normal;font-stretch:normal;font-size:medium;line-height:125%;font-family:'Jaapokki subtract';-inkscape-font-specification:'Jaapokki subtract';letter-spacing:0px;word-spacing:0px;fill:#003459;fill-opacity:1;stroke:none;stroke-width:1px;stroke-linecap:butt;stroke-linejoin:miter;stroke-opacity:1"
       id="path4146"
       inkscape:connector-curvature="0" />
    <path
       d="m 26.585293,113.70558 -4.480869,8.79857 1.970578,0 2.723666,-5.34692 2.51029,5.34692 1.945475,0 -4.154531,-8.79857 -0.514609,0 z"
       style="font-style:normal;font-variant:normal;font-weight:normal;font-stretch:normal;font-size:medium;line-height:125%;font-family:'Jaapokki subtract';-inkscape-font-specification:'Jaapokki subtract';letter-spacing:0px;word-spacing:0px;fill:#003459;fill-opacity:1;stroke:none;stroke-width:1px;stroke-linecap:butt;stroke-linejoin:miter;stroke-opacity:1"
       id="path4148"
       inkscape:connector-curvature="0" />
    <path
       d="m 33.932403,122.50415 3.966259,-8.79857 -1.945475,0 -2.284365,4.99548 -2.296916,-4.99548 -1.945475,0 3.978811,8.79857 0.527161,0 z"
       style="font-style:normal;font-variant:normal;font-weight:normal;font-stretch:normal;font-size:medium;line-height:125%;font-family:'Jaapokki subtract';-inkscape-font-specification:'Jaapokki subtract';letter-spacing:0px;word-spacing:0px;fill:#003459;fill-opacity:1;stroke:none;stroke-width:1px;stroke-linecap:butt;stroke-linejoin:miter;stroke-opacity:1"
       id="path4150"
       inkscape:connector-curvature="0" />
    <path
       d="m 41.073396,113.70558 -4.480868,8.79857 1.970578,0 2.723665,-5.34692 2.510291,5.34692 1.945475,0 -4.154531,-8.79857 -0.51461,0 z"
       style="font-style:normal;font-variant:normal;font-weight:normal;font-stretch:normal;font-size:medium;line-height:125%;font-family:'Jaapokki subtract';-inkscape-font-specification:'Jaapokki subtract';letter-spacing:0px;word-spacing:0px;fill:#003459;fill-opacity:1;stroke:none;stroke-width:1px;stroke-linecap:butt;stroke-linejoin:miter;stroke-opacity:1"
       id="path4152"
       inkscape:connector-curvature="0" />
    <path
       d="m 48.385008,113.70558 -1.757203,0 0,8.78602 5.033132,0 0,-1.74465 -3.275929,0 0,-7.04137 z"
       style="font-style:normal;font-variant:normal;font-weight:normal;font-stretch:normal;font-size:medium;line-height:125%;font-family:'Jaapokki subtract';-inkscape-font-specification:'Jaapokki subtract';letter-spacing:0px;word-spacing:0px;fill:#003459;fill-opacity:1;stroke:none;stroke-width:1px;stroke-linecap:butt;stroke-linejoin:miter;stroke-opacity:1"
       id="path4154"
       inkscape:connector-curvature="0" />
    <path
       d="m 56.353614,113.54241 c -2.51029,0 -4.556177,2.04589 -4.556177,4.55618 0,2.51029 2.045887,4.55618 4.556177,4.55618 2.510291,0 4.556178,-2.04589 4.556178,-4.55618 0,-2.51029 -2.045887,-4.55618 -4.556178,-4.55618 z m 0,1.80741 c 1.518726,0 2.748768,1.23004 2.748768,2.74877 0,1.51873 -1.230042,2.74877 -2.748768,2.74877 -1.518725,0 -2.748768,-1.23004 -2.748768,-2.74877 0,-1.51873 1.230043,-2.74877 2.748768,-2.74877 z"
       style="font-style:normal;font-variant:normal;font-weight:normal;font-stretch:normal;font-size:medium;line-height:125%;font-family:'Jaapokki subtract';-inkscape-font-specification:'Jaapokki subtract';letter-spacing:0px;word-spacing:0px;fill:#003459;fill-opacity:1;stroke:none;stroke-width:1px;stroke-linecap:butt;stroke-linejoin:miter;stroke-opacity:1"
       id="path4156"
       inkscape:connector-curvature="0" />
    <path
       d="m 69.117653,122.50415 -4.945272,-5.13354 0,5.13354 -1.757204,0 0,-8.79857 0.552264,0 4.857412,4.92017 0,-4.92017 1.757204,0 0,8.79857 -0.464404,0 z"
       style="font-style:normal;font-variant:normal;font-weight:normal;font-stretch:normal;font-size:medium;line-height:125%;font-family:'Jaapokki subtract';-inkscape-font-specification:'Jaapokki subtract';letter-spacing:0px;word-spacing:0px;fill:#003459;fill-opacity:1;stroke:none;stroke-width:1px;stroke-linecap:butt;stroke-linejoin:miter;stroke-opacity:1"
       id="path4158"
       inkscape:connector-curvature="0" />
    <path
       d="m 71.215905,118.85168 4.292597,0 0,1.45597 -4.292597,0 0,-1.45597 z"
       style="font-style:normal;font-variant:normal;font-weight:normal;font-stretch:normal;font-size:medium;line-height:125%;font-family:'Jaapokki subtract';-inkscape-font-specification:'Jaapokki subtract';letter-spacing:0px;word-spacing:0px;fill:#003459;fill-opacity:1;stroke:none;stroke-width:1px;stroke-linecap:butt;stroke-linejoin:miter;stroke-opacity:1"
       id="path4160"
       inkscape:connector-curvature="0" />
    <path
       d="m 78.90563,113.70558 -1.757203,0 0,8.78602 5.033132,0 0,-1.74465 -3.275929,0 0,-7.04137 z"
       style="font-style:normal;font-variant:normal;font-weight:normal;font-stretch:normal;font-size:medium;line-height:125%;font-family:'Jaapokki subtract';-inkscape-font-specification:'Jaapokki subtract';letter-spacing:0px;word-spacing:0px;fill:#003459;fill-opacity:1;stroke:none;stroke-width:1px;stroke-linecap:butt;stroke-linejoin:miter;stroke-opacity:1"
       id="path4162"
       inkscape:connector-curvature="0" />
    <path
       d="m 87.675569,113.70558 -4.480868,8.79857 1.970578,0 2.723665,-5.34692 2.51029,5.34692 1.945476,0 -4.154531,-8.79857 -0.51461,0 z"
       style="font-style:normal;font-variant:normal;font-weight:normal;font-stretch:normal;font-size:medium;line-height:125%;font-family:'Jaapokki subtract';-inkscape-font-specification:'Jaapokki subtract';letter-spacing:0px;word-spacing:0px;fill:#003459;fill-opacity:1;stroke:none;stroke-width:1px;stroke-linecap:butt;stroke-linejoin:miter;stroke-opacity:1"
       id="path4164"
       inkscape:connector-curvature="0" />
    <path
       d="m 95.376272,120.99798 0,1.49362 0.627573,0 c 1.46852,0 2.660908,-1.17984 2.660908,-2.66091 0,-0.8535 -0.401647,-1.61914 -1.041771,-2.10864 0.288684,-0.4142 0.451852,-0.90371 0.451852,-1.44342 0,-1.41831 -1.154733,-2.57305 -2.573047,-2.57305 l -2.397328,0 0,5.1712 2.874283,0 c 0.589918,0 1.079425,0.47696 1.079425,1.06687 0,0.58992 -0.489507,1.05433 -1.079425,1.05433 l -0.60247,0 z m -0.715433,-3.81565 0,-2.00823 0.765639,0 c 0.489507,0 1.016668,0.37655 1.016668,0.99157 0,0.61502 -0.527161,1.01666 -1.016668,1.01666 l -0.765639,0 z"
       style="font-style:normal;font-variant:normal;font-weight:normal;font-stretch:normal;font-size:medium;line-height:125%;font-family:'Jaapokki subtract';-inkscape-font-specification:'Jaapokki subtract';letter-spacing:0px;word-spacing:0px;fill:#003459;fill-opacity:1;stroke:none;stroke-width:1px;stroke-linecap:butt;stroke-linejoin:miter;stroke-opacity:1"
       id="path4166"
       inkscape:connector-curvature="0" />
    <path
       d="m 99.791052,122.85559 4.330248,-7.65639 0.67778,0.31379 -4.33025,7.64384 -0.677778,-0.30124 z"
       style="font-style:normal;font-variant:normal;font-weight:normal;font-stretch:normal;font-size:medium;line-height:125%;font-family:'Jaapokki subtract';-inkscape-font-specification:'Jaapokki subtract';letter-spacing:0px;word-spacing:0px;fill:#003459;fill-opacity:1;stroke:none;stroke-width:1px;stroke-linecap:butt;stroke-linejoin:miter;stroke-opacity:1"
       id="path4168"
       inkscape:connector-curvature="0" />
    <path
       d="m 106.0607,120.45826 3.5144,-1.7321 -3.52695,-1.70699 0.62757,-1.30536 4.85741,2.35968 0,1.2928 -4.83231,2.38477 -0.64012,-1.2928 z"
       style="font-style:normal;font-variant:normal;font-weight:normal;font-stretch:normal;font-size:medium;line-height:125%;font-family:'Jaapokki subtract';-inkscape-font-specification:'Jaapokki subtract';letter-spacing:0px;word-spacing:0px;fill:#003459;fill-opacity:1;stroke:none;stroke-width:1px;stroke-linecap:butt;stroke-linejoin:miter;stroke-opacity:1"
       id="path4170"
       inkscape:connector-curvature="0" />
  </g>
</svg>
