<?xml version="1.0" encoding="UTF-8" standalone="no"?>
<svg
   xmlns:dc="http://purl.org/dc/elements/1.1/"
   xmlns:cc="http://creativecommons.org/ns#"
   xmlns:rdf="http://www.w3.org/1999/02/22-rdf-syntax-ns#"
   xmlns:svg="http://www.w3.org/2000/svg"
   xmlns="http://www.w3.org/2000/svg"
   xmlns:sodipodi="http://sodipodi.sourceforge.net/DTD/sodipodi-0.dtd"
   xmlns:inkscape="http://www.inkscape.org/namespaces/inkscape"
   id="Layer_4"
   width="536.9"
   height="128"
   version="1.1"
   sodipodi:docname="logo.svg"
   inkscape:version="0.92.1 r15371">
  <metadata
     id="metadata162">
    <rdf:RDF>
      <cc:Work
         rdf:about="">
        <dc:format>image/svg+xml</dc:format>
        <dc:type
           rdf:resource="http://purl.org/dc/dcmitype/StillImage" />
      </cc:Work>
    </rdf:RDF>
  </metadata>
  <defs
     id="defs160" />
  <sodipodi:namedview
     pagecolor="#ffffff"
     bordercolor="#666666"
     borderopacity="1"
     objecttolerance="10"
     gridtolerance="10"
     guidetolerance="10"
     inkscape:pageopacity="0"
     inkscape:pageshadow="2"
     inkscape:window-width="3000"
     inkscape:window-height="1840"
     id="namedview158"
     showgrid="false"
     inkscape:zoom="5.1778727"
     inkscape:cx="268.45001"
     inkscape:cy="64"
     inkscape:window-x="0"
     inkscape:window-y="80"
     inkscape:window-maximized="1"
     inkscape:current-layer="Layer_4" />
  <style
     id="style106">.st0{fill:none}.st5{opacity:.2;enable-background:new}.st13,.st5{fill:#fff}</style>
  <g
     id="XMLID_2_">
    <g
       id="XMLID_3_">
      <g
         id="XMLID_4_">
        <path
           id="XMLID_33_"
           d="M78.7 58L45.1 0H.3l37 64-37 64h44.8l33.5-58c2.2-3.7 2.2-8.3.1-12z"
           class="st0" />
        <path
           id="XMLID_32_"
           fill="#ffc107"
           d="M59.4 102.3L48.8 83.9 23.3 128h21.8l14.6-25.2z" />
        <path
           id="XMLID_31_"
           d="M78.7 58L45.1 0H.3l37 64-37 64h44.8l33.5-58c2.2-3.7 2.2-8.3.1-12z"
           class="st0" />
        <path
           id="XMLID_30_"
           fill="#0f9d58"
           d="M37.3 64l11.5 19.9L23.3 128H.3z" />
        <path
           id="XMLID_29_"
           d="M78.7 58L45.1 0H.3l37 64-37 64h44.8l33.5-58c2.2-3.7 2.2-8.3.1-12z"
           class="st0" />
        <path
           id="XMLID_28_"
           fill="#bf360c"
           d="M45.1 127H23.8l-.5 1h21.8l14.6-25.2-.3-.5z"
           opacity=".2" />
        <path
           id="XMLID_27_"
           d="M78.7 58L45.1 0H.3l37 64-37 64h44.8l33.5-58c2.2-3.7 2.2-8.3.1-12z"
           class="st0" />
        <path
           id="XMLID_26_"
           fill="#263238"
           d="M.8 127l-.5 1h23l.5-1z"
           opacity=".2" />
        <path
           id="XMLID_25_"
           d="M78.7 58L45.1 0H.3l37 64-37 64h44.8l33.5-58c2.2-3.7 2.2-8.3.1-12z"
           class="st0" />
        <path
           id="XMLID_24_"
           d="M.3 128h.5l36.8-63.5-.3-.5z"
           class="st5" />
        <path
           id="XMLID_23_"
           d="M78.7 58L45.1 0H.3l37 64-37 64h44.8l33.5-58c2.2-3.7 2.2-8.3.1-12z"
           class="st0" />
        <radialGradient
           id="XMLID_34_"
           cx="59.537"
           cy="27.626"
           r="44.264"
           gradientTransform="matrix(1 0 0 -1 0 130)"
           gradientUnits="userSpaceOnUse">
          <stop
             offset="0"
             stop-color="#bf360c"
             stop-opacity=".2"
             id="stop119" />
          <stop
             offset="1"
             stop-color="#bf360c"
             stop-opacity=".02"
             id="stop121" />
        </radialGradient>
        <path
           id="XMLID_22_"
           fill="url(#XMLID_34_)"
           d="M59.7 102.8L48.8 83.9l-2.7 4.6z" />
        <path
           id="XMLID_21_"
           d="M78.7 58L45.1 0H.3l37 64-37 64h44.8l33.5-58c2.2-3.7 2.2-8.3.1-12z"
           class="st0" />
        <radialGradient
           id="XMLID_35_"
           cx="59.411"
           cy="27.346"
           r="44.623"
           gradientTransform="matrix(1 0 0 -1 0 130)"
           gradientUnits="userSpaceOnUse">
          <stop
             offset="0"
             stop-color="#263238"
             stop-opacity=".2"
             id="stop126" />
          <stop
             offset="1"
             stop-color="#263238"
             stop-opacity=".02"
             id="stop128" />
        </radialGradient>
        <path
           id="XMLID_20_"
           fill="url(#XMLID_35_)"
           d="M46.1 88.5l2.7-4.6L37.3 64l-5.5 9.5z" />
        <path
           id="XMLID_19_"
           d="M78.7 58L45.1 0H.3l37 64-37 64h44.8l33.5-58c2.2-3.7 2.2-8.3.1-12z"
           class="st0" />
        <g
           id="XMLID_16_">
          <g
             id="XMLID_17_">
            <path
               id="XMLID_18_"
               fill="#4285f4"
               d="M23.3 0H.3l59.4 102.8 11.5-19.9z" />
          </g>
        </g>
        <path
           id="XMLID_15_"
           d="M78.7 58L45.1 0H.3l37 64-37 64h44.8l33.5-58c2.2-3.7 2.2-8.3.1-12z"
           class="st0" />
        <path
           id="XMLID_14_"
           fill="#db4437"
           d="M78.7 70c2.1-3.7 2.1-8.3 0-12L45.1 0H23.3l47.9 82.9L78.7 70z" />
        <path
           id="XMLID_13_"
           d="M78.7 58L45.1 0H.3l37 64-37 64h44.8l33.5-58c2.2-3.7 2.2-8.3.1-12z"
           class="st0" />
        <path
           id="XMLID_12_"
           fill="#1a237e"
           d="M71.2 82.9l-.3-.5-11.2 19.4L.8 0H.3l59.4 102.8 11.5-19.9z"
           opacity=".2" />
        <path
           id="XMLID_11_"
           d="M78.7 58L45.1 0H.3l37 64-37 64h44.8l33.5-58c2.2-3.7 2.2-8.3.1-12z"
           class="st0" />
        <path
           id="XMLID_10_"
           d="M45.1 1l33.5 58c1 1.7 1.5 3.6 1.6 5.5.1-2.2-.4-4.5-1.6-6.5L45.1 0H.3l.6 1h44.2z"
           class="st5" />
        <path
           id="XMLID_9_"
           d="M78.7 58L45.1 0H.3l37 64-37 64h44.8l33.5-58c2.2-3.7 2.2-8.3.1-12z"
           class="st0" />
        <path
           id="XMLID_8_"
           fill="#3e2723"
           d="M71.2 82.9L78.7 70c1.2-2 1.7-4.3 1.6-6.5-.1 1.9-.6 3.8-1.6 5.5L71 82.4l.2.5z"
           opacity=".2" />
        <path
           id="XMLID_6_"
           d="M78.7 58L45.1 0H.3l37 64-37 64h44.8l33.5-58c2.2-3.7 2.2-8.3.1-12z"
           class="st0" />
        <radialGradient
           id="XMLID_36_"
           cx="-.74"
           cy="129"
           r="134.35"
           gradientTransform="matrix(1 0 0 -1 0 130)"
           gradientUnits="userSpaceOnUse">
          <stop
             offset="0"
             stop-color="#fff"
             stop-opacity=".1"
             id="stop145" />
          <stop
             offset="1"
             stop-color="#fff"
             stop-opacity="0"
             id="stop147" />
        </radialGradient>
        <path
           id="XMLID_5_"
           fill="url(#XMLID_36_)"
           d="M78.7 58L45.1 0H.3l37 64-37 64h44.8l33.5-58c2.2-3.7 2.2-8.3.1-12z" />
      </g>
    </g>
  </g>
  <g
     transform="matrix(4.0295522,0,0,4.0295522,0.47656405,-1.881109)"
     aria-label="DevFest du"
     style="font-style:normal;font-variant:normal;font-weight:normal;font-stretch:normal;font-size:40px;line-height:1.25;font-family:'Product Sans';-inkscape-font-specification:'Product Sans';letter-spacing:0px;word-spacing:0px;fill:#ffffff;fill-opacity:1;stroke:none"
     id="text142">
    <path
       inkscape:connector-curvature="0"
       d="M 31.20414,14.242568 V 3.7412345 h 3.212 q 2.405333,0 3.857333,1.452 1.466667,1.452 1.466667,3.7986667 0,2.3613338 -1.466667,3.8133338 -1.452,1.437333 -3.857333,1.437333 z m 1.349333,-9.2106669 v 7.9199999 h 1.862667 q 1.833333,0 2.889333,-1.041333 1.056,-1.056 1.056,-2.9186668 0,-1.848 -1.056,-2.904 -1.056,-1.0560001 -2.889333,-1.0560001 z"
       style="font-size:14.66666698px;fill:#ffffff;fill-opacity:1"
       id="path200" />
    <path
       inkscape:connector-curvature="0"
       d="m 44.107599,14.477235 q -1.584,0 -2.610667,-1.085334 -1.026666,-1.085333 -1.026666,-2.742666 0,-1.6426671 0.997333,-2.7280005 0.997333,-1.1 2.552,-1.1 1.598667,0 2.537333,1.0413334 0.953334,1.0266667 0.953334,2.8893331 l -0.01467,0.146667 h -5.646667 q 0.02933,1.056 0.704,1.701333 0.674667,0.645334 1.613334,0.645334 1.290666,0 2.024,-1.290667 l 1.202666,0.586667 q -0.484,0.909333 -1.349333,1.422666 -0.850667,0.513334 -1.936,0.513334 z m -2.156,-4.6933337 h 4.121333 q -0.05867,-0.7480001 -0.616,-1.2320001 -0.542666,-0.4986667 -1.466666,-0.4986667 -0.762667,0 -1.32,0.4693334 -0.542667,0.4693333 -0.718667,1.2613334 z"
       style="font-size:14.66666698px;fill:#ffffff;fill-opacity:1"
       id="path202" />
    <path
       inkscape:connector-curvature="0"
       d="m 52.077328,14.242568 h -1.349334 l -2.904,-7.1866668 h 1.466667 l 2.112,5.5733338 h 0.02933 l 2.141334,-5.5733338 h 1.437333 z"
       style="font-size:14.66666698px;fill:#ffffff;fill-opacity:1"
       id="path204" />
    <path
       inkscape:connector-curvature="0"
       d="M 57.475348,9.7399013 V 14.242568 H 56.126015 V 3.7412345 h 6.130667 v 1.2906666 h -4.781334 v 3.4466668 h 4.312 v 1.2613334 z"
       style="font-size:14.66666698px;fill:#ffffff;fill-opacity:1"
       id="path206" />
    <path
       inkscape:connector-curvature="0"
       d="m 66.336765,14.477235 q -1.584,0 -2.610667,-1.085334 -1.026666,-1.085333 -1.026666,-2.742666 0,-1.6426671 0.997333,-2.7280005 0.997333,-1.1 2.552,-1.1 1.598667,0 2.537333,1.0413334 0.953334,1.0266667 0.953334,2.8893331 l -0.01467,0.146667 h -5.646667 q 0.02933,1.056 0.704,1.701333 0.674667,0.645334 1.613334,0.645334 1.290666,0 2.024,-1.290667 l 1.202666,0.586667 q -0.484,0.909333 -1.349333,1.422666 -0.850667,0.513334 -1.936,0.513334 z m -2.156,-4.6933337 h 4.121333 q -0.05867,-0.7480001 -0.616,-1.2320001 -0.542666,-0.4986667 -1.466666,-0.4986667 -0.762667,0 -1.32,0.4693334 -0.542667,0.4693333 -0.718667,1.2613334 z"
       style="font-size:14.66666698px;fill:#ffffff;fill-opacity:1"
       id="path208" />
    <path
       inkscape:connector-curvature="0"
       d="m 76.544997,12.247901 q 0,0.938667 -0.821334,1.584 -0.821333,0.645334 -2.068,0.645334 -1.085333,0 -1.906666,-0.557334 -0.821334,-0.572 -1.173334,-1.496 l 1.202667,-0.513333 q 0.264,0.645333 0.762667,1.012 0.513333,0.352 1.114666,0.352 0.645334,0 1.070667,-0.278667 0.44,-0.278666 0.44,-0.66 0,-0.689333 -1.056,-1.012 l -1.232,-0.308 q -2.097333,-0.528 -2.097333,-2.0239998 0,-0.9826667 0.792,-1.5693333 0.806666,-0.6013334 2.053333,-0.6013334 0.953333,0 1.716,0.4546667 0.777333,0.4546667 1.085333,1.2173334 l -1.202666,0.4986666 q -0.205334,-0.4546666 -0.674667,-0.704 -0.454667,-0.264 -1.026667,-0.264 -0.528,0 -0.953333,0.264 -0.410667,0.264 -0.410667,0.6453334 0,0.616 1.158667,0.88 l 1.085333,0.2786664 q 2.141334,0.528 2.141334,2.156 z"
       style="font-size:14.66666698px;fill:#ffffff;fill-opacity:1"
       id="path210" />
    <path
       inkscape:connector-curvature="0"
       d="m 80.478869,14.359901 q -0.88,0 -1.466666,-0.542666 -0.572001,-0.542667 -0.586667,-1.510667 V 8.2879012 h -1.261334 v -1.232 h 1.261334 V 4.8559011 h 1.349333 v 2.2000001 h 1.76 v 1.232 h -1.76 v 3.5786668 q 0,0.718667 0.278667,0.982667 0.278667,0.249333 0.630667,0.249333 0.161333,0 0.308,-0.02933 0.161333,-0.044 0.293333,-0.102667 l 0.425333,1.202667 q -0.528,0.190666 -1.232,0.190666 z"
       style="font-size:14.66666698px;fill:#ffffff;fill-opacity:1"
       id="path212" />
    <path
       inkscape:connector-curvature="0"
       d="m 89.282078,13.245235 q 0.997333,0 1.628,-0.718667 0.66,-0.718667 0.66,-1.877333 0,-1.1293338 -0.66,-1.8626671 -0.645334,-0.7333334 -1.628,-0.7333334 -0.968,0 -1.628,0.7333334 -0.660001,0.7333333 -0.660001,1.8626671 0,1.144 0.660001,1.862666 0.66,0.733334 1.628,0.733334 z m -0.22,1.232 q -1.408,0 -2.420001,-1.114667 -0.997333,-1.129333 -0.997333,-2.713333 0,-1.5840004 0.997333,-2.7133338 1.012001,-1.1146667 2.420001,-1.1146667 0.792,0 1.437333,0.3373334 0.66,0.3373333 1.012,0.8946666 h 0.05867 L 91.511411,7.0559012 V 3.7412345 h 1.349333 V 14.242568 h -1.290666 v -0.997333 h -0.05867 q -0.352,0.557333 -1.012,0.894666 -0.645333,0.337334 -1.437333,0.337334 z"
       style="font-size:14.66666698px;fill:#ffffff;fill-opacity:1"
       id="path214" />
    <path
       inkscape:connector-curvature="0"
       d="m 100.8126,14.242568 h -1.290666 v -0.997333 h -0.05867 q -0.308,0.528 -0.953334,0.88 -0.630666,0.352 -1.32,0.352 -1.32,0 -2.038666,-0.748 -0.704,-0.762667 -0.704,-2.156 V 7.0559012 h 1.349333 v 4.4293338 q 0.044,1.76 1.774667,1.76 0.806666,0 1.349333,-0.645334 0.542667,-0.66 0.542667,-1.569333 V 7.0559012 h 1.349336 z"
       style="font-size:14.66666698px;fill:#ffffff;fill-opacity:1"
       id="path216" />
  </g>
  <g
     transform="matrix(4.0295522,0,0,4.0295522,0.47656405,-1.881109)"
     aria-label="Bout du Monde"
     style="font-style:normal;font-variant:normal;font-weight:normal;font-stretch:normal;font-size:40px;line-height:1.25;font-family:'Product Sans';-inkscape-font-specification:'Product Sans';letter-spacing:0px;word-spacing:0px;fill:#ffffff;fill-opacity:1;stroke:none"
     id="text156">
    <path
       inkscape:connector-curvature="0"
       d="M 31.20414,30.844099 V 20.342765 h 3.798667 q 1.246666,0 2.141333,0.821334 0.894667,0.806667 0.894667,2.038667 0,1.554666 -1.422667,2.185333 v 0.05867 q 0.806667,0.264 1.290667,0.924 0.484,0.645333 0.484,1.481333 0,1.290667 -0.938667,2.141333 -0.909333,0.850667 -2.244,0.850667 z m 1.349333,-9.210667 v 3.212 h 2.449334 q 0.718666,0 1.202666,-0.484 0.484,-0.498666 0.484,-1.129333 0,-0.616 -0.469333,-1.114667 -0.469333,-0.484 -1.158667,-0.484 z m 0,4.473334 v 3.446666 h 2.713334 q 0.733333,0 1.246666,-0.513333 0.498667,-0.513333 0.498667,-1.217333 0,-0.689334 -0.513333,-1.202667 -0.513334,-0.513333 -1.290667,-0.513333 z"
       style="font-size:14.66666698px;fill:#ffffff;fill-opacity:1"
       id="path177" />
    <path
       inkscape:connector-curvature="0"
       d="m 39.267141,27.250766 q 0,-1.657334 1.041333,-2.742667 1.056,-1.085333 2.654667,-1.085333 1.598666,0 2.64,1.085333 1.056,1.085333 1.056,2.742667 0,1.672 -1.056,2.742666 -1.041334,1.085334 -2.64,1.085334 -1.598667,0 -2.654667,-1.085334 -1.041333,-1.085333 -1.041333,-2.742666 z m 1.349333,0 q 0,1.158666 0.674667,1.877333 0.674666,0.718667 1.672,0.718667 0.997333,0 1.672,-0.718667 0.674666,-0.718667 0.674666,-1.877333 0,-1.144 -0.674666,-1.862667 -0.689334,-0.733333 -1.672,-0.733333 -0.982667,0 -1.672,0.733333 -0.674667,0.718667 -0.674667,1.862667 z"
       style="font-size:14.66666698px;fill:#ffffff;fill-opacity:1"
       id="path179" />
    <path
       inkscape:connector-curvature="0"
       d="m 54.11989,30.844099 h -1.290667 v -0.997333 h -0.05867 q -0.308,0.528 -0.953334,0.88 -0.630666,0.352 -1.32,0.352 -1.32,0 -2.038666,-0.748 -0.704,-0.762667 -0.704,-2.156 v -4.517334 h 1.349333 v 4.429334 q 0.044,1.76 1.774667,1.76 0.806666,0 1.349333,-0.645334 0.542667,-0.66 0.542667,-1.569333 v -3.974667 h 1.349333 z"
       style="font-size:14.66666698px;fill:#ffffff;fill-opacity:1"
       id="path181" />
    <path
       inkscape:connector-curvature="0"
       d="m 58.708037,30.961432 q -0.88,0 -1.466667,-0.542666 -0.572,-0.542667 -0.586666,-1.510667 V 24.889432 H 55.39337 v -1.232 h 1.261334 v -2.2 h 1.349333 v 2.2 h 1.76 v 1.232 h -1.76 v 3.578667 q 0,0.718667 0.278667,0.982667 0.278666,0.249333 0.630666,0.249333 0.161334,0 0.308,-0.02933 0.161334,-0.044 0.293334,-0.102667 l 0.425333,1.202667 q -0.528,0.190666 -1.232,0.190666 z"
       style="font-size:14.66666698px;fill:#ffffff;fill-opacity:1"
       id="path183" />
    <path
       inkscape:connector-curvature="0"
       d="m 67.511245,29.846766 q 0.997334,0 1.628001,-0.718667 0.66,-0.718667 0.66,-1.877333 0,-1.129334 -0.66,-1.862667 -0.645334,-0.733333 -1.628001,-0.733333 -0.968,0 -1.628,0.733333 -0.66,0.733333 -0.66,1.862667 0,1.144 0.66,1.862666 0.66,0.733334 1.628,0.733334 z m -0.22,1.232 q -1.408,0 -2.42,-1.114667 -0.997333,-1.129333 -0.997333,-2.713333 0,-1.584 0.997333,-2.713334 1.012,-1.114666 2.42,-1.114666 0.792,0 1.437334,0.337333 0.66,0.337333 1.012,0.894667 h 0.05867 l -0.05867,-0.997334 v -3.314667 h 1.349333 v 10.501334 h -1.290666 v -0.997333 h -0.05867 q -0.352,0.557333 -1.012,0.894666 -0.645334,0.337334 -1.437334,0.337334 z"
       style="font-size:14.66666698px;fill:#ffffff;fill-opacity:1"
       id="path185" />
    <path
       inkscape:connector-curvature="0"
       d="m 79.041769,30.844099 h -1.290667 v -0.997333 h -0.05867 q -0.308,0.528 -0.953334,0.88 -0.630666,0.352 -1.32,0.352 -1.32,0 -2.038667,-0.748 -0.704,-0.762667 -0.704,-2.156 v -4.517334 h 1.349334 v 4.429334 q 0.044,1.76 1.774667,1.76 0.806666,0 1.349333,-0.645334 0.542667,-0.66 0.542667,-1.569333 v -3.974667 h 1.349333 z"
       style="font-size:14.66666698px;fill:#ffffff;fill-opacity:1"
       id="path187" />
    <path
       inkscape:connector-curvature="0"
       d="M 85.519622,30.844099 H 84.170288 V 20.342765 h 1.349334 l 3.652,6.394667 h 0.05867 l 3.652001,-6.394667 h 1.349333 v 10.501334 h -1.349333 v -6.233333 l 0.05867,-1.76 h -0.05867 l -3.285334,5.764 h -0.792 l -3.285333,-5.764 h -0.05867 l 0.05867,1.76 z"
       style="font-size:14.66666698px;fill:#ffffff;fill-opacity:1"
       id="path189" />
    <path
       inkscape:connector-curvature="0"
       d="m 95.699432,27.250766 q 0,-1.657334 1.041333,-2.742667 1.056,-1.085333 2.654667,-1.085333 1.598668,0 2.639998,1.085333 1.056,1.085333 1.056,2.742667 0,1.672 -1.056,2.742666 -1.04133,1.085334 -2.639998,1.085334 -1.598667,0 -2.654667,-1.085334 -1.041333,-1.085333 -1.041333,-2.742666 z m 1.349333,0 q 0,1.158666 0.674667,1.877333 0.674666,0.718667 1.672,0.718667 0.997338,0 1.671998,-0.718667 0.67467,-0.718667 0.67467,-1.877333 0,-1.144 -0.67467,-1.862667 -0.68933,-0.733333 -1.671998,-0.733333 -0.982667,0 -1.672,0.733333 -0.674667,0.718667 -0.674667,1.862667 z"
       style="font-size:14.66666698px;fill:#ffffff;fill-opacity:1"
       id="path191" />
    <path
       inkscape:connector-curvature="0"
       d="m 104.18822,23.657432 h 1.29067 v 0.997334 h 0.0587 q 0.308,-0.528 0.93866,-0.88 0.64534,-0.352 1.33467,-0.352 1.32,0 2.024,0.762666 0.71867,0.748 0.71867,2.141334 v 4.517333 h -1.34934 v -4.429333 q -0.044,-1.76 -1.77466,-1.76 -0.80667,0 -1.34934,0.66 -0.54266,0.645333 -0.54266,1.554666 v 3.974667 h -1.34934 z"
       style="font-size:14.66666698px;fill:#ffffff;fill-opacity:1"
       id="path193" />
    <path
       inkscape:connector-curvature="0"
       d="m 115.37844,29.846766 q 0.99733,0 1.628,-0.718667 0.66,-0.718667 0.66,-1.877333 0,-1.129334 -0.66,-1.862667 -0.64534,-0.733333 -1.628,-0.733333 -0.968,0 -1.628,0.733333 -0.66,0.733333 -0.66,1.862667 0,1.144 0.66,1.862666 0.66,0.733334 1.628,0.733334 z m -0.22,1.232 q -1.408,0 -2.42,-1.114667 -0.99734,-1.129333 -0.99734,-2.713333 0,-1.584 0.99734,-2.713334 1.012,-1.114666 2.42,-1.114666 0.792,0 1.43733,0.337333 0.66,0.337333 1.012,0.894667 h 0.0587 l -0.0587,-0.997334 v -3.314667 h 1.34933 v 10.501334 h -1.29066 v -0.997333 h -0.0587 q -0.352,0.557333 -1.012,0.894666 -0.64533,0.337334 -1.43733,0.337334 z"
       style="font-size:14.66666698px;fill:#ffffff;fill-opacity:1"
       id="path195" />
    <path
       inkscape:connector-curvature="0"
       d="m 123.74302,31.078766 q -1.584,0 -2.61067,-1.085334 -1.02667,-1.085333 -1.02667,-2.742666 0,-1.642667 0.99733,-2.728 0.99734,-1.1 2.55201,-1.1 1.59866,0 2.53733,1.041333 0.95333,1.026667 0.95333,2.889333 l -0.0147,0.146667 h -5.64667 q 0.0293,1.056 0.704,1.701333 0.67467,0.645334 1.61333,0.645334 1.29067,0 2.024,-1.290667 l 1.20267,0.586667 q -0.484,0.909333 -1.34933,1.422666 -0.85067,0.513334 -1.936,0.513334 z m -2.15601,-4.693334 h 4.12134 q -0.0587,-0.748 -0.616,-1.232 -0.54267,-0.498666 -1.46667,-0.498666 -0.76266,0 -1.32,0.469333 -0.54267,0.469333 -0.71867,1.261333 z"
       style="font-size:14.66666698px;fill:#ffffff;fill-opacity:1"
       id="path197" />
  </g>
</svg>
