<?xml version="1.0" encoding="UTF-8" standalone="no"?>
<svg
   xmlns:dc="http://purl.org/dc/elements/1.1/"
   xmlns:cc="http://creativecommons.org/ns#"
   xmlns:rdf="http://www.w3.org/1999/02/22-rdf-syntax-ns#"
   xmlns:svg="http://www.w3.org/2000/svg"
   xmlns="http://www.w3.org/2000/svg"
   xmlns:sodipodi="http://sodipodi.sourceforge.net/DTD/sodipodi-0.dtd"
   xmlns:inkscape="http://www.inkscape.org/namespaces/inkscape"
   id="Layer_4"
   width="310.22803"
   height="42"
   version="1.1"
   sodipodi:docname="logo-monochrome-ligne.svg"
   inkscape:version="0.92.3 (2405546, 2018-03-11)"
   inkscape:export-filename="/home/horacio/git/DevFest/DevFestBdM-2019/images/logo-monochrome-ligne.png"
   inkscape:export-xdpi="228.57143"
   inkscape:export-ydpi="228.57143">
  <metadata
     id="metadata138">
    <rdf:RDF>
      <cc:Work
         rdf:about="">
        <dc:format>image/svg+xml</dc:format>
        <dc:type
           rdf:resource="http://purl.org/dc/dcmitype/StillImage" />
        <dc:title />
      </cc:Work>
    </rdf:RDF>
  </metadata>
  <defs
     id="defs136" />
  <sodipodi:namedview
     pagecolor="#ffffff"
     bordercolor="#666666"
     borderopacity="1"
     objecttolerance="10"
     gridtolerance="10"
     guidetolerance="10"
     inkscape:pageopacity="0"
     inkscape:pageshadow="2"
     inkscape:window-width="1978"
     inkscape:window-height="1088"
     id="namedview134"
     showgrid="false"
     inkscape:zoom="2.5913496"
     inkscape:cx="135.43909"
     inkscape:cy="88.650664"
     inkscape:window-x="70"
     inkscape:window-y="27"
     inkscape:window-maximized="1"
     inkscape:current-layer="Layer_4"
     fit-margin-top="5"
     fit-margin-left="5"
     fit-margin-right="5"
     fit-margin-bottom="5" />
  <style
     id="style123">.st0{fill:#673ab7}</style>
  <path
     style="fill:#000000"
     d="M 5 5 L 19.800781 30.599609 L 22.400391 26.099609 L 10.199219 5 L 5 5 z M 10.800781 5 L 22.699219 25.599609 L 24.400391 22.699219 C 24.700391 22.199219 24.800781 21.699609 24.800781 21.099609 C 24.800781 20.599609 24.600781 19.999609 24.300781 19.599609 L 15.900391 5 L 10.800781 5 z M 37.208984 9.4160156 L 37.208984 34.253906 L 44.806641 34.253906 C 48.599445 34.253906 51.640129 33.121901 53.929688 30.855469 C 56.242373 28.565909 57.398438 25.559362 57.398438 21.835938 C 57.398437 18.13564 56.242374 15.141121 53.929688 12.851562 C 51.640129 10.562004 48.599445 9.4160156 44.806641 9.4160156 L 37.208984 9.4160156 z M 96.154297 9.4160156 L 96.154297 34.253906 L 99.345703 34.253906 L 99.345703 23.605469 L 109.54492 23.605469 L 109.54492 20.621094 L 99.345703 20.621094 L 99.345703 12.46875 L 110.65625 12.46875 L 110.65625 9.4160156 L 96.154297 9.4160156 z M 159.84375 9.4160156 L 159.84375 34.253906 L 169.31445 34.253906 C 171.41899 34.253906 173.18918 33.583546 174.62305 32.242188 C 176.10317 30.900829 176.8418 29.212898 176.8418 27.177734 C 176.8418 25.859504 176.46045 24.69141 175.69727 23.673828 C 174.93408 22.63312 173.91651 21.904565 172.64453 21.488281 L 172.64453 21.349609 C 174.88784 20.355155 176.00977 18.633087 176.00977 16.181641 C 176.00977 14.238985 175.30527 12.631352 173.89453 11.359375 C 172.4838 10.064271 170.79391 9.4160156 168.82812 9.4160156 L 159.84375 9.4160156 z M 192.79102 9.4160156 L 192.79102 17.255859 L 192.92969 19.615234 L 192.79102 19.615234 C 192.23597 18.736414 191.43914 18.031918 190.39844 17.5 C 189.38086 16.968083 188.2469 16.701172 186.99805 16.701172 C 184.77787 16.701172 182.86919 17.580249 181.27344 19.337891 C 179.70081 21.118659 178.91602 23.258159 178.91602 25.755859 C 178.91602 28.253559 179.70081 30.39306 181.27344 32.173828 C 182.86919 33.931469 184.77787 34.810547 186.99805 34.810547 C 188.2469 34.810547 189.38086 34.543636 190.39844 34.011719 C 191.43914 33.479801 192.23597 32.775305 192.79102 31.896484 L 192.92969 31.896484 L 192.92969 34.253906 L 195.98242 34.253906 L 195.98242 9.4160156 L 192.79102 9.4160156 z M 200.42969 9.4160156 L 200.42969 34.253906 L 203.62109 34.253906 L 203.62109 19.511719 L 203.48242 15.347656 L 203.62109 15.347656 L 211.39062 28.982422 L 213.26367 28.982422 L 221.03516 15.347656 L 221.17383 15.347656 L 221.03516 19.511719 L 221.03516 34.253906 L 224.22656 34.253906 L 224.22656 9.4160156 L 221.03516 9.4160156 L 212.39648 24.541016 L 212.25781 24.541016 L 203.62109 9.4160156 L 200.42969 9.4160156 z M 243.08984 9.9707031 C 241.30908 9.9707031 239.75964 10.480465 238.44141 11.498047 C 237.12318 12.492502 236.23402 13.718789 235.77148 15.175781 L 238.68555 16.353516 C 238.91681 15.428442 239.42462 14.643646 240.21094 13.996094 C 240.99725 13.348542 241.93452 13.023438 243.02148 13.023438 C 244.29346 13.023438 245.33314 13.394706 246.14258 14.134766 C 246.95202 14.874825 247.35742 15.763979 247.35742 16.804688 C 247.35742 17.96103 246.96405 19.07093 246.17773 20.134766 C 245.39142 21.175474 243.9704 22.748972 241.91211 24.853516 L 235.77148 31.0625 L 235.77148 34.253906 L 250.89648 34.253906 L 250.89648 31.201172 L 239.89844 31.201172 L 246.83789 24.228516 C 249.35872 21.568927 250.61914 19.094246 250.61914 16.804688 C 250.61914 14.885158 249.90066 13.267449 248.4668 11.949219 C 247.03293 10.630988 245.24064 9.9707031 243.08984 9.9707031 z M 263.47266 9.9707031 C 260.6743 9.9707031 258.38428 11.138797 256.60352 13.474609 C 254.82275 15.810422 253.93164 18.782835 253.93164 22.390625 C 253.93164 25.952161 254.82275 28.924575 256.60352 31.306641 C 258.38428 33.642453 260.6743 34.810547 263.47266 34.810547 C 266.271 34.810547 268.56103 33.642453 270.3418 31.306641 C 272.12257 28.924575 273.01172 25.952161 273.01172 22.390625 C 273.01172 18.805962 272.12257 15.845578 270.3418 13.509766 C 268.56103 11.150826 266.271 9.9707031 263.47266 9.9707031 z M 297.07617 9.9707031 C 294.90225 9.9707031 293.0056 10.769481 291.38672 12.365234 C 289.76784 13.914734 288.95898 15.765218 288.95898 17.916016 C 288.95898 19.974306 289.70964 21.776672 291.21289 23.326172 C 292.76239 24.829417 294.48641 25.582031 296.38281 25.582031 C 297.53916 25.582031 298.4865 25.33918 299.22656 24.853516 L 299.29688 24.923828 L 293.43359 33.041016 L 296 34.810547 L 302.9043 24.472656 C 304.4538 22.02121 305.22852 19.835545 305.22852 17.916016 C 305.22852 15.765218 304.44177 13.902704 302.86914 12.330078 C 301.29651 10.757452 299.36573 9.9707031 297.07617 9.9707031 z M 282.58398 10.527344 L 275.61133 13.787109 L 276.82422 16.492188 L 281.43945 14.480469 L 281.43945 34.253906 L 284.63086 34.253906 L 284.63086 10.527344 L 282.58398 10.527344 z M 148.89844 12.052734 L 148.89844 17.255859 L 145.91602 17.255859 L 145.91602 20.169922 L 148.89844 20.169922 L 148.89844 29.675781 C 148.92156 31.202154 149.38516 32.392354 150.28711 33.248047 C 151.21218 34.103741 152.36825 34.53125 153.75586 34.53125 C 154.86595 34.53125 155.83736 34.382681 156.66992 34.082031 L 155.66406 31.236328 C 155.45592 31.328835 155.2251 31.409135 154.9707 31.478516 C 154.73943 31.524769 154.49658 31.548828 154.24219 31.548828 C 153.68714 31.548828 153.18941 31.352141 152.75 30.958984 C 152.31059 30.542701 152.08984 29.767982 152.08984 28.634766 L 152.08984 20.169922 L 156.25391 20.169922 L 156.25391 17.255859 L 152.08984 17.255859 L 152.08984 12.052734 L 148.89844 12.052734 z M 40.400391 12.46875 L 44.806641 12.46875 C 47.697498 12.46875 49.975491 13.301663 51.640625 14.966797 C 53.305758 16.63193 54.136719 18.921954 54.136719 21.835938 C 54.136719 24.773049 53.305758 27.073148 51.640625 28.738281 C 49.975491 30.380288 47.697498 31.201172 44.806641 31.201172 L 40.400391 31.201172 L 40.400391 12.46875 z M 163.03516 12.46875 L 168.96875 12.46875 C 170.05572 12.46875 170.96892 12.850095 171.70898 13.613281 C 172.44904 14.399595 172.81836 15.278672 172.81836 16.25 C 172.81836 17.244455 172.43701 18.135562 171.67383 18.921875 C 170.91064 19.685062 169.96134 20.066406 168.82812 20.066406 L 163.03516 20.066406 L 163.03516 12.46875 z M 263.47266 13.023438 C 265.36906 13.023438 266.88436 13.902516 268.01758 15.660156 C 269.17392 17.417798 269.75195 19.661656 269.75195 22.390625 C 269.75195 25.096467 269.17392 27.340326 268.01758 29.121094 C 266.88436 30.878735 265.36906 31.757812 263.47266 31.757812 C 261.57625 31.757813 260.06095 30.888811 258.92773 29.154297 C 257.77139 27.373529 257.19336 25.119594 257.19336 22.390625 C 257.19336 19.661656 257.77139 17.417798 258.92773 15.660156 C 260.06095 13.902516 261.57625 13.023438 263.47266 13.023438 z M 297.07617 13.023438 C 298.44066 13.023438 299.59672 13.499065 300.54492 14.447266 C 301.51625 15.395467 302.00195 16.539501 302.00195 17.880859 C 302.00195 19.245344 301.51625 20.389379 300.54492 21.314453 C 299.55047 22.262654 298.39441 22.738281 297.07617 22.738281 C 295.75794 22.738281 294.60188 22.262654 293.60742 21.314453 C 292.65922 20.366252 292.18359 19.222217 292.18359 17.880859 C 292.18359 16.539501 292.65922 15.395467 293.60742 14.447266 C 294.55562 13.499065 295.71169 13.023437 297.07617 13.023438 z M 67.519531 16.701172 C 65.068085 16.701172 63.057002 17.56822 61.484375 19.302734 C 59.911749 21.014122 59.125 23.165651 59.125 25.755859 C 59.125 28.369194 59.935807 30.5308 61.554688 32.242188 C 63.173568 33.953575 65.230815 34.810547 67.728516 34.810547 C 69.439903 34.810547 70.967236 34.405143 72.308594 33.595703 C 73.673078 32.786263 74.736813 31.664334 75.5 30.230469 L 72.654297 28.84375 C 71.497954 30.878913 69.902351 31.896484 67.867188 31.896484 C 66.387069 31.896484 65.114617 31.386722 64.050781 30.369141 C 62.986946 29.351559 62.432972 28.010837 62.386719 26.345703 L 75.742188 26.345703 L 75.777344 25.998047 C 75.777344 23.060936 75.02473 20.782942 73.521484 19.164062 C 72.041365 17.522056 70.040359 16.701172 67.519531 16.701172 z M 120.09766 16.701172 C 117.64621 16.701172 115.63513 17.56822 114.0625 19.302734 C 112.48987 21.014122 111.70313 23.165651 111.70312 25.755859 C 111.70313 28.369194 112.51198 30.5308 114.13086 32.242188 C 115.74974 33.953575 117.80894 34.810547 120.30664 34.810547 C 122.01803 34.810547 123.54341 34.405143 124.88477 33.595703 C 126.24925 32.786263 127.31299 31.664334 128.07617 30.230469 L 125.23242 28.84375 C 124.07608 30.878913 122.48048 31.896484 120.44531 31.896484 C 118.96519 31.896484 117.69274 31.386722 116.62891 30.369141 C 115.56509 29.351559 115.00916 28.010837 114.96289 26.345703 L 128.32031 26.345703 L 128.35352 25.998047 C 128.35352 23.060936 127.60286 20.782942 126.09961 19.164062 C 124.61949 17.522056 122.61848 16.701172 120.09766 16.701172 z M 137.54688 16.701172 C 135.58109 16.701172 133.96338 17.174846 132.69141 18.123047 C 131.44255 19.048121 130.81836 20.286438 130.81836 21.835938 C 130.81836 24.194877 132.47216 25.79048 135.7793 26.623047 L 138.69336 27.351562 C 140.35849 27.860353 141.18945 28.657179 141.18945 29.744141 C 141.18945 30.345439 140.8442 30.867231 140.15039 31.306641 C 139.47971 31.746051 138.63477 31.964844 137.61719 31.964844 C 136.66899 31.964844 135.78991 31.687857 134.98047 31.132812 C 134.19416 30.554641 133.59207 29.755863 133.17578 28.738281 L 130.33203 29.953125 C 130.88707 31.410117 131.81232 32.59024 133.10742 33.492188 C 134.40253 34.371008 135.9058 34.810547 137.61719 34.810547 C 139.58297 34.810547 141.21271 34.300784 142.50781 33.283203 C 143.80291 32.265621 144.45117 31.017228 144.45117 29.537109 C 144.45117 26.970028 142.76324 25.270067 139.38672 24.4375 L 136.81836 23.777344 C 134.99134 23.36106 134.07812 22.668594 134.07812 21.697266 C 134.07813 21.095968 134.40323 20.586205 135.05078 20.169922 C 135.72145 19.753638 136.47212 19.544922 137.30469 19.544922 C 138.20664 19.544922 139.0155 19.753638 139.73242 20.169922 C 140.47248 20.563078 141.00435 21.119005 141.32812 21.835938 L 144.17383 20.65625 C 143.68817 19.453653 142.8312 18.494276 141.60547 17.777344 C 140.40288 17.060411 139.05012 16.701172 137.54688 16.701172 z M 76.519531 17.255859 L 83.386719 34.253906 L 86.578125 34.253906 L 93.517578 17.255859 L 90.117188 17.255859 L 85.052734 30.439453 L 84.982422 30.439453 L 79.988281 17.255859 L 76.519531 17.255859 z M 67.451172 19.615234 C 68.908164 19.615234 70.064228 20.008609 70.919922 20.794922 C 71.798743 21.558108 72.284446 22.529514 72.376953 23.708984 L 62.628906 23.708984 C 62.906428 22.460134 63.472431 21.464669 64.328125 20.724609 C 65.206946 19.98455 66.248576 19.615234 67.451172 19.615234 z M 120.0293 19.615234 C 121.48629 19.615234 122.64235 20.008609 123.49805 20.794922 C 124.37687 21.558108 124.86257 22.529514 124.95508 23.708984 L 115.20703 23.708984 C 115.48455 22.460134 116.05056 21.464669 116.90625 20.724609 C 117.78507 19.98455 118.8267 19.615234 120.0293 19.615234 z M 187.51758 19.615234 C 189.06708 19.615234 190.35155 20.193267 191.36914 21.349609 C 192.40985 22.505953 192.92969 23.975091 192.92969 25.755859 C 192.92969 27.582881 192.40985 29.062097 191.36914 30.195312 C 190.37468 31.328529 189.0902 31.896484 187.51758 31.896484 C 185.99121 31.896484 184.70868 31.316499 183.66797 30.160156 C 182.62726 29.02694 182.10742 27.559754 182.10742 25.755859 C 182.10742 23.975091 182.62726 22.505953 183.66797 21.349609 C 184.70868 20.193267 185.99121 19.615234 187.51758 19.615234 z M 14 21.699219 L 5.1992188 37 L 10.300781 37 L 16.599609 26.099609 L 14 21.699219 z M 163.03516 23.048828 L 169.31445 23.048828 C 170.54017 23.048828 171.55775 23.454232 172.36719 24.263672 C 173.17663 25.073112 173.58203 26.020459 173.58203 27.107422 C 173.58203 28.217511 173.18866 29.178841 172.40234 29.988281 C 171.5929 30.797721 170.60947 31.201172 169.45312 31.201172 L 163.03516 31.201172 L 163.03516 23.048828 z M 16.900391 26.599609 L 10.900391 37 L 16.099609 37 L 19.5 31.099609 L 16.900391 26.599609 z "
     id="XMLID_259_" />
</svg>
