<?xml version="1.0" encoding="UTF-8" standalone="no"?>
<svg
   xmlns:dc="http://purl.org/dc/elements/1.1/"
   xmlns:cc="http://creativecommons.org/ns#"
   xmlns:rdf="http://www.w3.org/1999/02/22-rdf-syntax-ns#"
   xmlns:svg="http://www.w3.org/2000/svg"
   xmlns="http://www.w3.org/2000/svg"
   xmlns:xlink="http://www.w3.org/1999/xlink"
   xmlns:sodipodi="http://sodipodi.sourceforge.net/DTD/sodipodi-0.dtd"
   xmlns:inkscape="http://www.inkscape.org/namespaces/inkscape"
   width="557px"
   height="112px"
   viewBox="0 0 557 112"
   version="1.1"
   id="svg208"
   sodipodi:docname="organizer-logo-orig.svg"
   inkscape:version="0.92.1 r15371">
  <metadata
     id="metadata212">
    <rdf:RDF>
      <cc:Work
         rdf:about="">
        <dc:format>image/svg+xml</dc:format>
        <dc:type
           rdf:resource="http://purl.org/dc/dcmitype/StillImage" />
        <dc:title>Group 3</dc:title>
      </cc:Work>
    </rdf:RDF>
  </metadata>
  <sodipodi:namedview
     pagecolor="#ffffff"
     bordercolor="#666666"
     borderopacity="1"
     objecttolerance="10"
     gridtolerance="10"
     guidetolerance="10"
     inkscape:pageopacity="0"
     inkscape:pageshadow="2"
     inkscape:window-width="3000"
     inkscape:window-height="1840"
     id="namedview210"
     showgrid="false"
     inkscape:zoom="1.7645932"
     inkscape:cx="441.36731"
     inkscape:cy="107.9266"
     inkscape:window-x="0"
     inkscape:window-y="80"
     inkscape:window-maximized="1"
     inkscape:current-layer="svg208" />
  <!-- Generator: Sketch 48.2 (47327) - http://www.bohemiancoding.com/sketch -->
  <title
     id="title131">Group 3</title>
  <desc
     id="desc133">Created with Sketch.</desc>
  <defs
     id="defs159">
    <radialGradient
       cx="-19.636709"
       cy="-63.999131"
       fx="-19.636709"
       fy="-63.999131"
       r="147.99246"
       gradientTransform="scale(0.89096295,1.1223811)"
       id="radialGradient-1"
       gradientUnits="userSpaceOnUse">
      <stop
         stop-color="#FFCD4D"
         offset="0%"
         id="stop135" />
      <stop
         stop-color="#F6C338"
         offset="100%"
         id="stop137" />
    </radialGradient>
    <path
       d="M25.5561631,0.101545901 L0.259830359,41.405963 L13.0359171,41.405963 C16.059329,41.405963 19.8159937,39.3202392 21.3758544,36.7599857 L32.137121,19.1588234 C33.4074622,16.5759178 33.3637388,12.8214989 31.9125956,10.4407186 L25.5561631,0.101545901 Z"
       id="path-2" />
    <radialGradient
       cx="-3.1234232"
       cy="-43.492203"
       fx="-3.1234232"
       fy="-43.492203"
       r="160.87688"
       gradientTransform="scale(0.81959919,1.2201086)"
       id="radialGradient-4"
       gradientUnits="userSpaceOnUse">
      <stop
         stop-color="#0DA960"
         offset="0%"
         id="stop141" />
      <stop
         stop-color="#03914B"
         offset="100%"
         id="stop143" />
    </radialGradient>
    <path
       d="M28.9261298,0.052093172 C30.4853997,2.60363442 30.4853997,6.7808902 28.9261298,9.34172457 L0.515393294,56.0355683 C-0.581236083,58.3431652 0.559116663,60.1727475 3.37809229,60.1727475 L15.1928558,60.1727475 L40.4891885,18.8683304 L28.9261298,0.052093172 Z"
       id="path-5" />
    <radialGradient
       cx="-3.1613623"
       cy="-1.6893503"
       fx="-3.1613623"
       fy="-1.6893503"
       r="162.68033"
       gradientTransform="scale(0.81049214,1.2338183)"
       id="radialGradient-7"
       gradientUnits="userSpaceOnUse">
      <stop
         stop-color="#4387FD"
         offset="0%"
         id="stop147" />
      <stop
         stop-color="#4683EA"
         offset="100%"
         id="stop149" />
    </radialGradient>
    <path
       d="M3.37809229,0.189790601 C0.342863241,0.189790601 -0.862483703,2.28306505 0.697377048,4.83344466 L46.845621,80.184355 C48.2967642,82.5651352 48.3404876,86.3189734 47.0701464,88.9024597 L58.2899176,70.5462317 L15.199946,0.189790601 L3.37809229,0.189790601 Z"
       id="path-8" />
    <radialGradient
       cx="-20.644484"
       cy="-1.7664818"
       fx="-20.644484"
       fy="-1.7664818"
       r="155.61101"
       gradientTransform="scale(0.84726109,1.1802737)"
       id="radialGradient-10"
       gradientUnits="userSpaceOnUse">
      <stop
         stop-color="#E04A3F"
         offset="0%"
         id="stop153" />
      <stop
         stop-color="#CD372D"
         offset="100%"
         id="stop155" />
    </radialGradient>
    <path
       d="M49.601062,51.028945 L21.3758544,4.83344466 C19.8154028,2.28248423 16.0587382,0.189790601 13.0359171,0.189790601 L0.266920635,0.189790601 L43.3568922,70.5468126 L49.6016529,60.3191572 C51.1632862,57.7577421 51.1632862,53.5799055 49.601062,51.028945 Z"
       id="path-11" />
  </defs>
  <g
     style="fill:none;fill-rule:evenodd;stroke:none;stroke-width:1"
     id="Group-5"
     transform="translate(0.893764,0.041667)">
    <g
       id="path2895"
       transform="translate(14.933025,69.743056)">
      <mask
         id="mask-3"
         fill="white">
        <use
           xlink:href="#path-2"
           id="use169"
           x="0"
           y="0"
           width="100%"
           height="100%" />
      </mask>
      <use
         id="Mask"
         xlink:href="#path-2"
         style="fill:url(#radialGradient-1);fill-rule:nonzero"
         x="0"
         y="0"
         width="100%"
         height="100%" />
      <path
         d="m -53.338164,-15.432001 c 3.374018,-2.595733 8.878387,-8.145607 10.381025,-17.534763 -2.468192,0.0028 -4.326888,-1.825524 -4.326888,-4.080319 0,-2.254793 1.858696,-4.083126 4.150933,-4.083126 2.292238,0 4.150935,1.828333 4.150935,4.083126 0,1.327921 -0.652851,2.515206 -1.650227,3.26083 3.237035,2.784467 12.854984,10.07784 26.918576,12.07517 -2.019427,-13.837916 -9.436221,-23.302149 -12.267616,-26.486764 -0.758012,0.981086 -1.965009,1.623269 -3.314982,1.623269 -2.292244,0 -4.150931,-1.828334 -4.150931,-4.083126 0,-2.254796 1.858687,-4.083131 4.150931,-4.083131 2.292237,0 4.15093,1.828335 4.15093,4.083131 9.542036,-1.305014 15.1838466,-6.719466 17.8226829,-10.038371 -1.4749643,-0.626306 -2.5106229,-2.072868 -2.5106229,-3.753531 0,-2.254791 1.8584644,-4.083125 4.1509348,-4.083125 2.3154994,0 4.1739718,1.828334 4.1739718,4.083125 0,1.680663 -1.0354391,3.127225 -2.5106289,3.753531 2.6388423,3.318905 8.2806492,8.733357 17.8257303,10.210994 -0.0027,-2.427419 1.855771,-4.255754 4.14824,-4.255754 2.292469,0 4.150935,1.828335 4.150935,4.083131 0,2.254792 -1.858466,4.083126 -4.150935,4.083126 -1.349982,0 -2.55698,-0.642183 -3.314988,-1.623269 -2.831169,3.184615 -10.2484313,12.648848 -12.2770782,26.486797 14.0728152,-1.997554 23.6907562,-9.290704 26.9280282,-12.075171 -0.997145,-0.745623 -1.65022,-1.932908 -1.65022,-3.260831 0,-2.254792 1.858452,-4.083124 4.150921,-4.083124 2.292469,0 4.150935,1.828332 4.150935,4.083124 0,2.254796 -1.858466,4.083131 -4.150935,4.083131 1.326911,9.386344 6.83082,14.935996 10.205316,17.531952 0.636008,-1.450868 2.107058,-2.469607 3.815854,-2.469607 2.292003,0 4.150928,1.828103 4.150928,4.082897 0,2.255019 -1.858925,4.0831243 -4.150928,4.0831243 -1.708796,0 -3.179846,-1.0185103 -3.815854,-2.4696103 -3.374496,2.5957428 -8.878405,8.1456218 -10.381035,17.534773 2.468188,-0.00268 4.326654,1.8256693 4.326654,4.0804542 0,2.2547988 -1.858466,4.0831248 -4.150935,4.0831248 -2.292469,0 -4.150921,-1.828326 -4.150921,-4.0831248 0,-1.3279256 0.653075,-2.5152019 1.65022,-3.2608269 C 26.053749,3.364762 16.435808,-3.9281501 2.372219,-5.9257173 4.3914107,7.9115572 11.808673,17.376705 14.639842,20.560859 c 0.758008,-0.981077 1.965006,-1.623265 3.314988,-1.623265 2.292469,0 4.150935,1.828333 4.150935,4.083124 0,2.254785 -1.858466,4.083125 -4.150935,4.083125 -2.292469,0 -4.150941,-1.82834 -4.150941,-4.083125 -9.5423801,1.30501 -15.1839574,6.719473 -17.8230293,10.038373 1.474967,0.626079 2.5106289,2.072862 2.5106289,3.753525 0,2.254791 -1.8584724,4.083124 -4.1509415,4.083124 -2.3155007,0 -4.1739651,-1.828333 -4.1739651,-4.083124 0,-1.680663 1.035431,-3.127446 2.5106229,-3.753525 -2.6388363,-3.3189 -8.2808819,-8.733363 -17.8257219,-10.211455 0.003,2.427867 -1.855654,4.256207 -4.147891,4.256207 -2.292244,0 -4.150931,-1.82834 -4.150931,-4.083125 0,-2.254791 1.858687,-4.083124 4.150931,-4.083124 1.349973,0 2.55697,0.642188 3.314982,1.623265 2.831395,-3.184154 10.248189,-12.6493018 12.276846,-26.4865763 -14.072597,1.997788 -23.690543,9.2904793 -26.927812,12.0749526 0.997377,0.745625 1.650227,1.9329013 1.650227,3.2608269 0,2.2547988 -1.858697,4.0831248 -4.150934,4.0831248 -2.292239,0 -4.150934,-1.828326 -4.150934,-4.0831248 0,-2.2547849 1.858695,-4.0831313 4.150934,-4.0831313 -1.326671,-9.3864674 -6.831039,-14.9361188 -10.205057,-17.5320829 -0.636478,1.450872 -2.107292,2.4696174 -3.815862,2.4696174 -2.292238,0 -4.150934,-1.8281124 -4.150934,-4.0831314 0,-2.254795 1.858696,-4.082898 4.150934,-4.082898 1.708563,-4.2e-5 3.179376,1.018468 3.815854,2.469563 z m 13.894788,13.9536306 c 9.376965,-7.7740376 24.005545,-9.5209396 31.3164905,-9.8945516 -0.4275292,7.2008594 -2.2110465,21.556244 -10.1008115,30.76392 0,0 6.606902,1.45903 12.5588766,7.778588 C 0.29049427,20.847057 6.8854052,19.390971 6.8854052,19.390971 -1.004377,10.183295 -2.7878895,-4.172076 -3.1720839,-11.375633 c 7.2675921,0.376283 21.8964039,2.1231848 31.2733569,9.8972291 0,0 1.480964,-6.4896755 7.893693,-12.3407971 -6.410149,-5.835195 -7.893639,-12.339161 -7.893639,-12.339161 -9.376967,7.774048 -24.0057782,9.520945 -31.3167295,9.894551 0.4275535,-7.200276 2.211066,-21.556102 10.1008482,-30.763784 0,0 -6.59491766,-1.456316 -12.5420485,-7.761119 -5.9643952,6.302123 -12.5710692,7.761162 -12.5710692,7.761162 7.889543,9.207678 9.6732891,23.563502 10.0574854,30.766594 -7.2678834,-0.376436 -21.8962324,-2.123337 -31.2731924,-9.897384 0,0 -1.480963,6.48968 -7.893925,12.33989 6.412277,5.8474612 7.893928,12.3400816 7.893928,12.3400816 z"
         mask="url(#mask-3)"
         id="path173"
         inkscape:connector-curvature="0"
         style="opacity:0.50028327;fill:#ffffff;fill-rule:nonzero" />
    </g>
    <g
       id="g183"
       transform="translate(0,50.976852)">
      <mask
         id="mask-6"
         fill="white">
        <use
           xlink:href="#path-5"
           id="use176"
           x="0"
           y="0"
           width="100%"
           height="100%" />
      </mask>
      <use
         id="use179"
         xlink:href="#path-5"
         style="fill:url(#radialGradient-4);fill-rule:nonzero"
         x="0"
         y="0"
         width="100%"
         height="100%" />
      <path
         d="m -38.405139,3.3342031 c 3.374018,-2.59573301 8.878387,-8.1456072 10.381025,-17.5347631 -2.468192,0.0028 -4.326888,-1.825524 -4.326888,-4.08032 0,-2.254792 1.858696,-4.083126 4.150934,-4.083126 2.292238,0 4.150934,1.828334 4.150934,4.083126 0,1.327922 -0.65285,2.515207 -1.650227,3.26083 3.237035,2.784468 12.854984,10.0778411 26.9185764,12.0751706 C -0.80021132,-16.782796 -8.2170054,-26.247028 -11.0484,-29.431643 c -0.758013,0.981086 -1.965009,1.623269 -3.314983,1.623269 -2.292243,0 -4.150931,-1.828334 -4.150931,-4.083126 0,-2.254797 1.858688,-4.083131 4.150931,-4.083131 2.292237,0 4.150931,1.828334 4.150931,4.083131 9.5420351,-1.305014 15.183846,-6.719467 17.8226823,-10.038371 -1.4749643,-0.626306 -2.5106229,-2.072868 -2.5106229,-3.753531 0,-2.254791 1.8584644,-4.083126 4.1509348,-4.083126 2.3154998,0 4.1739718,1.828335 4.1739718,4.083126 0,1.680663 -1.035439,3.127225 -2.510629,3.753531 2.638842,3.318904 8.280649,8.733357 17.825731,10.210994 -0.0027,-2.42742 1.855771,-4.255754 4.14824,-4.255754 2.292469,0 4.150934,1.828334 4.150934,4.083131 0,2.254792 -1.858465,4.083126 -4.150934,4.083126 -1.349982,0 -2.55698,-0.642183 -3.314989,-1.623269 -2.831169,3.184615 -10.248431,12.648847 -12.277078,26.4867964 14.072815,-1.9975537 23.690756,-9.2907034 26.928029,-12.0751704 -0.997146,-0.745623 -1.650221,-1.932908 -1.650221,-3.260831 0,-2.254792 1.858453,-4.083125 4.150922,-4.083125 2.292469,0 4.150935,1.828333 4.150935,4.083125 0,2.254796 -1.858466,4.083131 -4.150935,4.083131 1.326911,9.3863437 6.830819,14.93599568 10.205315,17.5319522 0.636008,-1.4508683 2.107058,-2.46960713 3.815854,-2.46960713 2.292003,0 4.150928,1.82810273 4.150928,4.08289633 0,2.2550192 -1.858925,4.0831246 -4.150928,4.0831246 -1.708796,0 -3.179846,-1.0185106 -3.815854,-2.4696105 -3.374496,2.5957431 -8.878404,8.1456225 -10.381035,17.5347735 2.468189,-0.0027 4.326655,1.825669 4.326655,4.080454 0,2.254798 -1.858466,4.083125 -4.150935,4.083125 -2.292469,0 -4.150922,-1.828327 -4.150922,-4.083125 0,-1.327926 0.653075,-2.515202 1.650221,-3.260827 -3.237043,-2.784473 -12.854984,-10.077385 -26.918574,-12.074953 2.019192,13.837275 9.436454,23.302423 12.267623,26.486577 0.758009,-0.981078 1.965007,-1.623266 3.314989,-1.623266 2.292469,0 4.150934,1.828333 4.150934,4.083125 0,2.254785 -1.858465,4.083125 -4.150934,4.083125 -2.292469,0 -4.150942,-1.82834 -4.150942,-4.083125 -9.54238,1.305009 -15.183957,6.719473 -17.823029,10.038373 1.474967,0.626078 2.510629,2.072861 2.510629,3.753524 0,2.254792 -1.858472,4.083125 -4.1509415,4.083125 -2.3155007,0 -4.1739651,-1.828333 -4.1739651,-4.083125 0,-1.680663 1.035431,-3.127446 2.5106229,-3.753524 -2.6388363,-3.3189 -8.28088155,-8.733364 -17.8257223,-10.211456 0.003,2.427868 -1.855654,4.256208 -4.147891,4.256208 -2.292243,0 -4.150931,-1.82834 -4.150931,-4.083125 0,-2.254792 1.858688,-4.083125 4.150931,-4.083125 1.349974,0 2.55697,0.642188 3.314983,1.623266 2.8313946,-3.184154 10.24818868,-12.649302 12.2768451,-26.486577 -14.0725961,1.997788 -23.6905421,9.29048 -26.9278121,12.074953 0.997377,0.745625 1.650227,1.932901 1.650227,3.260827 0,2.254798 -1.858696,4.083125 -4.150934,4.083125 -2.292239,0 -4.150934,-1.828327 -4.150934,-4.083125 0,-2.254785 1.858695,-4.083131 4.150934,-4.083131 -1.32667,-9.386468 -6.831039,-14.9361192 -10.205057,-17.5320831 -0.636477,1.4508723 -2.107291,2.4696172 -3.815861,2.4696172 -2.292238,0 -4.150935,-1.8281121 -4.150935,-4.0831313 0,-2.2547956 1.858697,-4.08289768 4.150935,-4.08289768 1.708562,-4.283e-5 3.179376,1.01846778 3.815853,2.46956298 z M -24.510351,17.287833 C -15.133385,9.5137957 -0.50480594,7.7668941 6.8061399,7.3932818 6.3786107,14.594141 4.5950935,28.949525 -3.2946718,38.157201 c 0,0 6.6069022,1.459031 12.5588768,7.778589 C 15.22352,39.613261 21.818431,38.157175 21.818431,38.157175 13.928648,28.949499 12.145136,14.594128 11.760942,7.3905712 19.028534,7.7668539 33.657345,9.5137555 43.034298,17.2878 c 0,0 1.480965,-6.489676 7.893693,-12.3407976 C 44.517843,-0.88819268 43.034352,-7.392158 43.034352,-7.392158 33.657386,0.38188965 19.028574,2.1287866 11.717623,2.5023922 c 0.427553,-7.2002757 2.211066,-21.5561012 10.100848,-30.7637832 0,0 -6.594918,-1.456316 -12.5420484,-7.76112 -5.9643948,6.302123 -12.5710694,7.761163 -12.5710694,7.761163 C 4.5948969,-19.053671 6.3786425,-4.697846 6.7628388,2.505246 -0.50504502,2.12881 -15.133394,0.38190839 -24.510353,-7.3921386 c 0,0 -1.480963,6.48968021 -7.893926,12.3398906 6.412278,5.847461 7.893928,12.340081 7.893928,12.340081 z"
         mask="url(#mask-6)"
         id="path181"
         inkscape:connector-curvature="0"
         style="opacity:0.50028327;fill:#ffffff;fill-rule:nonzero" />
    </g>
    <g
       id="g192">
      <mask
         id="mask-9"
         fill="white">
        <use
           xlink:href="#path-8"
           id="use185"
           x="0"
           y="0"
           width="100%"
           height="100%" />
      </mask>
      <use
         id="use188"
         xlink:href="#path-8"
         style="fill:url(#radialGradient-7);fill-rule:nonzero"
         x="0"
         y="0"
         width="100%"
         height="100%" />
      <path
         d="m -38.405139,54.311055 c 3.374018,-2.595733 8.878387,-8.145607 10.381025,-17.534763 -2.468192,0.0028 -4.326888,-1.825524 -4.326888,-4.08032 0,-2.254792 1.858696,-4.083126 4.150934,-4.083126 2.292238,0 4.150934,1.828334 4.150934,4.083126 0,1.327922 -0.65285,2.515207 -1.650227,3.26083 3.237035,2.784468 12.854984,10.077841 26.9185764,12.075171 C -0.80021132,34.194056 -8.2170054,24.729824 -11.0484,21.545208 c -0.758013,0.981087 -1.965009,1.62327 -3.314983,1.62327 -2.292243,0 -4.150931,-1.828334 -4.150931,-4.083127 0,-2.254796 1.858688,-4.08313 4.150931,-4.08313 2.292237,0 4.150931,1.828334 4.150931,4.08313 C -0.6704169,17.780337 4.971394,12.365885 7.6102303,9.046981 6.135266,8.4206746 5.0996074,6.9741131 5.0996074,5.2934494 c 0,-2.2547909 1.8584644,-4.0831252 4.1509348,-4.0831252 2.3154998,0 4.1739718,1.8283343 4.1739718,4.0831252 0,1.6806637 -1.035439,3.1272252 -2.510629,3.7535316 2.638842,3.318904 8.280649,8.733356 17.825731,10.210994 -0.0027,-2.42742 1.855771,-4.255754 4.14824,-4.255754 2.292469,0 4.150934,1.828334 4.150934,4.08313 0,2.254793 -1.858465,4.083127 -4.150934,4.083127 -1.349982,0 -2.55698,-0.642183 -3.314989,-1.62327 -2.831169,3.184616 -10.248431,12.648848 -12.277078,26.486797 14.072815,-1.997553 23.690756,-9.290703 26.928029,-12.075171 -0.997146,-0.745623 -1.650221,-1.932907 -1.650221,-3.26083 0,-2.254793 1.858453,-4.083125 4.150922,-4.083125 2.292469,0 4.150935,1.828332 4.150935,4.083125 0,2.254796 -1.858466,4.083131 -4.150935,4.083131 1.326911,9.386343 6.830819,14.935995 10.205315,17.531952 0.636008,-1.450868 2.107058,-2.469607 3.815854,-2.469607 2.292003,0 4.150928,1.828103 4.150928,4.082896 0,2.255019 -1.858925,4.083125 -4.150928,4.083125 -1.708796,0 -3.179846,-1.018511 -3.815854,-2.469611 -3.374496,2.595743 -8.878404,8.145622 -10.381035,17.534774 2.468189,-0.0027 4.326655,1.825669 4.326655,4.080454 0,2.254798 -1.858466,4.083124 -4.150935,4.083124 -2.292469,0 -4.150922,-1.828326 -4.150922,-4.083124 0,-1.327926 0.653075,-2.515202 1.650221,-3.260827 -3.237043,-2.784474 -12.854984,-10.077386 -26.918574,-12.074953 2.019192,13.837275 9.436454,23.302423 12.267623,26.486577 0.758009,-0.981078 1.965007,-1.623266 3.314989,-1.623266 2.292469,0 4.150934,1.828333 4.150934,4.083125 0,2.254785 -1.858465,4.083124 -4.150934,4.083124 -2.292469,0 -4.150942,-1.828339 -4.150942,-4.083124 -9.54238,1.305009 -15.183957,6.719473 -17.823029,10.038376 1.474967,0.62607 2.510629,2.07286 2.510629,3.75352 0,2.25479 -1.858472,4.08313 -4.1509415,4.08313 -2.3155007,0 -4.1739651,-1.82834 -4.1739651,-4.08313 0,-1.68066 1.035431,-3.12745 2.5106229,-3.75352 -2.6388363,-3.318903 -8.28088155,-8.733367 -17.8257223,-10.211459 0.003,2.427868 -1.855654,4.256207 -4.147891,4.256207 -2.292243,0 -4.150931,-1.828339 -4.150931,-4.083124 0,-2.254792 1.858688,-4.083125 4.150931,-4.083125 1.349974,0 2.55697,0.642188 3.314983,1.623266 2.8313946,-3.184154 10.24818868,-12.649302 12.2768451,-26.486577 -14.0725961,1.997788 -23.6905421,9.290479 -26.9278121,12.074953 0.997377,0.745625 1.650227,1.932901 1.650227,3.260827 0,2.254798 -1.858696,4.083124 -4.150934,4.083124 -2.292239,0 -4.150934,-1.828326 -4.150934,-4.083124 0,-2.254785 1.858695,-4.083132 4.150934,-4.083132 -1.32667,-9.386467 -6.831039,-14.936118 -10.205057,-17.532082 -0.636477,1.450872 -2.107291,2.469617 -3.815861,2.469617 -2.292238,0 -4.150935,-1.828112 -4.150935,-4.083131 0,-2.254796 1.858697,-4.082898 4.150935,-4.082898 1.708562,-4.3e-5 3.179376,1.018468 3.815853,2.469563 z m 13.894788,13.95363 c 9.376966,-7.774037 24.00554506,-9.520939 31.3164909,-9.894551 -0.4275292,7.200859 -2.2110464,21.556243 -10.1008117,30.763919 0,0 6.6069022,1.459031 12.5588768,7.778589 C 15.22352,90.590113 21.818431,89.134027 21.818431,89.134027 13.928648,79.92635 12.145136,65.57098 11.760942,58.367423 c 7.267592,0.376283 21.896403,2.123184 31.273356,9.897229 0,0 1.480965,-6.489676 7.893693,-12.340798 -6.410148,-5.835195 -7.893639,-12.33916 -7.893639,-12.33916 -9.376966,7.774047 -24.005778,9.520944 -31.316729,9.89455 0.427553,-7.200276 2.211066,-21.556101 10.100848,-30.763783 0,0 -6.594918,-1.456316 -12.5420484,-7.76112 -5.9643948,6.302123 -12.5710694,7.761163 -12.5710694,7.761163 7.8895437,9.207677 9.6732893,23.563502 10.0574856,30.766594 -7.26788382,-0.376436 -21.8962328,-2.123338 -31.2731918,-9.897385 0,0 -1.480963,6.48968 -7.893926,12.339891 6.412278,5.847461 7.893928,12.340081 7.893928,12.340081 z"
         mask="url(#mask-9)"
         id="path190"
         inkscape:connector-curvature="0"
         style="opacity:0.50028327;fill:#ffffff;fill-rule:nonzero" />
    </g>
    <g
       id="g201"
       transform="translate(14.933025)">
      <mask
         id="mask-12"
         fill="white">
        <use
           xlink:href="#path-11"
           id="use194"
           x="0"
           y="0"
           width="100%"
           height="100%" />
      </mask>
      <use
         id="use197"
         xlink:href="#path-11"
         style="fill:url(#radialGradient-10);fill-rule:nonzero"
         x="0"
         y="0"
         width="100%"
         height="100%" />
      <path
         d="m -53.338164,54.311055 c 3.374018,-2.595733 8.878387,-8.145607 10.381025,-17.534763 -2.468192,0.0028 -4.326888,-1.825524 -4.326888,-4.08032 0,-2.254792 1.858696,-4.083126 4.150933,-4.083126 2.292238,0 4.150935,1.828334 4.150935,4.083126 0,1.327922 -0.652851,2.515207 -1.650227,3.26083 3.237035,2.784468 12.854984,10.077841 26.918576,12.075171 -2.019427,-13.837917 -9.436221,-23.302149 -12.267616,-26.486765 -0.758012,0.981087 -1.965009,1.62327 -3.314982,1.62327 -2.292244,0 -4.150931,-1.828334 -4.150931,-4.083127 0,-2.254796 1.858687,-4.08313 4.150931,-4.08313 2.292237,0 4.15093,1.828334 4.15093,4.08313 9.542036,-1.305014 15.1838466,-6.719466 17.8226829,-10.03837 C -8.7977594,8.4206746 -9.833418,6.9741131 -9.833418,5.2934494 c 0,-2.2547909 1.8584644,-4.0831252 4.1509348,-4.0831252 2.3154994,0 4.1739718,1.8283343 4.1739718,4.0831252 0,1.6806637 -1.0354391,3.1272252 -2.5106289,3.7535316 2.6388423,3.318904 8.2806492,8.733356 17.8257303,10.210994 -0.0027,-2.42742 1.855771,-4.255754 4.14824,-4.255754 2.292469,0 4.150935,1.828334 4.150935,4.08313 0,2.254793 -1.858466,4.083127 -4.150935,4.083127 -1.349982,0 -2.55698,-0.642183 -3.314988,-1.62327 C 11.808673,24.729824 4.3914107,34.194056 2.3627638,48.032005 16.435579,46.034452 26.05352,38.741302 29.290792,35.956834 c -0.997145,-0.745623 -1.65022,-1.932907 -1.65022,-3.26083 0,-2.254793 1.858452,-4.083125 4.150921,-4.083125 2.292469,0 4.150935,1.828332 4.150935,4.083125 0,2.254796 -1.858466,4.083131 -4.150935,4.083131 1.326911,9.386343 6.83082,14.935995 10.205316,17.531952 0.636008,-1.450868 2.107058,-2.469607 3.815854,-2.469607 2.292003,0 4.150928,1.828103 4.150928,4.082896 0,2.255019 -1.858925,4.083125 -4.150928,4.083125 -1.708796,0 -3.179846,-1.018511 -3.815854,-2.469611 -3.374496,2.595743 -8.878405,8.145622 -10.381035,17.534774 2.468188,-0.0027 4.326654,1.825669 4.326654,4.080454 0,2.254798 -1.858466,4.083124 -4.150935,4.083124 -2.292469,0 -4.150921,-1.828326 -4.150921,-4.083124 0,-1.327926 0.653075,-2.515202 1.65022,-3.260827 C 26.053749,73.107817 16.435808,65.814905 2.372219,63.817338 c 2.0191917,13.837275 9.436454,23.302423 12.267623,26.486577 0.758008,-0.981078 1.965006,-1.623266 3.314988,-1.623266 2.292469,0 4.150935,1.828333 4.150935,4.083125 0,2.254785 -1.858466,4.083124 -4.150935,4.083124 -2.292469,0 -4.150941,-1.828339 -4.150941,-4.083124 -9.5423801,1.305009 -15.1839574,6.719473 -17.8230293,10.038376 1.474967,0.62607 2.5106289,2.07286 2.5106289,3.75352 0,2.25479 -1.8584724,4.08313 -4.1509415,4.08313 -2.3155007,0 -4.1739651,-1.82834 -4.1739651,-4.08313 0,-1.68066 1.035431,-3.12745 2.5106229,-3.75352 -2.6388363,-3.318903 -8.2808819,-8.733367 -17.8257219,-10.211459 0.003,2.427868 -1.855654,4.256207 -4.147891,4.256207 -2.292244,0 -4.150931,-1.828339 -4.150931,-4.083124 0,-2.254792 1.858687,-4.083125 4.150931,-4.083125 1.349973,0 2.55697,0.642188 3.314982,1.623266 2.831395,-3.184154 10.248189,-12.649302 12.276846,-26.486577 -14.072597,1.997788 -23.690543,9.290479 -26.927812,12.074953 0.997377,0.745625 1.650227,1.932901 1.650227,3.260827 0,2.254798 -1.858697,4.083124 -4.150934,4.083124 -2.292239,0 -4.150934,-1.828326 -4.150934,-4.083124 0,-2.254785 1.858695,-4.083132 4.150934,-4.083132 -1.326671,-9.386467 -6.831039,-14.936118 -10.205057,-17.532082 -0.636478,1.450872 -2.107292,2.469617 -3.815862,2.469617 -2.292238,0 -4.150934,-1.828112 -4.150934,-4.083131 0,-2.254796 1.858696,-4.082898 4.150934,-4.082898 1.708563,-4.3e-5 3.179376,1.018468 3.815854,2.469563 z m 13.894788,13.95363 c 9.376965,-7.774037 24.005545,-9.520939 31.3164905,-9.894551 -0.4275292,7.200859 -2.2110465,21.556243 -10.1008115,30.763919 0,0 6.606902,1.459031 12.5588766,7.778589 C 0.29049427,90.590113 6.8854052,89.134027 6.8854052,89.134027 -1.004377,79.92635 -2.7878895,65.57098 -3.1720839,58.367423 c 7.2675921,0.376283 21.8964039,2.123184 31.2733569,9.897229 0,0 1.480964,-6.489676 7.893693,-12.340798 -6.410149,-5.835195 -7.893639,-12.33916 -7.893639,-12.33916 -9.376967,7.774047 -24.0057782,9.520944 -31.3167295,9.89455 0.4275535,-7.200276 2.211066,-21.556101 10.1008482,-30.763783 0,0 -6.59491766,-1.456316 -12.5420485,-7.76112 -5.9643952,6.302123 -12.5710692,7.761163 -12.5710692,7.761163 7.889543,9.207677 9.6732891,23.563502 10.0574854,30.766594 -7.2678834,-0.376436 -21.8962324,-2.123338 -31.2731924,-9.897385 0,0 -1.480963,6.48968 -7.893925,12.339891 6.412277,5.847461 7.893928,12.340081 7.893928,12.340081 z"
         mask="url(#mask-12)"
         id="path199"
         inkscape:connector-curvature="0"
         style="opacity:0.50028327;fill:#ffffff;fill-rule:nonzero" />
    </g>
  </g>
  <text
     xml:space="preserve"
     style="font-style:normal;font-variant:normal;font-weight:normal;font-stretch:normal;font-size:178.37120056px;line-height:1.25;font-family:'Product Sans';-inkscape-font-specification:'Product Sans';letter-spacing:0px;word-spacing:0px;fill:#757575;fill-opacity:1;stroke:none;stroke-width:4.45927954"
     x="81.561241"
     y="55.598827"
     id="text142"><tspan
       sodipodi:role="line"
       x="81.561241"
       y="55.598827"
       style="font-size:65.40276337px;fill:#757575;fill-opacity:1;stroke-width:4.45927954"
       id="tspan150"><tspan
         style="font-style:normal;font-variant:normal;font-weight:bold;font-stretch:normal;font-family:'Product Sans';-inkscape-font-specification:'Product Sans Bold'"
         id="tspan532">DevFest</tspan></tspan></text>
  <text
     id="text156"
     y="101.86185"
     x="81.561241"
     style="font-style:normal;font-variant:normal;font-weight:normal;font-stretch:normal;font-size:178.37120056px;line-height:1.25;font-family:'Product Sans';-inkscape-font-specification:'Product Sans';letter-spacing:0px;word-spacing:0px;fill:#757575;fill-opacity:1;stroke:none;stroke-width:4.45927954"
     xml:space="preserve"><tspan
       id="tspan154"
       style="font-size:53.33333206px;fill:#757575;fill-opacity:1;stroke-width:4.45927954"
       y="101.86185"
       x="81.561241"
       sodipodi:role="line">du Bout du Monde</tspan></text>
</svg>
